<svg width="100" height="100" viewBox="0 0 100 100" fill="none" xmlns="http://www.w3.org/2000/svg">
<path d="M58.571 77.8502C58.8436 76.7558 59.0984 75.7153 59.4226 74.4098C58 75.1804 56.7613 75.8004 55.5742 76.5071C53.1468 77.9582 50.5436 78.2494 47.8516 77.6474C46.9645 77.4494 46.1662 76.8654 45.2081 76.3991C44.2645 77.7243 42.5774 77.8911 40.8565 77.8977C39.7436 77.9026 38.6049 77.914 37.5194 77.7063C35.1291 77.2531 34.3226 75.9116 34.8774 73.5722C34.9678 73.1845 35.0533 72.7968 35.1645 72.3126C34.2807 72.4336 33.4387 72.5138 32.6145 72.6888C32.4242 72.7314 32.3016 73.0929 32.1468 73.3056C31.7371 73.8651 31.392 74.4949 30.8968 74.9628C30.3 75.5321 29.4807 75.8789 28.921 76.476C27.0839 78.4343 24.7823 77.8551 22.4532 77.8764C23.0694 75.5599 23.642 73.3661 24.2339 71.1739C24.9565 68.4844 25.6371 65.7835 26.4484 63.1202C26.7194 62.2286 27.3323 61.445 27.8436 60.5076H24.6662C25.0645 58.9763 25.3 57.5776 25.7984 56.2803C26.4726 54.5331 26.292 52.8121 26.0403 51.0551C25.7662 49.1247 25.4726 47.1992 25.2629 45.2622C25.2194 44.8532 25.3968 44.3215 25.6581 43.9927C26.3726 43.0848 27.1597 42.2292 27.9613 41.3916C28.9791 40.3331 29.6903 39.17 30.042 37.6894C30.8357 34.3873 31.7216 31.1086 32.6984 27.8574C32.9339 27.0721 33.5597 26.3785 34.0968 25.7209C34.9776 24.6623 35.897 23.6375 36.8533 22.6485C37.1 22.3884 37.4984 22.1365 37.8371 22.125C39.4581 22.0711 41.0855 22.1021 42.7533 22.1021L42.9742 23.599C43.1258 23.6138 43.2355 23.6481 43.25 23.6236C44.2178 22.0809 45.7033 22.0531 47.3129 22.0743C52.0162 22.1398 56.721 22.0989 61.4258 22.0989H62.6791V23.9769L62.8452 24.2763C64.2581 21.5377 66.6049 22.0612 68.921 22.1659V24.188C70.0839 23.5761 70.5049 21.8976 72.2113 22.0776C73.5258 22.2167 74.8645 22.1054 76.3984 22.1054C73.6807 28.0014 71.0323 33.7419 68.3645 39.5217L69.3968 39.682C69.2758 40.2579 69.1597 40.8321 69.0258 41.4881C69.192 41.4325 69.3049 41.4308 69.3516 41.3736C70.771 39.6591 72.6484 39.3826 74.7129 39.5871C75.5629 39.6689 76.4275 39.6002 77.5484 39.6002C77.1904 40.0583 76.9936 40.3282 76.7758 40.5818C74.9307 42.7183 73.0613 44.8352 71.25 47.0045C71.0049 47.299 70.9065 47.8552 70.9758 48.2478C71.4597 50.9471 72.0065 53.635 72.5178 56.3294C72.5613 56.5584 72.4984 56.8071 72.4807 57.1212H75.0646C74.4016 59.0974 74.6533 61.3517 72.3516 62.3726C71.2065 62.883 70.7162 63.8416 70.4242 65.0621C69.7468 67.9086 68.942 70.7273 68.1339 73.5395C68.0081 73.9812 67.6581 74.4229 67.2952 74.7141C66.5371 75.3243 65.5871 75.7251 64.9113 76.4073C63.092 78.2445 60.8726 77.9746 58.5645 77.8519L58.571 77.8502ZM62.0694 22.768C58.0791 22.768 54.2871 22.7549 50.4968 22.8007C50.2549 22.8023 49.8839 23.226 49.8016 23.5172C49.0307 26.2264 48.3145 28.9486 47.5774 31.6642C46.9678 33.9202 46.3516 36.1729 45.6887 38.6219H51.321C53.1242 38.6219 54.2479 37.7369 54.692 35.9668C54.7065 35.9112 54.65 35.8392 54.5855 35.6609H50.3274C50.6371 34.483 50.8742 33.4278 51.2162 32.4086C51.2903 32.1861 51.7452 31.9783 52.0339 31.9636C53.0436 31.908 54.0597 31.9734 55.0694 31.9194C55.3484 31.9031 55.7694 31.6839 55.8597 31.4532C56.1371 30.7301 56.2887 29.9547 56.5242 29.0745H52.1065C52.3758 28.0128 52.5904 27.0656 52.8758 26.1397C52.9387 25.9335 53.2565 25.675 53.4645 25.6685C54.9339 25.6276 56.4065 25.6472 58.0242 25.6472L57.0774 38.6252C58.0726 38.6252 58.9 38.5663 59.7178 38.6415C60.5662 38.7201 61.0033 38.4223 61.3484 37.624C62.3274 35.3778 63.4065 33.1775 64.4468 30.9575L64.6145 30.987L64.1758 38.6252C65.1968 38.6252 66.1662 38.5876 67.1355 38.6383C67.7645 38.671 68.0904 38.4567 68.3613 37.8645C70.3774 33.4507 72.4371 29.0565 74.4807 24.6559C74.7484 24.0784 74.9855 23.4878 75.2936 22.7696C74.2307 22.7696 73.3323 22.8154 72.4387 22.7549C71.7533 22.7091 71.4226 22.9676 71.15 23.5958C70.2097 25.7356 69.1984 27.8459 68.2145 29.9645L67.9936 29.922L68.3065 22.7729C67.7645 22.7729 67.3613 22.835 66.9855 22.7614C65.7065 22.5095 65.0533 23.0788 64.5533 24.2338C63.7 26.2084 62.6855 28.1159 61.742 30.0496L61.5403 29.989C61.7129 27.6398 61.8887 25.289 62.0758 22.7745L62.0694 22.768ZM39.3565 30.1674L39.5807 30.1968C39.8258 32.672 40.1081 35.1439 40.292 37.624C40.3533 38.4452 40.6532 38.6383 41.421 38.6383C44.3678 38.6383 44.3742 38.6661 45.1468 35.8195C46.3162 31.5056 47.4807 27.1899 48.6613 22.8089H45.2903L43.1984 30.5338H43.0371L42.2274 22.7696C41.0436 22.7696 39.9597 22.8138 38.8839 22.7549C38.1597 22.7156 37.9033 22.9954 37.7291 23.6808C37.0129 26.4832 36.2258 29.2643 35.4678 32.0552C34.8839 34.2081 34.3065 36.3643 33.6984 38.6219C34.4952 38.6219 35.1855 38.5614 35.8597 38.6383C36.7855 38.743 37.1855 38.3896 37.4081 37.4718C37.9968 35.0228 38.6984 32.6016 39.3565 30.1706V30.1674ZM52.5194 56.0627C53.0516 54.1339 53.5403 52.2444 54.1129 50.3827C54.2065 50.0817 54.65 49.7153 54.9629 49.6825C56.5629 49.5124 56.85 49.8805 56.4371 51.4559C56.0371 52.9773 55.6113 54.4889 55.1774 56.0807H59.2533C59.7871 54.1078 60.3823 52.1757 60.8016 50.2028C60.9307 49.586 60.5855 48.8695 60.4645 48.2298C60.8678 47.7783 61.5597 47.3039 61.8178 46.656C62.3554 45.3175 62.7528 43.9253 63.0033 42.5024C63.2678 40.9564 62.6 40.3135 61.0016 40.3004C58.65 40.284 56.2952 40.32 53.9436 40.284C53.2452 40.2709 52.9468 40.4853 52.7629 41.192C51.6468 45.4929 50.4742 49.7791 49.321 54.0718C49.1468 54.7147 48.9839 55.3609 48.8016 56.0627H52.5194ZM51.1016 42.5613C51.0855 41.2721 50.4081 40.6145 49.4645 40.1842C47.7758 39.4137 46.0403 39.4546 44.3049 39.9977C42.6145 40.5262 41.1823 41.4177 40.671 43.2484C39.74 46.5863 38.8399 49.933 37.971 53.2882C37.5791 54.803 38.1065 55.8092 39.5484 56.4161C41.0678 57.0557 42.642 57.0492 44.221 56.6664C46.4226 56.1298 47.9307 54.9323 48.4887 52.5765C49.2129 49.5189 50.1081 46.5006 50.921 43.4659C51.0145 43.1175 51.0662 42.7609 51.1033 42.5596L51.1016 42.5613ZM48.4081 57.1768C48.1178 57.1768 47.8291 57.1653 47.5403 57.1768C44.992 57.2782 42.8613 58.7424 42.2533 60.9133C41.3404 64.1819 40.4586 67.4594 39.6081 70.7453C39.2178 72.2504 39.7242 73.407 41.1887 73.8585C42.3645 74.2184 43.6694 74.4098 44.8887 74.3215C47.7984 74.1105 49.4258 72.6103 50.1871 69.7605C50.9258 67.0072 51.6452 64.2506 52.4 61.5055C53.121 58.888 52.0968 57.3944 49.3839 57.1801C49.0613 57.1539 48.7339 57.1768 48.4081 57.1768ZM55.2258 68.383H53.8113C52.2382 68.3874 51.2511 69.1301 50.85 70.6112C50.3936 72.3027 50.9516 73.3906 52.6323 73.9845C54.8952 74.7861 57.0758 74.3837 59.0791 73.2369C62.2678 71.4128 62.7323 67.7434 60.2 65.08C59.55 64.3979 58.8436 63.7697 58.1984 63.0842C57.6533 62.5067 57.2355 61.7885 57.7549 61.0442C58.0162 60.6679 58.6033 60.3211 59.0452 60.3178C59.6726 60.3145 59.8952 60.8937 59.8065 61.517C59.7452 61.9423 59.6774 62.3676 59.5936 62.9222H61.2355C62.6398 62.9222 63.5253 62.2422 63.892 60.8822C64.3694 59.1023 63.7468 57.8443 61.9758 57.3976C59.7549 56.8382 57.5887 57.0672 55.6468 58.3956C53.1226 60.115 52.6823 62.6948 54.4791 65.1455C54.8823 65.6952 55.4097 66.1581 55.8242 66.7029C56.4113 67.4718 57.0791 68.2243 57.442 69.0996C57.6049 69.4922 57.2533 70.32 56.8758 70.6504C56.5387 70.9449 55.7436 71.0234 55.3404 70.8189C55.0565 70.675 55.05 69.9028 55.0016 69.4022C54.9758 69.1339 55.1145 68.8493 55.2226 68.3847L55.2258 68.383ZM60.5694 56.0447C63.0898 56.2519 64.6382 55.2028 65.2145 52.8972C65.3194 52.4784 65.4484 52.0661 65.5629 51.6506C65.7715 50.8959 65.9791 50.1411 66.1855 49.3864L66.3791 49.4437C66.8178 51.6588 67.2597 53.8771 67.6903 56.0578H71.8355C71.4516 54.147 71.1323 52.2951 70.6968 50.4743C70.2081 48.4327 69.9968 46.5121 71.9871 45.0872C72.1887 44.9432 72.3291 44.7142 72.492 44.5228L75.9984 40.3609C75.4984 40.3282 75.2145 40.3282 74.9387 40.2873C72.8371 39.9732 71.2049 40.536 70.0404 42.4893C69.3887 43.5837 68.3726 44.4573 67.5226 45.4291L67.3 45.2786C67.7178 43.659 68.1323 42.0345 68.5791 40.2938C67.5113 40.2938 66.6436 40.3527 65.7823 40.2775C65.0145 40.2088 64.7226 40.5131 64.5387 41.2312C63.7758 44.2054 62.9581 47.1665 62.1581 50.1308C61.6323 52.0825 61.1097 54.0325 60.5662 56.0447H60.5694ZM32.65 68.7266C33.6113 68.7266 34.5468 68.7429 35.4807 68.7249C38.0145 68.6726 39.3807 67.727 40.0758 65.4105C40.5758 63.7517 40.9742 62.0634 41.3549 60.3751C41.6758 58.9469 41.1629 57.9882 39.7565 57.8786C37.2468 57.679 34.7194 57.7036 32.1968 57.6954C32.0032 57.6954 31.7129 58.1567 31.6291 58.4479C30.9791 60.7415 30.3742 63.0449 29.75 65.3467C29.0274 68.0231 28.3 70.6962 27.5355 73.5182C28.6565 73.5182 29.6226 73.4921 30.5871 73.5297C31.1581 73.551 31.4049 73.3497 31.542 72.7772C31.8565 71.4439 32.2613 70.1318 32.65 68.7298V68.7266ZM29.7468 56.1134C30.75 56.1134 31.6484 56.0431 32.5274 56.1347C33.4113 56.2263 33.7436 55.8206 33.8887 55.0501C34.5436 51.595 35.7694 48.3918 38.0178 45.6434C38.2 45.4209 38.3484 45.169 38.5097 44.9301L41.5984 40.2922C40.7307 40.2922 40.0823 40.3544 39.4484 40.2759C38.4968 40.1581 37.9307 40.5212 37.4371 41.3441C36.5565 42.8132 35.5436 44.2054 34.4436 45.843C34.2371 44.1465 34.0839 42.7281 33.8742 41.3163C33.8226 40.9695 33.5984 40.3838 33.4097 40.3658C32.3952 40.2709 31.3678 40.32 30.2855 40.32L31.0758 46.4008C31.3097 48.1775 31.6484 49.9263 30.9855 51.716C30.4758 53.0935 30.1758 54.5511 29.7436 56.1151L29.7468 56.1134ZM67.1371 60.5305L63.6581 73.5706C64.642 73.5706 65.4758 73.4937 66.292 73.5902C67.2113 73.6966 67.55 73.3023 67.7645 72.4696C68.7871 68.5204 69.8613 64.5827 70.9387 60.5436C71.6 60.5436 72.2484 60.5763 72.8904 60.5272C73.1307 60.5109 73.5 60.3505 73.5581 60.1722C73.8226 59.3771 73.9984 58.5494 74.2274 57.6561C71.3726 57.6561 68.6597 57.6447 65.95 57.6774C65.7113 57.679 65.3371 57.9277 65.2629 58.1436C65.0097 58.8815 64.8613 59.6585 64.6452 60.5321H67.1404L67.1371 60.5305Z" fill="#1D1D1D"/>
<path d="M62.0694 22.7681L61.5323 29.9826L61.7339 30.0448C62.6807 28.1095 63.6936 26.202 64.5468 24.229C65.0468 23.074 65.7 22.5031 66.9791 22.7567C67.3549 22.8303 67.7581 22.7665 68.2984 22.7665L67.9855 29.9156L68.2081 29.9597C69.192 27.8395 70.2032 25.7292 71.1436 23.5894C71.4178 22.9628 71.7468 22.7027 72.4339 22.7485C73.3258 22.8074 74.2242 22.7648 75.2855 22.7648C74.979 23.4814 74.742 24.072 74.4742 24.6494C72.4323 29.0501 70.371 33.4459 68.3532 37.8581C68.0823 38.4503 67.7565 38.6646 67.1274 38.6319C66.1613 38.5828 65.1887 38.6188 64.1694 38.6188L64.6081 30.9806L64.4403 30.9511C63.4 33.1678 62.3194 35.3714 61.342 37.6176C60.9936 38.4159 60.5581 38.7137 59.7113 38.6351C58.8936 38.5599 58.0661 38.6188 57.071 38.6188L58.0178 25.6408C56.4016 25.6408 54.9291 25.6212 53.4581 25.6621C53.2516 25.6686 52.9339 25.9288 52.8694 26.1332C52.5839 27.0592 52.371 28.0064 52.1 29.0681H56.5161C56.2823 29.9515 56.1323 30.7237 55.8516 31.4468C55.7629 31.6775 55.342 31.8983 55.0613 31.913C54.0516 31.9703 53.0355 31.9032 52.0258 31.9572C51.7371 31.9736 51.2839 32.1797 51.2097 32.4022C50.8661 33.4197 50.629 34.4733 50.3194 35.6544H54.5774C54.6452 35.8344 54.7016 35.9047 54.6855 35.9604C54.2414 37.7305 53.1178 38.6155 51.3145 38.6155H45.6823C46.3468 36.1665 46.9613 33.9138 47.5694 31.6578C48.3065 28.9422 49.0258 26.22 49.7952 23.5108C49.8758 23.2196 50.2468 22.7992 50.4887 22.7943C54.279 22.7485 58.071 22.7616 62.0629 22.7616L62.0694 22.7681ZM39.3549 30.1675C38.6984 32.6001 37.9968 35.023 37.4065 37.4703C37.1839 38.3865 36.7871 38.7398 35.8581 38.6351C35.1839 38.5599 34.4936 38.6188 33.6968 38.6188C34.3049 36.3628 34.8823 34.205 35.4678 32.0521C36.2258 29.2612 37.0129 26.4817 37.7274 23.6793C37.9032 22.9922 38.1597 22.7141 38.8823 22.7534C39.9597 22.8123 41.0436 22.7697 42.2258 22.7697L43.0371 30.5323H43.1984L45.2903 22.8074H48.6613C47.4774 27.1852 46.3145 31.5008 45.1452 35.818C44.371 38.6646 44.3678 38.6384 41.4194 38.6351C40.6516 38.6351 40.3532 38.4437 40.2903 37.6209C40.1065 35.1424 39.8258 32.6688 39.5807 30.1937L39.3549 30.1675ZM52.521 56.0612H48.8032C48.9871 55.3578 49.1516 54.7148 49.3226 54.0686C50.4758 49.7759 51.6484 45.4914 52.7645 41.1888C52.9468 40.4838 53.2452 40.2678 53.9468 40.2809C56.2968 40.3185 58.6484 40.2809 61.0032 40.2973C62.6032 40.3087 63.2678 40.9549 63.0049 42.5009C62.7532 43.9235 62.3559 45.3156 61.8194 46.6545C61.5613 47.304 60.871 47.7784 60.4661 48.2283C60.5887 48.868 60.9355 49.5861 60.8032 50.2013C60.3839 52.1742 59.7887 54.1063 59.2549 56.0776H55.179C55.6145 54.4874 56.042 52.9758 56.4387 51.4544C56.8516 49.879 56.5645 49.5109 54.9645 49.681C54.6516 49.7138 54.2081 50.0769 54.1145 50.3796C53.542 52.2446 53.05 54.1324 52.521 56.0612ZM55.0597 46.8312C55.7452 46.8312 56.2678 46.9228 56.7371 46.805C57.2145 46.6856 57.8242 46.4664 58.0436 46.095C58.3952 45.4996 58.5694 44.7503 58.621 44.0501C58.6452 43.736 58.2 43.1127 57.9565 43.1062C57.279 43.0898 56.3323 42.5679 55.9516 43.4824C55.5355 44.4935 55.3726 45.6075 55.0597 46.8312ZM51.1032 42.5598C51.0645 42.7577 51.0145 43.1176 50.921 43.4661C50.1065 46.5008 49.2113 49.5191 48.4887 52.5767C47.9307 54.9324 46.421 56.1299 44.2194 56.6665C42.642 57.0493 41.0694 57.0559 39.5468 56.4162C38.1081 55.8109 37.579 54.8032 37.971 53.2899C38.8409 49.9352 39.7403 46.588 40.6694 43.2485C41.1823 41.4162 42.6129 40.5263 44.3049 39.9979C46.0371 39.4547 47.7742 39.4106 49.4629 40.1844C50.4065 40.6163 51.0839 41.2723 51.1016 42.5614L51.1032 42.5598ZM43.2887 53.7251C43.979 53.6809 44.4371 53.0756 44.6597 52.2527C45.3995 49.5436 46.1253 46.8312 46.8371 44.1156C47.071 43.2272 46.4 42.545 45.5661 42.905C45.0645 43.1225 44.4936 43.6346 44.3403 44.1319C43.5049 46.8868 42.7742 49.6778 42.0403 52.4605C41.8242 53.2752 42.229 53.7333 43.2855 53.7235L43.2887 53.7251ZM48.4097 57.1769C48.7339 57.1769 49.0597 57.154 49.3839 57.1802C52.0968 57.3929 53.121 58.8881 52.4 61.5056C51.6452 64.2508 50.9242 67.0073 50.1871 69.759C49.4226 72.6104 47.8 74.1106 44.8887 74.3233C43.6694 74.4116 42.3645 74.2202 41.1887 73.8587C39.7258 73.4088 39.2178 72.2505 39.6081 70.7471C40.4629 67.4605 41.3371 64.1821 42.2532 60.9134C42.8613 58.7458 44.992 57.2816 47.5403 57.1769C47.8307 57.1655 48.1178 57.1769 48.4065 57.1769H48.4097ZM45.0323 71.2264C45.3323 70.9254 46.0355 70.5459 46.1984 70.0044C47.0532 67.1742 47.792 64.3113 48.5178 61.4435C48.7194 60.6468 48.0597 60.0497 47.3081 60.3572C46.8242 60.5552 46.221 60.9821 46.0823 61.4337C45.2274 64.2606 44.4694 67.1169 43.7258 69.9733C43.5339 70.7095 43.929 71.143 45.0323 71.2264ZM55.2258 68.3832C55.1178 68.8461 54.9774 69.1324 55.0049 69.4007C55.0549 69.8997 55.0613 70.6735 55.3436 70.8158C55.7468 71.0219 56.542 70.9434 56.879 70.6489C57.2565 70.3168 57.6081 69.4891 57.4452 69.0981C57.0839 68.2228 56.4129 67.4703 55.8274 66.6998C55.4129 66.1566 54.8855 65.6953 54.4823 65.1423C52.6855 62.6933 53.1274 60.1118 55.65 58.3924C57.5936 57.0673 59.7581 56.8383 61.979 57.3962C63.75 57.8428 64.3726 59.1008 63.8952 60.8807C63.5296 62.2396 62.6441 62.9191 61.2387 62.9191H59.5984C59.6823 62.3629 59.75 61.9392 59.8113 61.5155C59.9 60.8889 59.6758 60.3114 59.0484 60.3163C58.6049 60.3179 58.0194 60.6664 57.7581 61.041C57.2387 61.787 57.6565 62.5036 58.2016 63.0827C58.8468 63.7698 59.5549 64.3947 60.2032 65.0785C62.7371 67.7419 62.271 71.4097 59.0839 73.2354C57.0791 74.3838 54.8984 74.7862 52.6355 73.983C50.9549 73.3859 50.3984 72.298 50.8532 70.6097C51.2532 69.1275 52.2403 68.3842 53.8145 68.3799H55.229L55.2258 68.3832ZM60.5678 56.0449C61.1113 54.0326 61.6339 52.0826 62.1597 50.1309C62.9581 47.1666 63.7774 44.2055 64.5403 41.2314C64.7242 40.5132 65.0129 40.2089 65.7839 40.276C66.642 40.3529 67.5129 40.2923 68.5807 40.2923L67.3016 45.2787L67.5226 45.4292C68.3742 44.4575 69.3936 43.5839 70.042 42.4894C71.2065 40.5361 72.8371 39.9733 74.9403 40.2874C75.2162 40.3283 75.4984 40.3283 76 40.3611L72.4936 44.5229C72.3307 44.7176 72.1887 44.945 71.9903 45.0873C70 46.5122 70.2113 48.4312 70.6984 50.4745C71.1339 52.2953 71.4516 54.1455 71.8371 56.0579H67.692L66.3807 49.4438L66.1871 49.3866L65.5645 51.6507C65.45 52.0662 65.3226 52.4785 65.2178 52.8973C64.6371 55.2018 63.0882 56.251 60.571 56.0449H60.5678ZM32.6516 68.7267C32.2597 70.1303 31.8581 71.4424 31.5436 72.7757C31.4065 73.3483 31.1597 73.5495 30.5887 73.5282C29.6242 73.4922 28.6581 73.5168 27.5371 73.5168C28.3016 70.6947 29.029 68.02 29.7516 65.3452C30.3758 63.0451 30.9807 60.7417 31.6307 58.4464C31.7129 58.152 32.0049 57.6906 32.2 57.6939C34.721 57.6988 37.2484 57.6775 39.7581 57.8755C41.1645 57.9867 41.6774 58.9454 41.3549 60.3736C40.9876 62.0668 40.5616 63.7463 40.0774 65.409C39.3807 67.7255 38.0129 68.6678 35.4823 68.7234C34.5468 68.7431 33.6129 68.7251 32.6532 68.7251L32.6516 68.7267ZM33.4 65.7526C35.8355 66.047 36.1081 65.8703 36.7226 63.7338C36.8032 63.4557 36.8742 63.1776 36.95 62.8995C37.5871 60.5143 37.5549 60.475 35.0855 60.5633C35.0161 60.5633 34.95 60.6042 34.7919 60.6566L33.4016 65.7509L33.4 65.7526ZM29.7468 56.1152C30.179 54.5512 30.479 53.0936 30.9887 51.7145C31.6516 49.9264 31.3129 48.1743 31.0807 46.401L30.2887 40.3202C31.371 40.3202 32.3984 40.2694 33.4129 40.366C33.6 40.3823 33.8258 40.9696 33.8774 41.3148C34.0871 42.725 34.2403 44.145 34.4468 45.8431C35.5468 44.2055 36.5597 42.8117 37.4403 41.3443C37.9339 40.523 38.5 40.1598 39.4516 40.276C40.0839 40.3545 40.7323 40.2923 41.6016 40.2923C40.4919 41.961 39.5049 43.4464 38.5129 44.9303C38.3516 45.1707 38.2032 45.421 38.021 45.6435C35.7726 48.3952 34.5436 51.5951 33.892 55.0502C33.7468 55.8207 33.4145 56.2281 32.5307 56.1348C31.65 56.0432 30.7532 56.1152 29.75 56.1152H29.7468ZM67.1371 60.5274H64.642C64.8597 59.6538 65.0065 58.8783 65.2613 58.1389C65.3355 57.9246 65.7081 57.6775 65.9468 57.6726C68.6597 57.6399 71.371 57.6514 74.2242 57.6514C73.9968 58.5462 73.821 59.3724 73.5565 60.1674C73.4968 60.3474 73.1258 60.5061 72.8887 60.5241C72.2468 60.5715 71.5984 60.5404 70.9371 60.5404C69.8581 64.5763 68.7855 68.514 67.7629 72.4665C67.5484 73.2992 67.2097 73.6951 66.2903 73.5855C65.4758 73.4906 64.6403 73.5675 63.6565 73.5675L67.1355 60.5257L67.1371 60.5274Z" fill="#FBF6F6"/>
<path d="M55.058 46.8325C55.3693 45.6072 55.5306 44.4931 55.95 43.4838C56.329 42.5676 57.2758 43.0895 57.9532 43.1075C58.2 43.1124 58.6419 43.7357 58.6177 44.0498C58.5661 44.75 58.3919 45.4992 58.0403 46.0947C57.8209 46.4661 57.2113 46.6837 56.7338 46.8047C56.2645 46.9225 55.7435 46.8309 55.0564 46.8309M43.2871 53.7248C42.2274 53.7346 41.8258 53.2782 42.0403 52.4635C42.7742 49.6775 43.5064 46.8898 44.3419 44.1365C44.4935 43.6359 45.0645 43.1239 45.5677 42.9063C46.4 42.5447 47.0709 43.2286 46.8387 44.1169C46.1268 46.8325 45.401 49.5449 44.6613 52.2541C44.4371 53.0769 43.979 53.6839 43.2903 53.7264L43.2871 53.7248ZM45.0322 71.2261C43.929 71.1443 43.5338 70.7092 43.7258 69.973C44.4709 67.1133 45.2274 64.2603 46.0838 61.4333C46.2209 60.9835 46.8242 60.5581 47.308 60.3569C48.058 60.0493 48.7177 60.6465 48.5177 61.4415C47.7919 64.3077 47.0516 67.1739 46.1983 70.0041C46.0371 70.5456 45.3322 70.9267 45.0322 71.2261ZM33.4 65.7539L34.7903 60.6579C34.9483 60.6056 35.0161 60.5663 35.0822 60.5647C37.55 60.4747 37.5838 60.5156 36.9483 62.9008C36.8752 63.1789 36.7989 63.457 36.7193 63.7351C36.1064 65.8717 35.8322 66.0516 33.3967 65.7539H33.4Z" fill="#1D1D1D"/>
</svg>
