<svg width="26" height="18" viewBox="0 0 26 18" fill="none" xmlns="http://www.w3.org/2000/svg">
<g clip-path="url(#clip0_1_1101)">
<path d="M20.5771 7.07276L19.3898 8.3172L18.2406 7.07276H14.4819V10.8632H18.1835L19.3771 9.60609L20.5263 10.8632H21.7263L19.9803 8.97752L21.7263 7.07276H20.5771ZM17.7073 10.0823H15.4089V9.32672H17.4597V8.55212H15.4089V7.86006H17.7581L18.7803 8.96482L17.7073 10.0823ZM10.9835 9.64418L9.75807 7.07276H8.22791V10.6601L6.64061 7.07276H5.24379L3.5676 10.8632H4.59617L4.95807 10.0124H6.90728L7.26918 10.8632H9.17395V7.8918L10.5327 10.8632H11.3581L12.7041 7.8918L12.7105 10.8632H13.6374V7.06641H12.12L10.9835 9.64418ZM5.28823 9.23149L5.9295 7.71403L6.57077 9.23149H5.28823Z" fill="#010202"/>
<path d="M23.4848 0.273438H2.31015C1.47841 0.273438 0.799042 0.952803 0.799042 1.7909V16.1592C0.799042 16.9909 1.47841 17.6703 2.31015 17.6703H23.4848C24.3165 17.6703 24.9959 16.9909 24.9959 16.1592V1.7909C24.9959 0.952803 24.3165 0.273438 23.4848 0.273438ZM23.4848 11.6195L20.1197 11.6131L19.3768 10.7941L18.5832 11.6131H12.0308V10.9592L11.7514 11.6131H10.1197L9.84031 10.9719V11.6131H6.69111L6.33555 10.7687H5.5292L5.17365 11.6131H2.31015L4.69745 6.32423H7.13555L7.45301 6.94645V6.32423H10.3102L10.9387 7.68931L11.5482 6.32423H18.6721L19.3959 7.13058L20.1705 6.32423H23.4848L21.0848 8.98455L23.4848 11.6195Z" fill="black"/>
</g>
<defs>
<clipPath id="clip0_1_1101">
<rect width="24.9079" height="18" fill="white" transform="translate(0.53244)"/>
</clipPath>
</defs>
</svg>
