<svg width="34" height="24" viewBox="0 0 34 24" fill="none" xmlns="http://www.w3.org/2000/svg">
<g clip-path="url(#clip0_37_221)">
<path d="M27.393 9.43034L25.8099 11.0896L24.2776 9.43034H19.266V14.4843H24.2015L25.793 12.8081L27.3253 14.4843H28.9253L26.5972 11.97L28.9253 9.43034H27.393ZM23.5665 13.443H20.502V12.4356H23.2364V11.4028H20.502V10.4801H23.6343L24.9972 11.9531L23.5665 13.443ZM14.6015 12.8589L12.9676 9.43034H10.9274V14.2134L8.81098 9.43034H6.94854L4.71362 14.4843H6.08505L6.56759 13.3499H9.16653L9.64907 14.4843H12.1888V10.5224L14.0004 14.4843H15.1009L16.8956 10.5224L16.9041 14.4843H18.1401V9.42188H16.1168L14.6015 12.8589ZM7.0078 12.3086L7.86283 10.2854L8.71786 12.3086H7.0078Z" fill="#010202"/>
<path d="M31.2698 0.364502H3.03703C1.92804 0.364502 1.02222 1.27032 1.02222 2.38778V21.5455C1.02222 22.6544 1.92804 23.5603 3.03703 23.5603H31.2698C32.3788 23.5603 33.2847 22.6544 33.2847 21.5455V2.38778C33.2847 1.27032 32.3788 0.364502 31.2698 0.364502ZM31.2698 15.4925L26.7831 15.4841L25.7926 14.392L24.7344 15.4841H15.9979V14.6121L15.6254 15.4841H13.4497L13.0772 14.6291V15.4841H8.8783L8.40423 14.3582H7.3291L6.85502 15.4841H3.03703L6.2201 8.43223H9.4709L9.89418 9.26186V8.43223H13.7037L14.5418 10.2523L15.3545 8.43223H24.8529L25.818 9.50736L26.8508 8.43223H31.2698L28.0698 11.9793L31.2698 15.4925Z" fill="black"/>
</g>
<defs>
<clipPath id="clip0_37_221">
<rect width="33.2106" height="24" fill="white" transform="translate(0.666748)"/>
</clipPath>
</defs>
</svg>
