<svg width="35" height="16" viewBox="0 0 35 16" fill="none" xmlns="http://www.w3.org/2000/svg">
<path d="M9.43801 4.67236C7.71738 5.89776 7.74912 8.29776 9.76182 9.38347C9.40627 10.4057 8.87293 11.3263 8.07293 12.0882C7.60309 12.52 7.02531 12.6089 6.44754 12.3422C5.57769 11.9295 4.73325 11.9422 3.87611 12.3549C3.31103 12.6216 2.7396 12.5581 2.30785 12.1009C0.638012 10.3549 -0.22548 8.31045 0.320552 5.87236C0.599917 4.62791 1.43166 3.80252 2.73325 3.61839C3.165 3.54855 3.67928 3.64379 4.09198 3.80887C4.7396 4.07553 5.31738 4.06284 5.95865 3.79617C7.27928 3.26284 8.50468 3.54855 9.31738 4.50728C9.34912 4.54537 9.38087 4.58982 9.43801 4.67236ZM13.3872 8.64696V12.3612H11.7174V1.52315C11.7936 1.51045 11.8825 1.49141 11.965 1.49141C13.2983 1.49141 14.6317 1.47871 15.9586 1.5041C17.9586 1.53585 19.3745 3.04061 19.3618 5.08506C19.3491 7.09776 17.9142 8.60887 15.9713 8.65331C15.1206 8.67236 14.2761 8.64696 13.3872 8.64696ZM13.4063 7.23744H15.1269C15.3809 7.23744 15.6412 7.23744 15.8952 7.19299C16.9872 7.01522 17.5967 6.27236 17.6158 5.1168C17.6412 3.97395 17.0952 3.17395 16.0031 3.01522C15.1586 2.89458 14.2888 2.98982 13.4126 2.98982C13.4063 4.3676 13.4063 5.77077 13.4063 7.23744ZM24.8729 7.66284C25.019 6.51998 24.7142 5.9295 23.9142 5.70728C22.9491 5.45331 22.2126 5.76442 21.7047 6.62791C21.6602 6.7041 21.5396 6.77395 21.4507 6.78664C21.0253 6.79934 20.6063 6.79934 20.1364 6.79934C20.1618 6.08823 20.4475 5.5549 20.9364 5.12315C22.1174 4.08823 24.4285 4.03109 25.6602 5.00252C26.1491 5.38982 26.492 5.90411 26.5047 6.51363C26.5364 8.43744 26.5301 10.3739 26.5301 12.2978C26.5301 12.3232 26.5047 12.3422 26.4856 12.3993H24.9872V11.0851C24.5428 11.7327 24.0666 12.1517 23.4317 12.3612C22.3079 12.7485 21.0634 12.4755 20.3396 11.6628C19.3745 10.5835 19.6856 8.89458 20.9618 8.22791C21.7936 7.79617 22.7206 7.80252 23.6094 7.73903C24.0348 7.69458 24.4475 7.68188 24.8729 7.66284ZM24.8793 8.77395C24.0475 8.85014 23.2348 8.88823 22.4221 9.02157C21.7682 9.13585 21.419 9.61204 21.4571 10.1771C21.5015 10.7422 21.9459 11.1549 22.5999 11.2247C23.8571 11.339 25.1586 10.5708 24.8793 8.77395ZM34.7967 4.43744C33.7174 7.44061 32.6825 10.3549 31.6412 13.2628C31.584 13.4216 31.5079 13.5739 31.4317 13.7327C30.765 15.0533 29.5777 15.612 28.0729 15.2882V14.0184C28.2761 14.0184 28.4983 14.0311 28.7206 14.0184C29.6094 13.9612 30.3079 12.9073 29.9967 12.0755C29.1206 9.63109 28.2317 7.18664 27.3491 4.73585C27.3237 4.66601 27.3047 4.60252 27.2602 4.45649C27.838 4.45649 28.384 4.44379 28.9174 4.48188C28.9936 4.48188 29.0952 4.7041 29.1396 4.85014C29.7174 6.69776 30.2825 8.55172 30.8602 10.3993C30.9047 10.5454 30.9618 10.6787 31.0507 10.9327C31.4634 9.59934 31.8507 8.37395 32.2317 7.16125C32.4793 6.3803 32.7333 5.59299 32.9555 4.81839C33.0317 4.56442 33.1333 4.43744 33.4253 4.46284C33.8444 4.45649 34.2888 4.43744 34.7967 4.43744ZM7.26023 0.691406C7.50785 2.01204 6.29516 3.44061 4.98087 3.37077C4.66976 2.23426 5.9142 0.780295 7.26023 0.691406Z" fill="#020203"/>
</svg>
