<svg width="47" height="24" viewBox="0 0 47 24" fill="none" xmlns="http://www.w3.org/2000/svg">
<g clip-path="url(#clip0_37_216)">
<path d="M12.5843 8.89778C10.2902 10.5316 10.3325 13.7316 13.0161 15.1793C12.542 16.5422 11.8309 17.7697 10.7642 18.7856C10.1378 19.3613 9.36741 19.4798 8.59704 19.1242C7.43725 18.574 6.31133 18.5909 5.16847 19.1412C4.41503 19.4967 3.65312 19.4121 3.07746 18.8025C0.851008 16.4745 -0.300315 13.7486 0.427728 10.4978C0.800215 8.83852 1.90921 7.73799 3.64466 7.49249C4.22032 7.39937 4.90603 7.52635 5.4563 7.74646C6.31979 8.10201 7.09016 8.08508 7.94519 7.72953C9.70603 7.01842 11.3399 7.39937 12.4235 8.67767C12.4658 8.72847 12.5082 8.78773 12.5843 8.89778ZM17.85 14.1973V19.1496H15.6235V4.69884C15.7251 4.68191 15.8436 4.65651 15.9537 4.65651C17.7314 4.65651 19.5092 4.63958 21.2785 4.67344C23.9452 4.71577 25.833 6.72212 25.8161 9.44804C25.7992 12.1316 23.8859 14.1465 21.2955 14.2057C20.1611 14.2311 19.0351 14.1973 17.85 14.1973ZM17.8753 12.3179H20.1695C20.5082 12.3179 20.8552 12.3179 21.1939 12.2586C22.65 12.0216 23.4627 11.0311 23.488 9.49037C23.5219 7.96656 22.7939 6.8999 21.3378 6.68826C20.2119 6.52741 19.0521 6.65439 17.8838 6.65439C17.8753 8.49143 17.8753 10.3623 17.8753 12.3179ZM33.1642 12.8851C33.3589 11.3613 32.9526 10.574 31.8859 10.2777C30.5992 9.93905 29.6171 10.3539 28.9399 11.5052C28.8806 11.6068 28.7198 11.6999 28.6013 11.7168C28.0341 11.7338 27.4753 11.7338 26.8489 11.7338C26.8828 10.7856 27.2637 10.0745 27.9156 9.49884C29.4902 8.11894 32.5716 8.04275 34.214 9.33799C34.8658 9.85439 35.323 10.5401 35.3399 11.3528C35.3822 13.9179 35.3738 16.4999 35.3738 19.065C35.3738 19.0988 35.3399 19.1242 35.3145 19.2004H33.3166V17.448C32.724 18.3115 32.0891 18.8703 31.2425 19.1496C29.7441 19.666 28.0849 19.302 27.1198 18.2184C25.833 16.7793 26.2478 14.5274 27.9494 13.6385C29.0584 13.0629 30.2944 13.0713 31.4796 12.9867C32.0468 12.9274 32.597 12.9105 33.1642 12.8851ZM33.1727 14.3666C32.0637 14.4682 30.9801 14.5189 29.8965 14.6967C29.0246 14.8491 28.5589 15.484 28.6097 16.2375C28.669 16.9909 29.2616 17.5412 30.1336 17.6343C31.8097 17.7867 33.5452 16.7623 33.1727 14.3666ZM46.396 8.58455C44.9568 12.5888 43.5769 16.4745 42.1886 20.3517C42.1124 20.5634 42.0108 20.7666 41.9092 20.9782C41.0203 22.739 39.4373 23.484 37.4309 23.0523V21.3592C37.7018 21.3592 37.9981 21.3761 38.2944 21.3592C39.4796 21.283 40.4108 19.8777 39.996 18.7687C38.8277 15.5094 37.6425 12.2502 36.4658 8.98244C36.432 8.88931 36.4066 8.80466 36.3473 8.60995C37.1177 8.60995 37.8457 8.59302 38.5568 8.64381C38.6584 8.64381 38.7939 8.94011 38.8531 9.13482C39.6235 11.5983 40.3769 14.0703 41.1473 16.5338C41.2066 16.7285 41.2828 16.9062 41.4013 17.2449C41.9515 15.4671 42.4679 13.8332 42.9759 12.2163C43.306 11.175 43.6447 10.1253 43.941 9.09249C44.0425 8.75386 44.178 8.58455 44.5674 8.61842C45.1261 8.60995 45.7187 8.58455 46.396 8.58455ZM9.68064 3.58984C10.0108 5.35069 8.39387 7.25545 6.64148 7.16233C6.22667 5.64699 7.88593 3.70836 9.68064 3.58984Z" fill="#020203"/>
</g>
<defs>
<clipPath id="clip0_37_216">
<rect width="46.6667" height="24" fill="white"/>
</clipPath>
</defs>
</svg>
