<svg width="38" height="15" viewBox="0 0 38 15" fill="none" xmlns="http://www.w3.org/2000/svg">
<path d="M37.8785 3.61598C37.4086 4.6001 36.9197 5.56518 36.4689 6.54931C35.4658 8.74613 34.4816 10.9366 33.4975 13.1334C32.9451 14.3525 32.9451 14.3525 31.4467 14.2636C31.8785 13.3493 32.2531 12.4223 32.7356 11.5715C33.1864 10.7842 33.1547 10.1366 32.7483 9.34931C31.8912 7.64137 31.142 5.86359 30.342 4.11121C30.2404 3.90169 30.1705 3.67947 30.0562 3.44455C30.1642 3.40645 30.2277 3.36201 30.2975 3.36201C31.6181 3.30486 31.6054 3.30486 32.1388 4.53026C32.7356 5.92074 33.3324 7.29852 33.9801 8.79693C34.6213 7.26042 35.288 5.86359 35.7959 4.40963C36.0943 3.55248 36.5388 3.17153 37.4404 3.34931C37.5864 3.36836 37.7261 3.34931 37.8848 3.33661C37.8785 3.41915 37.8785 3.51439 37.8785 3.61598ZM10.8499 1.88264C10.2531 2.47947 9.69434 3.0509 9.14196 3.61598C6.32291 2.2128 4.0372 2.80328 3.09751 5.11439C2.28481 7.15883 3.38323 9.43185 5.50386 10.0731C7.51656 10.689 9.5737 9.68582 9.961 7.8255H6.62132V5.4128H12.5959C13.2943 8.31439 11.8086 11.235 9.11021 12.289C6.05624 13.5017 2.55148 12.3017 0.951481 9.49534C-0.578678 6.80328 0.145132 3.4509 2.67847 1.51439C5.09751 -0.314183 8.70386 -0.187199 10.8499 1.88264ZM17.434 6.70169V11.1652H15.9229V0.269944C17.542 0.269944 19.1674 0.162007 20.7674 0.308039C22.5197 0.46042 23.7642 1.95248 23.7578 3.55883C23.7451 5.12074 22.4943 6.49217 20.742 6.67629C19.6689 6.79058 18.5896 6.70169 17.434 6.70169ZM17.4848 1.62867V5.38105C18.3864 5.38105 19.2499 5.39375 20.0943 5.38105C21.1864 5.36201 22.0562 4.6128 22.1261 3.64772C22.1896 2.64455 21.4404 1.74296 20.3102 1.65407C19.3896 1.57788 18.4689 1.62867 17.4848 1.62867ZM28.7356 6.33979C28.7547 5.67312 28.3801 5.09534 27.6753 4.78423C26.6531 4.33979 25.8213 4.73978 25.1166 5.55248C24.7293 5.31121 24.3737 5.06359 24.0118 4.84772C24.7102 3.69217 26.0562 3.13979 27.4721 3.38105C28.9261 3.63502 29.8785 4.42867 29.9864 5.8382C30.1197 7.50169 30.0245 9.17788 30.0245 10.8985H28.7864C28.7674 10.6445 28.7483 10.3906 28.7229 10.0477C28.5134 10.2382 28.3674 10.3779 28.2277 10.5176C27.3896 11.3049 26.1388 11.4318 25.0848 10.8731C24.0753 10.3334 23.5737 9.31121 23.7769 8.17471C23.942 7.19058 24.8181 6.38423 26.0181 6.26994C26.8816 6.18105 27.7769 6.30169 28.7356 6.33979ZM26.7927 9.92074C27.4531 9.88264 28.1007 9.46994 28.5134 8.70169C28.9134 7.93979 28.7547 7.56518 27.8975 7.4382C27.3388 7.34931 26.7166 7.34931 26.1642 7.47629C25.4467 7.64137 25.0721 8.26359 25.1737 8.88582C25.2626 9.48899 25.834 9.90804 26.7927 9.92074Z" fill="#020203"/>
</svg>
