<svg width="54" height="24" viewBox="0 0 54 24" fill="none" xmlns="http://www.w3.org/2000/svg">
<path d="M52.1276 8.8213C51.5011 10.1335 50.8492 11.4202 50.2482 12.7324C48.9106 15.6615 47.5985 18.5821 46.2863 21.5112C45.5498 23.1366 45.5498 23.1366 43.5519 23.0181C44.1275 21.7991 44.627 20.5631 45.2704 19.4287C45.8715 18.379 45.8291 17.5155 45.2873 16.4657C44.1445 14.1885 43.1455 11.8181 42.0789 9.48162C41.9434 9.20225 41.8503 8.90596 41.6979 8.59273C41.8418 8.54194 41.9265 8.48268 42.0196 8.48268C43.7805 8.40649 43.7635 8.40649 44.4746 10.0403C45.2704 11.8943 46.0662 13.7314 46.9297 15.7292C47.7847 13.6806 48.6736 11.8181 49.3508 9.8795C49.7487 8.73664 50.3413 8.22871 51.5434 8.46575C51.7381 8.49114 51.9244 8.46575 52.136 8.44881C52.1276 8.55887 52.1276 8.68585 52.1276 8.8213ZM16.0895 6.51019C15.2937 7.30596 14.5487 8.06786 13.8122 8.8213C10.0535 6.9504 7.00586 7.7377 5.75295 10.8192C4.66935 13.5451 6.1339 16.5758 8.96142 17.4308C11.645 18.252 14.3879 16.9144 14.9043 14.434H10.4514V11.2171H18.4175C19.3487 15.0859 17.3678 18.98 13.7699 20.3853C9.69793 22.0023 5.02491 20.4023 2.89158 16.6605C0.851365 13.071 1.81644 8.60119 5.19422 6.01918C8.41962 3.58109 13.2281 3.7504 16.0895 6.51019ZM24.8683 12.9356V18.8869H22.8535V4.35993C25.0122 4.35993 27.1794 4.21601 29.3127 4.41072C31.6492 4.61389 33.3085 6.60331 33.3 8.74511C33.2831 10.8277 31.6154 12.6562 29.2789 12.9017C27.8482 13.0541 26.409 12.9356 24.8683 12.9356ZM24.936 6.17157V11.1747C26.1381 11.1747 27.2895 11.1917 28.4154 11.1747C29.8715 11.1493 31.0313 10.1504 31.1244 8.86363C31.209 7.52606 30.2101 6.32395 28.7032 6.20543C27.4757 6.10384 26.2482 6.17157 24.936 6.17157ZM39.9371 12.453C39.9625 11.5642 39.463 10.7938 38.5233 10.379C37.1604 9.78638 36.0514 10.3197 35.1117 11.4033C34.5953 11.0816 34.1212 10.7515 33.6387 10.4636C34.5699 8.92289 36.3646 8.18638 38.2524 8.50807C40.191 8.8467 41.4609 9.9049 41.6048 11.7843C41.7826 14.0023 41.6556 16.2372 41.6556 18.5314H40.0048C39.9794 18.1927 39.954 17.8541 39.9201 17.397C39.6408 17.6509 39.4461 17.8372 39.2598 18.0234C38.1424 19.0732 36.4746 19.2425 35.0693 18.4975C33.7233 17.7779 33.0545 16.415 33.3254 14.8996C33.5455 13.5874 34.7138 12.5123 36.3138 12.3599C37.4651 12.2414 38.6588 12.4023 39.9371 12.453ZM37.3466 17.2277C38.227 17.1769 39.0905 16.6266 39.6408 15.6023C40.1741 14.5864 39.9625 14.0869 38.8196 13.9176C38.0746 13.7991 37.245 13.7991 36.5085 13.9684C35.5519 14.1885 35.0524 15.0181 35.1879 15.8478C35.3064 16.652 36.0683 17.2107 37.3466 17.2277Z" fill="#020203"/>
</svg>
