<svg width="73" height="24" viewBox="0 0 73 24" fill="none" xmlns="http://www.w3.org/2000/svg">
<path d="M63.2576 9.8214V9.1377C63.321 9.1377 63.3774 9.13065 63.4338 9.13065C64.3854 9.13065 65.3439 9.13065 66.2955 9.1236C66.4435 9.1236 66.4858 9.16589 66.4788 9.31391C66.4717 12.8099 66.4788 16.306 66.4788 19.795C66.4788 19.8514 66.4717 19.9007 66.4717 19.9712H63.2576V19.3016C61.721 20.2813 60.1069 20.5492 58.3871 20.0205C57.1959 19.654 56.2232 18.9562 55.4972 17.9412C53.9607 15.8055 54.0241 12.9932 55.6594 10.9633C56.5757 9.81435 57.7739 9.1236 59.2259 8.89805C60.6708 8.67955 62.003 8.99673 63.2576 9.8214ZM60.2127 11.7668C60.0435 11.795 59.7545 11.8232 59.4796 11.9007C57.5625 12.4434 56.8012 14.6707 57.9995 16.2214C58.958 17.4619 60.8259 17.7086 62.1017 16.7641C63.2787 15.8901 63.5959 14.3254 62.8135 13.113C62.2356 12.2179 61.3827 11.802 60.2127 11.7668ZM32.5475 19.9782H29.3334V19.2945C27.9589 20.1826 26.4928 20.4928 24.921 20.1474C23.3422 19.795 22.1298 18.9069 21.2911 17.5324C19.973 15.3685 20.2691 12.5421 21.9536 10.6813C23.5536 8.9192 26.6127 8.03109 29.3122 9.80026V9.1377C29.3827 9.1377 29.432 9.13065 29.4884 9.13065C30.447 9.13065 31.4056 9.13065 32.3642 9.1236C32.5122 9.1236 32.5475 9.17294 32.5475 9.31391C32.5404 12.8099 32.5475 16.2989 32.5475 19.795C32.5545 19.8514 32.5545 19.9077 32.5475 19.9782ZM26.3166 11.7668C26.1686 11.7879 25.9219 11.8091 25.6893 11.8584C23.6805 12.3236 22.8417 14.6425 24.0964 16.2355C25.1043 17.5113 27.0638 17.7016 28.3184 16.6443C29.418 15.7139 29.6435 14.1633 28.8259 13.0144C28.2409 12.1897 27.4162 11.802 26.3166 11.7668ZM45.418 19.9782H42.1827V9.1377C42.2391 9.1377 42.2884 9.13065 42.3448 9.13065H45.2065C45.3404 9.13065 45.3898 9.15885 45.3898 9.30686C45.3827 9.63109 45.3898 9.96237 45.3898 10.3289C45.4532 10.2584 45.4955 10.2091 45.5307 10.1668C46.1369 9.44783 46.9263 9.05312 47.8497 8.9192C48.9563 8.75708 50.0347 8.86986 51.0356 9.39849C52.3607 10.0963 53.1149 11.1888 53.2558 12.6901C53.2699 12.8734 53.284 13.0566 53.284 13.2399V19.9923H50.0488V19.7879C50.0488 17.8778 50.0558 15.9747 50.0417 14.0646C50.0417 13.5218 49.9078 13.0073 49.5554 12.5773C49.0409 11.95 48.336 11.8091 47.5748 11.8796C47.2999 11.9077 47.0109 11.9712 46.7572 12.0769C45.9748 12.4082 45.573 13.0355 45.4673 13.8531C45.4391 14.0787 45.432 14.3042 45.432 14.5298V19.7879C45.418 19.8302 45.418 19.8936 45.418 19.9782ZM10.0206 4.30951H13.4884C13.4391 7.7562 12.2479 10.7236 9.84438 13.2117C11.4796 15.4602 13.1149 17.7086 14.7642 19.9782C14.6796 19.9853 14.6232 19.9853 14.5739 19.9853H10.514C10.4012 19.9853 10.3307 19.9571 10.2673 19.8655C8.54042 17.4831 6.8065 15.1007 5.07962 12.7254C5.05848 12.6972 5.03733 12.6619 5.00914 12.6126C5.24879 12.4293 5.48139 12.2531 5.72103 12.0699C6.33425 11.6117 6.94747 11.1536 7.4761 10.5967C8.70958 9.29982 9.50606 7.7703 9.82324 6.00819C9.91487 5.45136 9.95011 4.88748 10.0206 4.30951ZM1.00562 4.30246H4.56509V19.9712H1.00562V4.30246ZM19.1695 4.30246V19.7668C19.1695 19.9853 19.1695 19.9853 18.958 19.9853H15.8003C15.7933 19.9148 15.7862 19.8584 15.7862 19.795V4.48572C15.7862 4.34475 15.8215 4.29541 15.9695 4.29541C16.9774 4.30246 17.9924 4.30246 19.0003 4.30246H19.1695ZM34.2321 9.1377H37.5237V10.4558C37.8197 10.2232 38.0946 9.96237 38.4118 9.75797C39.0532 9.34211 39.7792 9.16589 40.5334 9.13065C40.625 9.1236 40.6814 9.1377 40.6814 9.25048C40.6814 10.2443 40.6814 11.2381 40.6743 12.232C40.6743 12.2461 40.6673 12.2602 40.6673 12.2461C40.2726 12.3307 39.892 12.3941 39.5254 12.4998C39.0602 12.6408 38.6444 12.8875 38.292 13.2258C37.7845 13.7051 37.5237 14.2901 37.5237 14.9879V19.9712H34.225C34.2321 16.3624 34.2321 12.7606 34.2321 9.1377ZM67.8532 18.1597C67.8532 17.0461 68.7765 16.1157 69.8832 16.1157C70.9898 16.1157 71.9061 17.039 71.9131 18.1597C71.9202 19.2804 70.9827 20.2179 69.8761 20.2108C68.7695 20.2038 67.8532 19.2734 67.8532 18.1597Z" fill="black"/>
</svg>
