<svg width="55" height="12" viewBox="0 0 55 12" fill="none" xmlns="http://www.w3.org/2000/svg">
<path d="M47.6599 4.36715V3.85437C47.7074 3.85437 47.7497 3.84909 47.792 3.84909C48.5057 3.84909 49.2246 3.84909 49.9383 3.8438C50.0493 3.8438 50.081 3.87552 50.0757 3.98653C50.0704 6.60856 50.0757 9.23059 50.0757 11.8473C50.0757 11.8896 50.0704 11.9266 50.0704 11.9795H47.6599V11.4773C46.5074 12.2121 45.2969 12.413 44.007 12.0165C43.1136 11.7416 42.3841 11.2183 41.8396 10.457C40.6872 8.85526 40.7348 6.746 41.9612 5.22354C42.6484 4.36186 43.5471 3.8438 44.6361 3.67464C45.7198 3.51076 46.7189 3.74865 47.6599 4.36715ZM45.3762 5.82618C45.2493 5.84733 45.0326 5.86847 44.8264 5.92662C43.3885 6.33367 42.8176 8.00415 43.7163 9.16715C44.4352 10.0975 45.8361 10.2826 46.7929 9.5742C47.6757 8.91869 47.9136 7.74512 47.3268 6.83587C46.8933 6.16451 46.2537 5.85261 45.3762 5.82618ZM24.6273 11.9848H22.2167V11.472C21.1859 12.1381 20.0863 12.3707 18.9074 12.1116C17.7233 11.8473 16.8141 11.1812 16.185 10.1504C15.1964 8.5275 15.4185 6.40768 16.6819 5.01208C17.8819 3.6905 20.1762 3.02442 22.2008 4.35129V3.85437C22.2537 3.85437 22.2907 3.84909 22.333 3.84909C23.0519 3.84909 23.7709 3.84909 24.4898 3.8438C24.6008 3.8438 24.6273 3.88081 24.6273 3.98653C24.622 6.60856 24.6273 9.2253 24.6273 11.8473C24.6326 11.8896 24.6326 11.9319 24.6273 11.9848ZM19.9541 5.82618C19.8431 5.84204 19.6581 5.8579 19.4837 5.8949C17.977 6.2438 17.348 7.98301 18.2889 9.17772C19.0449 10.1346 20.5145 10.2773 21.4555 9.48433C22.2801 8.78653 22.4493 7.62354 21.8361 6.76186C21.3973 6.14336 20.7788 5.85261 19.9541 5.82618ZM34.2801 11.9848H31.8537V3.85437C31.896 3.85437 31.933 3.84909 31.9753 3.84909H34.1215C34.222 3.84909 34.259 3.87023 34.259 3.98125C34.2537 4.22442 34.259 4.47288 34.259 4.74777C34.3066 4.6949 34.3383 4.6579 34.3647 4.62618C34.8193 4.08697 35.4114 3.79094 36.1039 3.6905C36.9339 3.56891 37.7427 3.65349 38.4933 4.04997C39.4872 4.57332 40.0528 5.3927 40.1585 6.51869C40.1691 6.65614 40.1797 6.79358 40.1797 6.93103V11.9953H37.7533V11.842C37.7533 10.4094 37.7585 8.98213 37.748 7.54953C37.748 7.14248 37.6475 6.75658 37.3832 6.43411C36.9973 5.96363 36.4687 5.8579 35.8978 5.91076C35.6916 5.93191 35.4748 5.97948 35.2845 6.05878C34.6978 6.30724 34.3964 6.77772 34.3171 7.39094C34.296 7.5601 34.2907 7.72926 34.2907 7.89843V11.842C34.2801 11.8738 34.2801 11.9213 34.2801 11.9848ZM7.73211 0.233229H10.333C10.296 2.81825 9.4026 5.0438 7.59995 6.90988C8.82638 8.59622 10.0528 10.2826 11.2898 11.9848C11.2264 11.9901 11.1841 11.9901 11.1471 11.9901H8.10216C8.01757 11.9901 7.96471 11.9689 7.91713 11.9002C6.62198 10.1134 5.32154 8.32662 4.02639 6.54512C4.01053 6.52398 3.99467 6.49755 3.97352 6.46054C4.15326 6.3231 4.32771 6.19094 4.50744 6.05349C4.96735 5.70988 5.42727 5.36627 5.82374 4.94865C6.74885 3.97596 7.34621 2.82882 7.58409 1.50724C7.65282 1.08962 7.67925 0.666709 7.73211 0.233229ZM0.970879 0.227943H3.64048V11.9795H0.970879V0.227943ZM14.5938 0.227943V11.8262C14.5938 11.9901 14.5938 11.9901 14.4352 11.9901H12.0669C12.0616 11.9372 12.0563 11.8949 12.0563 11.8473V0.365388C12.0563 0.259661 12.0828 0.222656 12.1938 0.222656C12.9497 0.227943 13.711 0.227943 14.4669 0.227943H14.5938ZM25.8907 3.85437H28.3594V4.84292C28.5815 4.66847 28.7876 4.47288 29.0255 4.31957C29.5066 4.00768 30.0511 3.87552 30.6167 3.84909C30.6854 3.8438 30.7277 3.85437 30.7277 3.93896C30.7277 4.68433 30.7277 5.4297 30.7224 6.17508C30.7224 6.18565 30.7171 6.19622 30.7171 6.18565C30.4211 6.24909 30.1356 6.29666 29.8607 6.37596C29.5118 6.48169 29.2 6.66671 28.9356 6.92045C28.555 7.27992 28.3594 7.71869 28.3594 8.24204V11.9795H25.8854C25.8907 9.27288 25.8907 6.57156 25.8907 3.85437ZM51.1066 10.6209C51.1066 9.78565 51.7991 9.08785 52.629 9.08785C53.459 9.08785 54.1462 9.78036 54.1515 10.6209C54.1568 11.4614 53.4537 12.1645 52.6237 12.1592C51.7938 12.1539 51.1066 11.4561 51.1066 10.6209Z" fill="black"/>
</svg>
