<svg width="23" height="18" viewBox="0 0 23 18" fill="none" xmlns="http://www.w3.org/2000/svg">
<path d="M22.504 7.65008C22.4468 8.00564 22.4087 8.36119 22.3325 8.7104C21.2849 13.3517 15.996 15.5612 11.8944 13.085C11.8373 13.0533 11.7928 13.0088 11.723 12.9644C13.4754 11.4469 14.4405 9.55484 14.4405 7.23738C14.4405 4.92627 13.4817 3.04056 11.7167 1.5104C11.7928 1.4596 11.85 1.41516 11.9135 1.37706C12.5167 1.01516 13.1706 0.735795 13.85 0.570716C14.5357 0.399287 15.2341 0.329446 15.9389 0.367541C16.65 0.405636 17.3547 0.558017 18.0214 0.811985C18.5928 1.02786 19.1325 1.31357 19.6278 1.66913C20.0849 1.99929 20.504 2.38659 20.8722 2.81833C21.2405 3.25643 21.5516 3.73897 21.7992 4.24691C22.0532 4.77389 22.2436 5.33262 22.3579 5.90405C22.3897 6.05008 22.4151 6.19611 22.4341 6.34214C22.4595 6.50087 22.4786 6.6596 22.504 6.81833V7.65008ZM7.51983 0.386589C8.28173 0.443732 9.03729 0.627858 9.74205 0.93262C9.83729 0.977065 9.93252 1.01516 10.0278 1.06595C10.104 1.10405 10.7897 1.5231 10.8024 1.5104C9.04364 3.03421 8.07856 4.91992 8.07856 7.23738C8.07856 9.54849 9.03094 11.4406 10.796 12.9644C10.6817 13.0406 10.5801 13.1104 10.4722 13.1739C6.70713 15.339 1.93252 13.6183 0.427762 9.54849C0.0531585 8.53897 -0.0674765 7.44691 0.0722061 6.38024C0.211889 5.33897 0.592841 4.32945 1.17062 3.45326C1.88173 2.38024 2.89125 1.53579 4.05951 0.996112C4.61824 0.742144 5.20237 0.558017 5.80554 0.45643C6.37062 0.367541 6.9484 0.342144 7.51983 0.386589ZM4.0976 17.5802H3.70395V16.685C3.70395 16.2723 3.57062 16.0882 3.27856 16.1009C2.99284 16.1072 2.85316 16.304 2.85316 16.6977V17.5866H2.44681C2.44681 17.2374 2.45316 16.8945 2.44681 16.5517C2.44046 16.285 2.33887 16.1517 2.1357 16.1136C1.84998 16.0564 1.61506 16.2469 1.60871 16.5517C1.60236 16.8882 1.60871 17.2247 1.60871 17.5802C1.50713 17.5866 1.42459 17.6056 1.35475 17.5866C1.2976 17.5675 1.21506 17.504 1.21506 17.4533C1.20236 16.9707 1.20871 16.4882 1.20871 16.0056V15.8152C1.49443 15.7326 1.56427 15.7517 1.64681 15.9104C2.07221 15.6247 2.31348 15.6437 2.75792 16.0056C2.94205 15.8025 3.17062 15.7009 3.45633 15.7199C3.79919 15.7453 4.0849 15.9802 4.10395 16.3231C4.1103 16.7294 4.0976 17.1358 4.0976 17.5802ZM20.8659 15.9421V15.0469H21.2405C21.2468 15.1294 21.2532 15.2056 21.2532 15.2818C21.2532 15.9612 21.2595 16.6406 21.2468 17.3199C21.2468 17.4025 21.2024 17.5421 21.1516 17.5612C21.0309 17.5993 20.8722 17.6247 20.8405 17.4215C20.3579 17.7263 19.8817 17.6691 19.5579 17.2818C19.2532 16.9136 19.2659 16.3929 19.5833 16.0374C19.9071 15.6691 20.3833 15.6247 20.8659 15.9421ZM20.3262 16.1644C20.0151 16.1644 19.7738 16.412 19.7801 16.7231C19.7865 17.0215 20.0341 17.2628 20.3262 17.2628C20.6309 17.2628 20.8786 17.0088 20.8722 16.6977C20.8722 16.3929 20.6309 16.1644 20.3262 16.1644ZM6.33252 17.5802C6.17379 17.5421 5.97062 17.6882 5.92617 17.4215C5.44998 17.7263 4.96744 17.6691 4.64363 17.2818C4.33252 16.9136 4.35157 16.3739 4.68173 16.0183C4.9357 15.7453 5.49443 15.5548 5.91348 15.9294C5.97062 15.6628 6.16744 15.7961 6.33252 15.7707V17.5802ZM5.40554 16.1644C5.10078 16.1707 4.85316 16.4247 4.85951 16.7294C4.86586 17.0215 5.12617 17.2691 5.41824 17.2628C5.723 17.2564 5.97062 16.9961 5.96427 16.6913C5.95792 16.3929 5.7103 16.158 5.40554 16.1644ZM17.1389 15.9231C17.2024 15.6628 17.3928 15.8088 17.5452 15.7644V17.5612C17.3865 17.5548 17.2087 17.6691 17.1389 17.4215C16.669 17.7199 16.1992 17.6691 15.8754 17.2945C15.5579 16.9263 15.5643 16.3993 15.8881 16.031C16.2055 15.6691 16.6817 15.6247 17.1389 15.9231ZM16.0849 16.7104C16.0849 17.0088 16.3325 17.2501 16.6309 17.2564C16.9293 17.2564 17.1897 16.9961 17.1897 16.6977C17.1833 16.3993 16.9357 16.158 16.6436 16.158C16.3262 16.158 16.0849 16.3993 16.0849 16.7104ZM12.1293 16.8183H10.8341C10.8151 17.0088 10.9167 17.1231 11.05 17.1993C11.3357 17.358 11.6024 17.2501 11.8817 17.0977C11.9389 17.1866 11.996 17.2691 12.0532 17.3517C11.8436 17.6564 11.1389 17.7009 10.8087 17.4914C10.4341 17.2564 10.2563 16.812 10.3897 16.3866C10.523 15.9548 10.9293 15.6882 11.3865 15.7263C11.8944 15.7707 12.2246 16.2469 12.1293 16.8183ZM11.7357 16.5072C11.6722 16.1834 11.4881 16.0501 11.2024 16.0818C10.9674 16.1072 10.8214 16.2723 10.8278 16.5072H11.7357ZM8.30078 15.9104C8.23729 16.0247 8.19284 16.1136 8.1484 16.1961C7.95157 16.158 7.76744 16.1072 7.58332 16.0818C7.50713 16.0691 7.41189 16.0818 7.3484 16.1199C7.29125 16.1517 7.22776 16.2342 7.22141 16.2977C7.21506 16.3421 7.30395 16.4183 7.3611 16.431C7.51348 16.4755 7.67856 16.4882 7.83729 16.5199C8.16745 16.5898 8.33252 16.7485 8.34522 17.0088C8.35792 17.2818 8.18014 17.5104 7.86903 17.5866C7.46903 17.6882 7.08808 17.6437 6.72617 17.3961C6.78967 17.2882 6.84681 17.1993 6.87221 17.1612C7.15792 17.2056 7.39284 17.2564 7.63411 17.2628C7.72935 17.2628 7.88808 17.1675 7.91348 17.085C7.95792 16.9199 7.78014 16.9072 7.66586 16.8818C7.50078 16.8437 7.32935 16.831 7.17062 16.7802C6.923 16.704 6.80237 16.539 6.78967 16.3231C6.78332 16.0945 6.9103 15.885 7.15157 15.8025C7.54522 15.6564 7.91983 15.7009 8.30078 15.9104ZM8.99284 16.1326C8.85316 16.1263 8.75157 16.1199 8.63729 16.1136V15.7771C8.73887 15.7707 8.84681 15.7644 8.98014 15.7517V15.2183H9.39284V15.758H10.0278C10.0341 15.8787 10.0405 15.9802 10.0532 16.1136H9.40554C9.40554 16.4374 9.39284 16.7358 9.41189 17.0342C9.41824 17.1993 9.53887 17.2755 9.70395 17.2564C9.80554 17.2437 9.90078 17.212 10.0151 17.1866L10.1293 17.4914C9.88173 17.6501 9.63411 17.6691 9.38014 17.6056C9.16427 17.5485 9.04364 17.3961 9.02459 17.1802C8.99919 16.9263 9.00554 16.6723 8.99919 16.4183C8.99284 16.3294 8.99284 16.2406 8.99284 16.1326ZM15.2913 17.1167C15.342 17.2056 15.3992 17.2945 15.4563 17.3834C15.1262 17.7136 14.4913 17.7072 14.1484 17.3898C13.7738 17.0406 13.7357 16.431 14.0595 16.0374C14.3897 15.6437 15.0182 15.5929 15.4627 15.9358C15.4055 16.031 15.3547 16.1263 15.2976 16.2215C14.796 16.0437 14.5865 16.0628 14.3897 16.3104C14.2309 16.5136 14.2246 16.7929 14.377 17.0025C14.5547 17.2628 14.777 17.2945 15.2913 17.1167ZM18.4595 17.5739H18.0913V15.7771C18.2373 15.8025 18.4214 15.6564 18.504 15.9294C18.7008 15.7199 18.942 15.6818 19.2278 15.758C19.1897 15.885 19.1579 15.9929 19.1325 16.0945C19.1071 16.1072 19.0944 16.1199 19.0817 16.1199C18.5992 16.0755 18.4849 16.1771 18.4849 16.6723V17.485C18.4786 17.504 18.4722 17.5231 18.4595 17.5739ZM12.5738 17.5675V15.7453C12.7325 15.7771 12.8659 15.8025 12.9992 15.8342C13.304 15.7009 13.3992 15.6818 13.704 15.7707C13.6722 15.885 13.6341 15.9993 13.596 16.1199C13.5325 16.1136 13.4817 16.1072 13.4373 16.1009C13.1579 16.0628 12.9865 16.2025 12.9738 16.4818C12.9611 16.7358 12.9674 16.9898 12.9674 17.2501C12.9611 17.612 12.9611 17.612 12.5738 17.5675Z" fill="black"/>
</svg>
