<svg width="32" height="24" viewBox="0 0 32 24" fill="none" xmlns="http://www.w3.org/2000/svg">
<g clip-path="url(#clip0_37_229)">
<path d="M30.6284 10.2016C30.5522 10.6756 30.5014 11.1497 30.3998 11.6153C29.003 17.8037 21.9512 20.7497 16.4824 17.4481C16.4062 17.4058 16.3469 17.3465 16.2538 17.2873C18.5903 15.264 19.8771 12.7413 19.8771 9.65131C19.8771 6.56983 18.5988 4.05554 16.2453 2.01533C16.3469 1.9476 16.4231 1.88835 16.5078 1.83755C17.312 1.35501 18.184 0.982525 19.0898 0.762419C20.0041 0.533848 20.9353 0.440726 21.875 0.49152C22.8231 0.542313 23.7628 0.745488 24.6517 1.08411C25.4136 1.37194 26.1332 1.7529 26.7935 2.22697C27.403 2.66718 27.9617 3.18358 28.4527 3.75924C28.9437 4.34337 29.3586 4.98676 29.6887 5.66401C30.0273 6.36665 30.2813 7.11163 30.4337 7.87353C30.476 8.06824 30.5099 8.26295 30.5353 8.45766C30.5691 8.6693 30.5945 8.88094 30.6284 9.09258V10.2016ZM10.6496 0.516916C11.6654 0.593107 12.6728 0.83861 13.6125 1.24496C13.7395 1.30422 13.8665 1.35501 13.9935 1.42274C14.0951 1.47353 15.0094 2.03226 15.0263 2.01533C12.6813 4.04708 11.3945 6.56136 11.3945 9.65131C11.3945 12.7328 12.6644 15.2555 15.0178 17.2873C14.8654 17.3889 14.73 17.482 14.5861 17.5667C9.56597 20.4534 3.19983 18.1592 1.19348 12.7328C0.694006 11.3868 0.53316 9.93067 0.719403 8.50845C0.905646 7.12009 1.41358 5.77406 2.18395 4.60581C3.1321 3.17512 4.47813 2.04919 6.03581 1.32961C6.78078 0.99099 7.55962 0.745488 8.36385 0.610038C9.11729 0.49152 9.88766 0.457657 10.6496 0.516916ZM6.0866 23.4418H5.56173V22.2481C5.56173 21.6979 5.38395 21.4524 4.99454 21.4693C4.61358 21.4778 4.42734 21.7402 4.42734 22.2651V23.4503H3.88554C3.88554 22.9846 3.89401 22.5275 3.88554 22.0704C3.87708 21.7148 3.74163 21.537 3.47073 21.4862C3.08977 21.41 2.77655 21.664 2.76808 22.0704C2.75961 22.519 2.76808 22.9677 2.76808 23.4418C2.63263 23.4503 2.52258 23.4756 2.42946 23.4503C2.35327 23.4249 2.24321 23.3402 2.24321 23.2725C2.22628 22.6291 2.23475 21.9857 2.23475 21.3423V21.0883C2.6157 20.9783 2.70882 21.0037 2.81887 21.2153C3.38607 20.8344 3.70776 20.8598 4.30036 21.3423C4.54586 21.0714 4.85062 20.936 5.23157 20.9614C5.68872 20.9952 6.06967 21.3085 6.09506 21.7656C6.10353 22.3074 6.0866 22.8492 6.0866 23.4418ZM28.4443 21.2577V20.064H28.9437C28.9522 20.1741 28.9607 20.2756 28.9607 20.3772C28.9607 21.2831 28.9691 22.1889 28.9522 23.0947C28.9522 23.2047 28.8929 23.391 28.8252 23.4164C28.6644 23.4672 28.4527 23.501 28.4104 23.2301C27.767 23.6365 27.1321 23.5603 26.7004 23.0439C26.294 22.5529 26.3109 21.8587 26.7342 21.3846C27.166 20.8936 27.8009 20.8344 28.4443 21.2577ZM27.7247 21.554C27.3099 21.554 26.9882 21.8841 26.9967 22.2989C27.0051 22.6968 27.3353 23.0185 27.7247 23.0185C28.131 23.0185 28.4612 22.6799 28.4527 22.2651C28.4527 21.8587 28.131 21.554 27.7247 21.554ZM9.06649 23.4418C8.85485 23.391 8.58395 23.5857 8.52469 23.2301C7.88977 23.6365 7.24639 23.5603 6.81464 23.0439C6.39983 22.5529 6.42522 21.8333 6.86544 21.3592C7.20406 20.9952 7.94903 20.7413 8.50776 21.2407C8.58395 20.8852 8.84639 21.0629 9.06649 21.0291V23.4418ZM7.83051 21.554C7.42417 21.5624 7.09401 21.901 7.10247 22.3074C7.11094 22.6968 7.45803 23.027 7.84745 23.0185C8.25379 23.01 8.58395 22.6629 8.57549 22.2566C8.56702 21.8587 8.23686 21.5455 7.83051 21.554ZM23.475 21.2323C23.5596 20.8852 23.8136 21.0799 24.0168 21.0206V23.4164C23.8051 23.4079 23.5681 23.5603 23.475 23.2301C22.8485 23.628 22.222 23.5603 21.7903 23.0608C21.367 22.5698 21.3755 21.8672 21.8072 21.3762C22.2305 20.8936 22.8654 20.8344 23.475 21.2323ZM22.0697 22.282C22.0697 22.6799 22.3998 23.0016 22.7977 23.01C23.1956 23.01 23.5427 22.6629 23.5427 22.2651C23.5342 21.8672 23.2041 21.5455 22.8146 21.5455C22.3914 21.5455 22.0697 21.8672 22.0697 22.282ZM16.7956 22.4259H15.0686C15.0432 22.6799 15.1787 22.8323 15.3564 22.9338C15.7374 23.1455 16.0929 23.0016 16.4654 22.7984C16.5416 22.9169 16.6178 23.027 16.694 23.137C16.4146 23.5434 15.475 23.6026 15.0347 23.3233C14.5353 23.01 14.2982 22.4174 14.476 21.8503C14.6538 21.2746 15.1956 20.919 15.8051 20.9698C16.4824 21.0291 16.9226 21.664 16.7956 22.4259ZM16.2707 22.0111C16.1861 21.5794 15.9406 21.4016 15.5596 21.4439C15.2464 21.4778 15.0517 21.6979 15.0601 22.0111H16.2707ZM11.6908 21.2153C11.6062 21.3677 11.5469 21.4862 11.4877 21.5963C11.2252 21.5455 10.9797 21.4778 10.7342 21.4439C10.6326 21.427 10.5056 21.4439 10.421 21.4947C10.3448 21.537 10.2601 21.6471 10.2517 21.7317C10.2432 21.791 10.3617 21.8926 10.4379 21.9095C10.6411 21.9688 10.8612 21.9857 11.0728 22.028C11.5131 22.1212 11.7332 22.3328 11.7501 22.6799C11.767 23.0439 11.53 23.3487 11.1152 23.4503C10.5818 23.5857 10.0739 23.5264 9.59136 23.1963C9.67602 23.0524 9.75221 22.9338 9.78607 22.8831C10.167 22.9423 10.4803 23.01 10.8019 23.0185C10.9289 23.0185 11.1406 22.8915 11.1744 22.7815C11.2337 22.5614 10.9967 22.5444 10.8443 22.5106C10.6242 22.4598 10.3956 22.4428 10.184 22.3751C9.8538 22.2735 9.69295 22.0534 9.67602 21.7656C9.66755 21.4608 9.83686 21.1815 10.1586 21.0714C10.6834 20.8767 11.1829 20.936 11.6908 21.2153ZM12.6136 21.5116C12.4273 21.5032 12.2919 21.4947 12.1395 21.4862V21.0376C12.275 21.0291 12.4189 21.0206 12.5967 21.0037V20.2926H13.1469V21.0122H13.9935C14.0019 21.173 14.0104 21.3085 14.0273 21.4862H13.1638C13.1638 21.918 13.1469 22.3159 13.1723 22.7137C13.1808 22.9338 13.3416 23.0354 13.5617 23.01C13.6972 22.9931 13.8242 22.9508 13.9765 22.9169L14.1289 23.3233C13.7988 23.5349 13.4686 23.5603 13.13 23.4756C12.8422 23.3995 12.6813 23.1963 12.6559 22.9085C12.6221 22.5698 12.6305 22.2312 12.6221 21.8926C12.6136 21.7741 12.6136 21.6555 12.6136 21.5116ZM21.0115 22.8238C21.0792 22.9423 21.1554 23.0608 21.2316 23.1793C20.7914 23.6196 19.9448 23.6111 19.4877 23.1878C18.9882 22.7222 18.9374 21.9095 19.3691 21.3846C19.8094 20.8598 20.6474 20.792 21.24 21.2492C21.1638 21.3762 21.0961 21.5032 21.0199 21.6301C20.3512 21.3931 20.0718 21.4185 19.8094 21.7487C19.5977 22.0196 19.5892 22.392 19.7924 22.6714C20.0295 23.0185 20.3258 23.0608 21.0115 22.8238ZM25.2358 23.4333H24.7448V21.0376C24.9395 21.0714 25.185 20.8767 25.2951 21.2407C25.5575 20.9614 25.8792 20.9106 26.2601 21.0122C26.2094 21.1815 26.167 21.3254 26.1332 21.4608C26.0993 21.4778 26.0824 21.4947 26.0654 21.4947C25.422 21.4354 25.2697 21.5709 25.2697 22.2312V23.3148C25.2612 23.3402 25.2527 23.3656 25.2358 23.4333ZM17.3882 23.4249V20.9952C17.5998 21.0376 17.7776 21.0714 17.9554 21.1137C18.3617 20.936 18.4887 20.9106 18.8951 21.0291C18.8527 21.1815 18.8019 21.3338 18.7512 21.4947C18.6665 21.4862 18.5988 21.4778 18.5395 21.4693C18.167 21.4185 17.9385 21.6047 17.9215 21.9772C17.9046 22.3159 17.9131 22.6545 17.9131 23.0016C17.9046 23.4841 17.9046 23.4841 17.3882 23.4249Z" fill="black"/>
</g>
<defs>
<clipPath id="clip0_37_229">
<rect width="31.1111" height="24" fill="white" transform="translate(0.21167)"/>
</clipPath>
</defs>
</svg>
