<svg width="33" height="12" viewBox="0 0 33 12" fill="none" xmlns="http://www.w3.org/2000/svg">
<path d="M31.6369 0.492652C32.0686 4.14979 32.4877 7.76249 32.9131 11.3942H29.9607C29.8908 10.518 29.8146 9.66726 29.7321 8.76567C28.9448 8.76567 28.1702 8.75297 27.3956 8.77837C27.3194 8.77837 27.2178 8.9244 27.1797 9.02598C26.8559 9.7244 26.5321 10.4101 26.2273 11.1149C26.1321 11.3434 26.0115 11.4387 25.7575 11.4387C24.875 11.4196 23.9924 11.426 23.0464 11.426C23.1226 11.2419 23.1734 11.1022 23.2432 10.9752C24.8813 7.61011 26.5321 4.24503 28.1512 0.867255C28.2908 0.581541 28.4559 0.486303 28.7607 0.492652C29.694 0.511699 30.6337 0.492652 31.6369 0.492652ZM29.5734 6.42281C29.5035 5.61646 29.4337 4.85456 29.3702 4.099C29.3512 4.099 29.3321 4.0863 29.3004 4.0863C28.9448 4.86091 28.5956 5.62916 28.2337 6.42281H29.5734ZM2.05592 2.61329C2.79877 3.07678 3.49084 3.50853 4.17655 3.94027C4.1956 3.92122 4.2083 3.88948 4.22734 3.87043C2.83687 2.77202 1.45274 1.67995 0.0241699 0.537096C0.189249 0.518049 0.278138 0.499001 0.367027 0.499001C1.73846 0.499001 3.11623 0.5117 4.48766 0.486303C4.76068 0.486303 4.86227 0.575191 4.88131 0.848207C5.06544 3.00694 5.26227 5.15297 5.47179 7.41964C5.56703 7.23551 5.63052 7.12757 5.67496 7.01964C6.63369 4.9498 7.60512 2.8863 8.5702 0.816461C8.67814 0.581541 8.80512 0.473604 9.07814 0.479953C9.99242 0.499001 10.9004 0.492652 11.8845 0.492652C11.8146 0.657731 11.7639 0.778366 11.7194 0.886303C9.96068 4.28948 8.2083 7.6863 6.46227 11.0895C6.34163 11.3244 6.21465 11.4323 5.94163 11.426C5.14798 11.4069 4.35433 11.4133 3.55433 11.426C3.33846 11.426 3.24322 11.3561 3.21147 11.1403C2.83052 8.38472 2.44322 5.63551 2.06227 2.87995C2.05592 2.82281 2.05592 2.75297 2.05592 2.61329ZM24.0496 1.00694C23.7385 1.85773 23.4337 2.64503 23.1543 3.39424C22.5766 3.22916 22.0369 3.00059 21.4781 2.93075C21.0781 2.87995 20.6146 2.94979 20.221 3.09583C19.7385 3.2736 19.6686 3.75614 20.075 4.07995C20.5067 4.42281 20.9893 4.69583 21.4464 4.98154C22.2527 5.47043 22.9385 6.04821 23.2051 6.99424C23.6496 8.5244 22.9131 10.2387 21.4083 10.9561C19.5543 11.8514 17.6686 11.7815 15.8273 10.8482C15.5607 10.7085 15.5035 10.5625 15.6305 10.2768C15.9226 9.62916 16.1829 8.96249 16.4559 8.29583C16.8877 8.47995 17.2877 8.69583 17.7131 8.83551C18.3988 9.05138 19.0972 9.17837 19.8019 8.89265C20.4178 8.64503 20.5448 7.99741 20.0178 7.59741C19.5353 7.23551 18.9956 6.9498 18.4877 6.62599C17.7004 6.1244 17.0845 5.49583 16.9004 4.5371C16.6337 3.11487 17.2623 1.73075 18.6464 0.994239C20.4178 0.0545566 22.2146 0.149795 24.0496 1.00694ZM16.1321 0.50535C15.4337 4.15614 14.7607 7.76884 14.0686 11.3942H11.2242C11.3321 10.8165 11.421 10.2387 11.5289 9.66726C12.0877 6.74027 12.6464 3.81964 13.1988 0.886303C13.2559 0.594239 13.3575 0.486303 13.6623 0.492652C14.4623 0.511699 15.2686 0.50535 16.1321 0.50535Z" fill="#020203"/>
</svg>
