<svg width="49" height="24" viewBox="0 0 49 24" fill="none" xmlns="http://www.w3.org/2000/svg">
<path d="M44.1403 4.65557C44.7159 9.53176 45.2747 14.3487 45.8418 19.191H41.9053C41.8122 18.0228 41.7106 16.8884 41.6006 15.6863C40.5508 15.6863 39.518 15.6693 38.4852 15.7032C38.3836 15.7032 38.2482 15.8979 38.1974 16.0333C37.7657 16.9646 37.3339 17.8788 36.9276 18.8185C36.8006 19.1233 36.6397 19.2503 36.3011 19.2503C35.1244 19.2249 33.9477 19.2333 32.6863 19.2333C32.7879 18.9878 32.8556 18.8016 32.9487 18.6323C35.1329 14.1455 37.3339 9.65874 39.4926 5.15504C39.6789 4.77409 39.899 4.6471 40.3053 4.65557C41.5498 4.68096 42.8027 4.65557 44.1403 4.65557ZM41.3889 12.5624C41.2958 11.4873 41.2027 10.4714 41.118 9.46403C41.0926 9.46403 41.0672 9.4471 41.0249 9.4471C40.5508 10.4799 40.0852 11.5042 39.6027 12.5624H41.3889ZM4.69899 7.48308C5.68946 8.10107 6.61221 8.67673 7.5265 9.25239C7.55189 9.227 7.56883 9.18467 7.59422 9.15927C5.74025 7.69472 3.89475 6.23864 1.98999 4.71483C2.2101 4.68943 2.32861 4.66403 2.44713 4.66403C4.2757 4.66403 6.11274 4.68096 7.94131 4.6471C8.30533 4.6471 8.44078 4.76562 8.46618 5.12964C8.71168 8.00795 8.97412 10.8693 9.25348 13.8915C9.38047 13.646 9.46512 13.5021 9.52438 13.3582C10.8027 10.5984 12.0979 7.8471 13.3847 5.08731C13.5286 4.77409 13.6979 4.63017 14.0619 4.63864C15.281 4.66403 16.4916 4.65557 17.8037 4.65557C17.7106 4.87567 17.6429 5.03652 17.5836 5.18043C15.2387 9.718 12.9022 14.2471 10.5741 18.7847C10.4133 19.0979 10.244 19.2418 9.87994 19.2333C8.82174 19.2079 7.76354 19.2164 6.69687 19.2333C6.40904 19.2333 6.28205 19.1402 6.23973 18.8524C5.73179 15.1783 5.21539 11.5127 4.70745 7.83864C4.69899 7.76245 4.69899 7.66932 4.69899 7.48308ZM34.0239 5.34128C33.609 6.47567 33.2027 7.52541 32.8302 8.52435C32.0598 8.30424 31.3403 7.99948 30.5953 7.90636C30.062 7.83864 29.444 7.93176 28.9191 8.12647C28.2757 8.3635 28.1826 9.00689 28.7244 9.43864C29.3 9.89578 29.9434 10.2598 30.553 10.6408C31.6281 11.2926 32.5424 12.063 32.8979 13.3244C33.4905 15.3646 32.5085 17.6503 30.5022 18.6069C28.0302 19.8005 25.5159 19.7074 23.0609 18.463C22.7053 18.2767 22.6291 18.082 22.7985 17.7011C23.1879 16.8376 23.535 15.9487 23.899 15.0598C24.4746 15.3053 25.008 15.5931 25.5752 15.7794C26.4895 16.0672 27.4207 16.2365 28.3604 15.8556C29.1815 15.5254 29.3508 14.6619 28.6482 14.1286C28.0048 13.646 27.2852 13.2651 26.608 12.8333C25.5582 12.1646 24.7371 11.3265 24.4916 10.0482C24.136 8.15186 24.9741 6.30636 26.8196 5.32435C29.1815 4.07144 31.5773 4.19842 34.0239 5.34128ZM23.4672 4.6725C22.536 9.54022 21.6387 14.3572 20.7159 19.191H16.9233C17.0672 18.4206 17.1858 17.6503 17.3297 16.8884C18.0746 12.9857 18.8196 9.09155 19.5561 5.18043C19.6323 4.79102 19.7678 4.6471 20.1741 4.65557C21.2408 4.68096 22.3159 4.6725 23.4672 4.6725Z" fill="#020203"/>
</svg>
