<svg width="76" height="75" viewBox="0 0 76 75" fill="none" xmlns="http://www.w3.org/2000/svg">
<path fill-rule="evenodd" clip-rule="evenodd" d="M29.1512 50.1778C25.8352 47.4608 23.3742 43.6788 23.1432 39.3258C22.9002 34.7458 25.4062 32.4238 28.7612 29.5458C32.1692 26.6218 36.0312 23.2048 40.3142 24.5938C44.3062 25.8888 46.2942 30.0868 48.2572 33.9568C50.3332 38.0498 53.1732 42.4588 51.5122 46.6738C49.7972 51.0238 45.0002 52.8698 40.5262 53.5718C36.4582 54.2088 32.4292 52.8668 29.1502 50.1788L29.1512 50.1778Z" fill="#F8CABC"/>
<path fill-rule="evenodd" clip-rule="evenodd" d="M3.00087 38.75C3.00029 38.8332 3 38.9166 3 38.9999C3 58.3299 18.67 73.9999 38 73.9999C57.33 73.9999 73 58.3299 73 38.9999C73 38.5301 72.9907 38.0624 72.9724 37.597L70.9729 37.6494C70.9909 38.0973 71 38.5476 71 38.9999C71 57.2253 56.2254 71.9999 38 71.9999C19.9004 71.9999 5.20416 57.4286 5.00211 39.3769L3.01216 39.429C3.00623 39.2025 3.00247 38.9761 3.00087 38.75Z" fill="#20285C"/>
<path d="M6.33617 33.45C6.20967 34.2831 5.82836 34.9292 5.19224 35.3882C4.55612 35.8473 3.83205 36.0152 3.02002 35.8919C2.20272 35.7678 1.56112 35.3925 1.0952 34.7662C0.624008 34.139 0.451662 33.4088 0.57816 32.5757C0.654219 32.0748 0.842914 31.6314 1.14424 31.2456C1.4411 30.8537 1.80791 30.5696 2.24468 30.3932L2.64752 31.4172C2.37887 31.5167 2.15679 31.6826 1.98127 31.9149C1.80047 32.1463 1.68605 32.4203 1.63801 32.7366C1.55635 33.2745 1.65903 33.7351 1.94606 34.1185C2.23388 34.4967 2.64672 34.7266 3.18455 34.8083C3.71711 34.8891 4.17695 34.7917 4.56405 34.5161C4.95196 34.2351 5.18674 33.8257 5.2684 33.2879C5.31644 32.9715 5.29113 32.6763 5.19246 32.4024C5.08932 32.1224 4.92649 31.8981 4.70395 31.7295L5.3926 30.8711C5.75732 31.1693 6.02629 31.5472 6.19952 32.0051C6.36748 32.4622 6.41302 32.9438 6.33617 33.45Z" fill="#20285C"/>
<path d="M7.80693 27.4643C7.60009 28.053 7.26432 28.4777 6.79963 28.7384C6.33494 28.9991 5.82333 29.0313 5.2648 28.8351L1.70983 27.5861L2.07313 26.5521L5.54507 27.7719C5.82182 27.8691 6.06811 27.8681 6.28393 27.7686C6.50152 27.6642 6.66954 27.4434 6.78799 27.1063C6.90644 26.7691 6.91256 26.4943 6.80634 26.2817C6.7019 26.0642 6.5113 25.9067 6.23455 25.8095L2.76261 24.5897L3.12857 23.5481L6.68353 24.7971C7.24206 24.9933 7.62108 25.3385 7.82059 25.8325C8.02009 26.3266 8.01554 26.8705 7.80693 27.4643Z" fill="#20285C"/>
<path d="M9.88324 22.8016C9.61955 23.2896 9.28978 23.6418 8.89393 23.8583C8.49338 24.0723 8.06866 24.1459 7.61976 24.0791L7.5829 22.9862C8.18891 23.0651 8.64404 22.8231 8.9483 22.26C9.09535 21.9879 9.15384 21.7618 9.12377 21.5819C9.09369 21.402 9.00358 21.2714 8.85343 21.1903C8.67982 21.0965 8.50426 21.1017 8.32675 21.2058C8.14454 21.3074 7.88938 21.5272 7.56126 21.8651C7.3764 22.0502 7.20929 22.2024 7.05993 22.3217C6.91311 22.4364 6.7439 22.5419 6.55231 22.6385C6.35857 22.7278 6.15569 22.7667 5.94367 22.7552C5.73165 22.7436 5.51303 22.677 5.28781 22.5553C4.84206 22.3145 4.57274 21.9659 4.47986 21.5095C4.38482 21.0459 4.45773 20.5912 4.6986 20.1455C4.91411 19.7467 5.20154 19.4503 5.56087 19.2565C5.91805 19.0555 6.31589 18.9643 6.75438 18.983L6.78477 20.0543C6.25599 20.0232 5.87497 20.2234 5.64171 20.6551C5.53269 20.8569 5.4934 21.0418 5.52386 21.2098C5.55216 21.3706 5.63904 21.4903 5.78449 21.5689C5.93933 21.6525 6.10025 21.6576 6.26724 21.5842C6.43207 21.5035 6.66968 21.3106 6.98006 21.0055C7.10811 20.8807 7.2065 20.7884 7.27522 20.7285C7.34178 20.6614 7.43871 20.5774 7.56601 20.4764C7.69115 20.3683 7.7962 20.2917 7.88115 20.2466C7.96864 20.1969 8.07762 20.1467 8.2081 20.0959C8.33857 20.0452 8.45871 20.0192 8.56853 20.0179C8.68088 20.0119 8.80692 20.0255 8.94666 20.0586C9.08425 20.0844 9.22343 20.1354 9.36419 20.2114C9.81932 20.4574 10.0906 20.8192 10.178 21.2968C10.268 21.7698 10.1697 22.2714 9.88324 22.8016Z" fill="#20285C"/>
<path d="M8.94366 13.9733L9.79112 14.6033L8.88903 15.8167L12.5357 18.5278L11.877 19.4137L8.23036 16.7027L7.33305 17.9097L6.48558 17.2797L8.94366 13.9733Z" fill="#20285C"/>
<path d="M16.8471 12.9117C16.8233 13.7071 16.5176 14.3841 15.9301 14.9427C15.3426 15.5013 14.6511 15.7724 13.8555 15.7561C13.0601 15.7323 12.3813 15.4247 11.819 14.8333C11.2567 14.2419 10.9856 13.5504 11.0056 12.7587C11.0257 11.9595 11.3296 11.2805 11.9171 10.7219C12.5046 10.1634 13.1979 9.89414 13.9972 9.9143C14.7928 9.9306 15.4717 10.2344 16.0339 10.8258C16.5962 11.4172 16.8673 12.1125 16.8471 12.9117ZM13.8997 14.6764C14.3861 14.6849 14.8149 14.5128 15.1859 14.16C15.557 13.8072 15.7505 13.3877 15.7666 12.9014C15.7789 12.4113 15.6014 11.973 15.2339 11.5865C14.8664 11.2 14.4376 11.0006 13.9475 10.9882C13.4574 10.9758 13.0268 11.146 12.6557 11.4988C12.2847 11.8516 12.093 12.2731 12.0806 12.7632C12.0682 13.2533 12.2458 13.6916 12.6133 14.0781C12.9808 14.4646 13.4096 14.6641 13.8997 14.6764Z" fill="#20285C"/>
<path d="M20.2216 4.74726L23.2135 9.48102L22.2871 10.0666L20.3466 6.9964L20.4035 10.0362L20.2953 10.1046L17.5782 8.75557L19.5144 11.819L18.5812 12.4088L15.5893 7.67506L16.5496 7.06813L19.3236 8.44742L19.2613 5.3542L20.2216 4.74726Z" fill="#20285C"/>
<path d="M22.1515 3.90512L23.1595 3.45472L25.4441 8.5675L24.4362 9.0179L22.1515 3.90512Z" fill="#20285C"/>
<path d="M27.6204 6.63096L29.887 5.91819L30.2038 6.92555L26.5941 8.06071L26.3301 7.22124L27.4517 3.02762L25.2844 3.70919L24.9676 2.70182L28.4781 1.59787L28.7397 2.42971L27.6204 6.63096Z" fill="#20285C"/>
<path d="M34.691 6.183L34.2122 5.23443L32.0038 5.55837L31.8177 6.60446L30.6383 6.77746L31.7648 0.95229L33.1183 0.753749L35.8782 6.00884L34.691 6.183ZM32.2023 4.48621L33.7221 4.26329L32.6302 2.11097L32.2023 4.48621Z" fill="#20285C"/>
<path d="M40.7855 3.21681C41.2694 3.51088 41.5047 3.94318 41.4913 4.51369C41.4802 4.98822 41.3031 5.37352 40.9601 5.66957C40.6171 5.96562 40.2003 6.1079 39.7098 6.09642L37.3344 6.0408L37.4655 0.442334L39.6729 0.49402C40.1528 0.505256 40.5518 0.663974 40.8701 0.970174C41.1938 1.27117 41.3503 1.65094 41.3395 2.10948C41.3287 2.57335 41.144 2.94246 40.7855 3.21681ZM39.6487 1.52574L38.545 1.49989L38.5162 2.73156L39.6199 2.7574C39.7905 2.76139 39.9332 2.70605 40.0479 2.59137C40.168 2.47682 40.23 2.33157 40.2342 2.15561C40.2383 1.97966 40.1857 1.83172 40.0765 1.7118C39.9673 1.59188 39.8247 1.52986 39.6487 1.52574ZM39.7339 5.0647C39.9205 5.06907 40.0766 5.01137 40.2021 4.89161C40.3277 4.76652 40.3928 4.608 40.3973 4.41605C40.4017 4.22944 40.344 4.07338 40.2242 3.94787C40.1046 3.81704 39.9514 3.74943 39.7648 3.74506L38.4932 3.71529L38.4623 5.03493L39.7339 5.0647Z" fill="#20285C"/>
<path d="M43.2526 5.43178L45.352 5.82529L45.1575 6.86322L41.9729 6.26632L43.0046 0.762172L44.0897 0.96556L43.2526 5.43178Z" fill="#20285C"/>
<path d="M48.1394 6.62379L50.3748 7.38073L50.0361 8.38094L46.7551 7.2699L48.5512 1.96576L51.7943 3.06397L51.4556 4.06418L49.2582 3.32007L48.8759 4.44909L50.8839 5.12906L50.5503 6.11411L48.5423 5.43415L48.1394 6.62379Z" fill="#20285C"/>
<path d="M58.1827 6.40042C58.828 6.81688 59.2197 7.39023 59.3578 8.12046C59.5003 8.85359 59.3576 9.55175 58.9296 10.2149C58.5015 10.8782 57.9241 11.2958 57.1974 11.4678C56.4751 11.6428 55.7913 11.522 55.146 11.1056L53.2774 9.89955L56.3141 5.19441L58.1827 6.40042ZM55.7187 10.2183C56.1264 10.4815 56.5448 10.5611 56.9737 10.4571C57.4056 10.3486 57.7618 10.077 58.0423 9.64231C58.3228 9.20765 58.4222 8.77346 58.3403 8.33974C58.2613 7.90154 58.0179 7.55085 57.6101 7.28767L56.6691 6.68033L54.7776 9.61096L55.7187 10.2183Z" fill="#20285C"/>
<path d="M59.5479 13.0834L61.3113 14.6518L60.6095 15.4409L58.0212 13.1387L61.7429 8.9544L64.3013 11.23L63.5995 12.019L61.866 10.4772L61.0738 11.3678L62.6579 12.7768L61.9667 13.5539L60.3826 12.1449L59.5479 13.0834Z" fill="#20285C"/>
<path d="M68.0236 15.4761L67.2148 16.1551L66.2426 14.9971L62.7625 17.9189L62.0526 17.0734L65.5327 14.1516L64.5657 12.9998L65.3744 12.3208L68.0236 15.4761Z" fill="#20285C"/>
<path d="M66.0572 22.7879L66.7447 21.9778L65.5869 20.0695L64.5509 20.3052L63.9325 19.2861L69.7369 18.0569L70.4465 19.2265L66.6797 23.8138L66.0572 22.7879ZM66.6518 19.8352L67.4486 21.1484L69.0063 19.3049L66.6518 19.8352Z" fill="#20285C"/>
<path d="M72.0945 22.4196L72.5412 23.4292L67.42 25.6949L66.9733 24.6853L72.0945 22.4196Z" fill="#20285C"/>
<path d="M69.2427 27.5251L69.8758 29.5651L68.8672 29.8781L67.9069 26.7837L73.2552 25.1238L73.5825 26.1782L69.2427 27.5251Z" fill="#20285C"/>
<path d="M69.4078 33.1582C69.321 32.6104 69.3691 32.1303 69.5522 31.7179C69.7405 31.3047 70.0333 30.9883 70.4305 30.7688L71.1234 31.6148C70.594 31.92 70.3793 32.3887 70.4795 33.0208C70.5279 33.3264 70.6186 33.5415 70.7518 33.6662C70.8849 33.7909 71.0358 33.8399 71.2044 33.8132C71.3993 33.7823 71.5356 33.6716 71.6134 33.4811C71.6965 33.2898 71.7658 32.9602 71.8213 32.4924C71.8559 32.2331 71.8962 32.0108 71.9424 31.8252C71.9895 31.645 72.0598 31.4584 72.1534 31.2653C72.2532 31.0767 72.3907 30.9227 72.5662 30.8031C72.7416 30.6835 72.9558 30.6037 73.2086 30.5636C73.7091 30.4843 74.1347 30.5978 74.4856 30.904C74.8426 31.2147 75.0608 31.6202 75.14 32.1206C75.2109 32.5684 75.1625 32.9783 74.9946 33.3505C74.8329 33.7271 74.5722 34.0411 74.2124 34.2925L73.5378 33.4598C73.9768 33.1634 74.158 32.773 74.0812 32.2883C74.0453 32.0618 73.9643 31.8911 73.8381 31.7761C73.718 31.6655 73.5763 31.6231 73.413 31.649C73.2391 31.6765 73.1082 31.7702 73.0201 31.9299C72.9381 32.0941 72.8664 32.3917 72.8051 32.8226C72.7791 32.9995 72.757 33.1326 72.7387 33.2219C72.7266 33.3156 72.7006 33.4412 72.6607 33.5987C72.627 33.7606 72.59 33.8853 72.5499 33.9727C72.5106 34.0653 72.4545 34.1714 72.3816 34.2909C72.3087 34.4104 72.2291 34.5041 72.1426 34.5718C72.057 34.6447 71.9486 34.7105 71.8175 34.769C71.6924 34.8321 71.5509 34.8761 71.3929 34.9011C70.8819 34.982 70.4467 34.8593 70.0872 34.5328C69.7285 34.2117 69.5021 33.7535 69.4078 33.1582Z" fill="#20285C"/>
<g clip-path="url(#clip0_1_539)">
<path d="M31.3333 55H23.4168C23.0411 55 22.6807 54.8507 22.415 54.585C22.1493 54.3193 22 53.9589 22 53.5832V45.6667C21.9994 45.4827 22.035 45.3004 22.1049 45.1303C22.1748 44.9601 22.2776 44.8053 22.4073 44.6749L43.6596 23.4227C43.7914 23.2888 43.9486 23.1825 44.1219 23.1099C44.2952 23.0374 44.4812 23 44.6691 23C44.857 23 45.043 23.0374 45.2163 23.1099C45.3896 23.1825 45.5467 23.2888 45.6786 23.4227L53.5773 31.3214C53.7112 31.4533 53.8175 31.6104 53.8901 31.7837C53.9626 31.957 54 32.143 54 32.3309C54 32.5188 53.9626 32.7048 53.8901 32.8781C53.8175 33.0514 53.7112 33.2086 53.5773 33.3404L32.3251 54.5927C32.1947 54.7224 32.0399 54.8252 31.8697 54.8951C31.6996 54.965 31.5173 55.0006 31.3333 55Z" stroke="#20285C" stroke-width="2" stroke-linecap="round" stroke-linejoin="round"/>
<path d="M39 28L49 38" stroke="#20285C" stroke-width="2" stroke-linecap="round" stroke-linejoin="round"/>
</g>
<defs>
<clipPath id="clip0_1_539">
<rect width="34" height="34" fill="white" transform="translate(21 22)"/>
</clipPath>
</defs>
</svg>
