<svg width="76" height="74" viewBox="0 0 76 74" fill="none" xmlns="http://www.w3.org/2000/svg">
<path fill-rule="evenodd" clip-rule="evenodd" d="M43.239 54.2008C37.892 55.5698 32.091 55.2388 27.397 52.1578C22.461 48.9178 19.077 43.7348 18.649 38.0578C18.214 32.2918 20.499 26.4898 25.207 23.1068C29.596 19.9508 35.467 21.0898 40.98 22.0058C46.81 22.9728 53.55 23.3878 56.656 28.3258C59.862 33.4208 58.119 39.8078 55.435 44.9838C52.995 49.6908 48.528 52.8478 43.239 54.2008Z" fill="#FAE6D4"/>
<path fill-rule="evenodd" clip-rule="evenodd" d="M3.00088 37.7498C3.00029 37.8331 3 37.9165 3 38C3 57.33 18.67 73 38 73C56.2249 73 71.1964 59.0704 72.8486 41.2771L70.8602 41.0584C69.3171 57.85 55.1942 71 38 71C20.812 71 6.69319 57.8596 5.14153 41.0767L3.20233 41.2846C3.07617 40.1081 3.00917 38.9283 3.00088 37.7498Z" fill="#20285C"/>
<path d="M0.526841 35.0939C0.58898 34.3284 0.909212 33.7123 1.48754 33.2455C2.0663 32.7735 2.74905 32.5694 3.53579 32.6333C4.32254 32.6971 4.96343 33.0087 5.45848 33.5679C5.95395 34.1218 6.17062 34.7815 6.10848 35.547L5.92854 37.7637L0.346898 37.3106L0.526841 35.0939ZM5.05594 35.4615C5.09521 34.9778 4.96767 34.5715 4.67331 34.2426C4.37364 33.9132 3.96599 33.7276 3.45035 33.6858C2.93472 33.6439 2.50512 33.7616 2.16158 34.0387C1.81271 34.3154 1.61865 34.6956 1.57938 35.1793L1.48876 36.2956L4.96532 36.5778L5.05594 35.4615Z" fill="#20285C"/>
<path d="M5.79612 30.6134L6.36134 28.3221L7.3866 28.575L6.55698 31.9382L1.11996 30.597L1.94 27.2726L2.96527 27.5255L2.40963 29.778L3.56694 30.0635L4.07468 28.0052L5.08441 28.2543L4.57667 30.3126L5.79612 30.6134Z" fill="#20285C"/>
<path d="M3.93162 22.0352L4.91024 22.432L4.34212 23.8332L8.55316 25.5406L8.13835 26.5637L3.92731 24.8563L3.36219 26.2501L2.38357 25.8534L3.93162 22.0352Z" fill="#20285C"/>
<path d="M11.3288 20.3412L10.2917 20.1102L9.14238 22.0235L9.83344 22.8306L9.21962 23.8524L5.42846 19.2885L6.13291 18.1159L11.9468 19.3125L11.3288 20.3412ZM8.43898 21.1903L9.22994 19.8736L6.87313 19.3538L8.43898 21.1903Z" fill="#20285C"/>
<path d="M8.19876 15.1561L8.88348 14.2901L13.2763 17.7633L12.5916 18.6293L8.19876 15.1561Z" fill="#20285C"/>
<path d="M14.0672 15.2724L15.5776 13.7621L16.3243 14.5088L14.0332 16.7998L10.0734 12.84L10.8541 12.0593L14.0672 15.2724Z" fill="#20285C"/>
<path d="M17.808 11.9067L19.696 10.4907L20.3296 11.3355L17.5584 13.4139L14.1985 8.93386L16.9377 6.87948L17.5713 7.72428L15.7153 9.11627L16.4304 10.0699L18.1265 8.79788L18.7504 9.62989L17.0544 10.9019L17.808 11.9067Z" fill="#20285C"/>
<path d="M20.3542 4.87331C21.032 4.51233 21.7235 4.44924 22.4286 4.68405C23.1385 4.91634 23.6789 5.38085 24.0499 6.07756C24.4209 6.77426 24.5047 7.48193 24.3012 8.20054C24.1025 8.91665 23.6642 9.45519 22.9863 9.81617L21.0233 10.8615L18.3911 5.91864L20.3542 4.87331ZM22.49 8.88409C22.9183 8.65597 23.1915 8.32924 23.3094 7.90391C23.4248 7.47386 23.3609 7.03053 23.1178 6.5739C22.8746 6.11727 22.5437 5.81918 22.1249 5.67962C21.7037 5.53535 21.2789 5.57727 20.8505 5.80539L19.8619 6.33182L21.5014 9.41051L22.49 8.88409Z" fill="#20285C"/>
<path d="M31.0222 6.95678C30.199 7.13673 29.4593 7.01181 28.803 6.58203C28.1468 6.15225 27.731 5.53617 27.5556 4.73378C27.379 3.92618 27.4999 3.19279 27.9181 2.53361C28.3352 1.86922 28.9553 1.44706 29.7786 1.26712C30.2736 1.15892 30.7551 1.1765 31.2232 1.31986C31.6953 1.45686 32.0919 1.69773 32.4129 2.04247L31.6007 2.78502C31.4117 2.56975 31.1774 2.42171 30.8977 2.34091C30.6168 2.2549 30.3201 2.24606 30.0075 2.31439C29.476 2.43056 29.0826 2.69124 28.8273 3.09645C28.5771 3.50052 28.5101 3.96829 28.6263 4.49974C28.7413 5.02598 28.9968 5.42053 29.3927 5.68338C29.7939 5.94509 30.2602 6.01786 30.7916 5.90169C31.1042 5.83336 31.3708 5.70413 31.5913 5.51399C31.8158 5.31751 31.967 5.08519 32.0449 4.81705L33.0928 5.15303C32.9449 5.60026 32.6882 5.98666 32.3226 6.31224C31.9559 6.6326 31.5224 6.84745 31.0222 6.95678Z" fill="#20285C"/>
<path d="M38.5647 6.04524L38.1978 5.0481L35.9668 5.117L35.6621 6.13489L34.4707 6.17169L36.2568 0.513854L37.6242 0.471621L39.7641 6.0082L38.5647 6.04524ZM36.2868 4.07463L37.8221 4.02721L36.9838 1.76401L36.2868 4.07463Z" fill="#20285C"/>
<path d="M44.3355 6.65321L43.4951 4.56871L42.6636 4.4494L42.3875 6.37369L41.2947 6.21689L42.09 0.673658L44.3073 0.991811C44.8194 1.06529 45.2292 1.30728 45.5367 1.71778C45.8442 2.12828 45.9615 2.58693 45.8888 3.09374C45.8396 3.4369 45.6961 3.74228 45.4583 4.00989C45.2213 4.27222 44.9312 4.45419 44.588 4.5558L45.5154 6.82251L44.3355 6.65321ZM43.0363 1.852L42.8011 3.49121L43.9255 3.65256C44.1314 3.6821 44.3197 3.62829 44.4902 3.49112C44.6615 3.34868 44.7634 3.16395 44.796 2.93694C44.8286 2.70993 44.7823 2.50663 44.6572 2.32705C44.5321 2.14746 44.3666 2.04289 44.1608 2.01335L43.0363 1.852Z" fill="#20285C"/>
<path d="M51.2427 2.80915L50.9281 3.81721L49.4847 3.36679L48.1311 7.70448L47.0772 7.37559L48.4309 3.0379L46.9952 2.58986L47.3097 1.58181L51.2427 2.80915Z" fill="#20285C"/>
<path d="M54.8331 9.91768C54.0744 10.1575 53.3344 10.0922 52.6133 9.72182C51.8922 9.35141 51.4082 8.788 51.1612 8.03156C50.9214 7.27282 50.9879 6.53053 51.3607 5.80469C51.7336 5.07885 52.297 4.59479 53.051 4.35254C53.8121 4.10797 54.5533 4.17089 55.2744 4.54129C55.9955 4.91169 56.4783 5.47748 56.7229 6.23865C56.9699 6.99509 56.907 7.73623 56.5341 8.46207C56.1613 9.18791 55.5943 9.67312 54.8331 9.91768ZM52.195 7.71721C52.3475 8.17923 52.6514 8.5272 53.1068 8.76114C53.5622 8.99508 54.0221 9.03943 54.4864 8.89421C54.9532 8.74424 55.3084 8.43205 55.5521 7.95764C55.7958 7.48323 55.8426 7.01265 55.6927 6.54589C55.5427 6.07913 55.24 5.72878 54.7846 5.49485C54.3291 5.26091 53.868 5.21892 53.4013 5.36889C52.9345 5.51886 52.5793 5.83105 52.3356 6.30546C52.0919 6.77987 52.0451 7.25045 52.195 7.71721Z" fill="#20285C"/>
<path d="M62.133 12.5346L61.8639 12.8725C61.3654 13.4982 60.7614 13.8456 60.0519 13.9145C59.3424 13.9834 58.6706 13.7654 58.0365 13.2603C57.3607 12.7219 56.9741 12.056 56.8767 11.2624C56.7867 10.468 56.9943 9.75371 57.4994 9.11964C58.0079 8.48139 58.6572 8.11564 59.4474 8.02237C60.2419 7.93243 60.9645 8.14666 61.6152 8.66506C62.024 8.99071 62.3226 9.38199 62.511 9.83887C62.7027 10.2916 62.7694 10.7471 62.7112 11.2053L61.6339 11.0426C61.6725 10.7802 61.6303 10.5079 61.5073 10.2258C61.3884 9.94699 61.1997 9.70458 60.941 9.49855C60.5239 9.16625 60.0701 9.02976 59.5796 9.08908C59.0966 9.14755 58.689 9.38537 58.3567 9.80252C58.0277 10.2155 57.8908 10.6656 57.9459 11.1527C58.0086 11.639 58.2652 12.0616 58.7157 12.4205C59.0494 12.6863 59.3829 12.8327 59.7161 12.8595C60.0568 12.8854 60.3698 12.8006 60.6551 12.6051L59.3286 11.5484L59.9367 10.785L62.133 12.5346Z" fill="#20285C"/>
<path d="M63.3435 18.4513L64.0767 16.3267L63.5274 15.6912L62.0566 16.9624L61.3347 16.1271L65.5717 12.4653L67.0364 14.1601C67.3746 14.5515 67.5251 15.003 67.4879 15.5145C67.4506 16.0261 67.2383 16.4492 66.851 16.784C66.5887 17.0107 66.28 17.147 65.925 17.193C65.5741 17.2355 65.2357 17.1825 64.91 17.034L64.1229 19.3532L63.3435 18.4513ZM65.5127 13.9754L64.2598 15.0582L65.0026 15.9177C65.1386 16.0751 65.316 16.158 65.5347 16.1663C65.7574 16.1712 65.9556 16.0987 66.1291 15.9487C66.3026 15.7988 66.401 15.615 66.4244 15.3974C66.4479 15.1798 66.3916 14.9923 66.2556 14.8349L65.5127 13.9754Z" fill="#20285C"/>
<path d="M66.2271 22.8976L66.9182 22.0905L65.7688 20.1772L64.7317 20.4082L64.1179 19.3864L69.9277 18.1829L70.6321 19.3555L66.8451 23.9262L66.2271 22.8976ZM66.8348 19.9475L67.6257 21.2642L69.1916 19.4276L66.8348 19.9475Z" fill="#20285C"/>
<path d="M73.0142 24.3211C73.2147 24.821 73.2152 25.3093 73.0156 25.7858C72.816 26.2624 72.4711 26.599 71.9811 26.7955C71.491 26.9921 71.0092 26.9871 70.5356 26.7805C70.062 26.574 69.725 26.2207 69.5244 25.7208L69.1581 24.8075L67.4504 25.4925L67.0394 24.4678L72.2369 22.3831L73.0142 24.3211ZM70.4822 25.3366C70.5696 25.5544 70.7163 25.7053 70.9224 25.7893C71.1334 25.8713 71.3503 25.8676 71.5731 25.7783C71.8008 25.687 71.9601 25.5397 72.051 25.3366C72.1419 25.1335 72.1437 24.9231 72.0563 24.7053L71.69 23.792L70.1159 24.4233L70.4822 25.3366Z" fill="#20285C"/>
<path d="M74.8904 30.643L75.1366 31.711L69.6798 32.9692L69.4336 31.9013L71.6942 31.38L71.2269 29.3532L68.9662 29.8745L68.7181 28.7987L74.1749 27.5404L74.423 28.6162L72.2559 29.1159L72.7232 31.1427L74.8904 30.643Z" fill="#20285C"/>
<path d="M75.715 38.985L72.2004 37.2523L70.0195 37.3702L69.9604 36.2758L72.1412 36.1579L75.449 34.0642L75.5163 35.3104L73.2494 36.6508L75.6477 37.7388L75.715 38.985Z" fill="#20285C"/>
<g clip-path="url(#clip0_1_506)">
<path fill-rule="evenodd" clip-rule="evenodd" d="M43.4253 27.2677L33.1115 22.1108C32.9196 22.012 32.6951 21.9746 32.4692 22.0173C32.4468 22.0215 32.4246 22.0265 32.4024 22.0323L21.7573 24.6935C21.3122 24.8048 20.9999 25.2048 20.9999 25.6637V49.6358C20.9999 49.9438 21.1417 50.2345 21.3845 50.4241C21.6272 50.6136 21.9437 50.6807 22.2424 50.606L32.5377 48.0322L42.8462 53.1864C43.0555 53.2957 43.3042 53.3317 43.5513 53.2699L54.2056 50.6063C54.6507 50.495 54.963 50.0951 54.963 49.6362V25.664C54.963 25.3561 54.8211 25.0653 54.5784 24.8758C54.3357 24.6863 54.0192 24.6192 53.7205 24.6939L43.4253 27.2677ZM44.3083 29.1085V51.0191L52.963 48.8554V26.9448L44.3083 29.1085ZM31.654 24.2809V46.1915L22.9999 48.3551V26.4445L31.654 24.2809ZM33.654 24.6181V46.3542L42.3083 50.6814V28.9453L33.654 24.6181Z" fill="#20285C"/>
</g>
<defs>
<clipPath id="clip0_1_506">
<rect width="34" height="34" fill="white" transform="translate(21 21)"/>
</clipPath>
</defs>
</svg>
