<svg width="70" height="73" viewBox="0 0 70 73" fill="none" xmlns="http://www.w3.org/2000/svg">
<path fill-rule="evenodd" clip-rule="evenodd" d="M28.3747 50.6248C24.3367 48.2328 21.0467 44.5448 20.0767 39.8698C19.0567 34.9518 20.1387 29.7998 23.2937 26.1298C26.4997 22.4008 31.3637 20.2868 36.2287 21.0828C40.7667 21.8248 43.6117 26.0408 46.3767 29.9058C49.3007 33.9938 53.1037 38.2958 52.0027 43.1338C50.8657 48.1268 45.9767 50.9188 41.2497 52.4178C36.9527 53.7808 32.3687 52.9928 28.3737 50.6258L28.3747 50.6248Z" fill="#F9D8D3"/>
<path fill-rule="evenodd" clip-rule="evenodd" d="M5.54598 18.0854C2.03618 23.5397 0 30.032 0 37C0 56.3299 15.67 72 35 72C54.33 72 70 56.3299 70 37C70 30.6728 68.3211 24.7377 65.3844 19.6159L63.6428 20.5999C66.415 25.4311 68 31.0304 68 37C68 55.2254 53.2254 70 35 70C16.7746 70 2 55.2254 2 37C2 30.4161 3.92806 24.2826 7.25036 19.1332L5.54598 18.0854Z" fill="#20285C"/>
<path d="M40.6667 24.25H19.4167V42.6667H40.6667V24.25Z" stroke="#20285C" stroke-width="1.5" stroke-linecap="round" stroke-linejoin="round"/>
<path d="M40.6667 31.3334H46.3334L50.5834 35.5834V42.6667H40.6667V31.3334Z" stroke="#20285C" stroke-width="1.5" stroke-linecap="round" stroke-linejoin="round"/>
<path d="M25.7917 49.75C27.7477 49.75 29.3333 48.1643 29.3333 46.2083C29.3333 44.2523 27.7477 42.6666 25.7917 42.6666C23.8357 42.6666 22.25 44.2523 22.25 46.2083C22.25 48.1643 23.8357 49.75 25.7917 49.75Z" stroke="#20285C" stroke-width="1.5" stroke-linecap="round" stroke-linejoin="round"/>
<path d="M44.2084 49.75C46.1644 49.75 47.75 48.1643 47.75 46.2083C47.75 44.2523 46.1644 42.6666 44.2084 42.6666C42.2523 42.6666 40.6667 44.2523 40.6667 46.2083C40.6667 48.1643 42.2523 49.75 44.2084 49.75Z" stroke="#20285C" stroke-width="1.5" stroke-linecap="round" stroke-linejoin="round"/>
<path d="M9.12058 12.6249L7.70438 14.3604L8.73328 15.2L10.109 13.514L10.9272 14.1817L9.55145 15.8676L11.225 17.2332L10.527 18.0886L6.18823 14.5481L8.30242 11.9572L9.12058 12.6249Z" fill="#20285C"/>
<path d="M16.2474 12.2995L14.1232 11.565L13.4874 12.1139L14.7576 13.5855L13.9219 14.3069L10.2627 10.0678L11.9583 8.60407C12.3499 8.26602 12.8015 8.11577 13.313 8.15332C13.8245 8.19087 14.2475 8.40343 14.5821 8.79101C14.8086 9.05342 14.9448 9.36215 14.9906 9.71718C15.0329 10.0682 14.9797 10.4065 14.831 10.7321L17.1497 11.5206L16.2474 12.2995ZM11.7727 10.1276L12.8548 11.3811L13.7147 10.6388C13.8722 10.5029 13.9552 10.3256 13.9637 10.1069C13.9687 9.88417 13.8962 9.686 13.7464 9.5124C13.5965 9.3388 13.4128 9.24024 13.1952 9.2167C12.9776 9.19316 12.7901 9.24935 12.6326 9.38527L11.7727 10.1276Z" fill="#20285C"/>
<path d="M18.7476 9.39516L20.7744 8.1861L21.3154 9.09299L18.3405 10.8676L15.4715 6.05838L18.4121 4.30421L18.9531 5.2111L16.9607 6.39968L17.5713 7.42336L19.392 6.33725L19.9248 7.2304L18.1041 8.31651L18.7476 9.39516Z" fill="#20285C"/>
<path d="M23.4971 7.08701L25.6964 6.23093L26.0794 7.21501L22.8514 8.47156L20.82 3.25298L24.0108 2.01094L24.3939 2.99502L22.2319 3.83659L22.6643 4.9474L24.6399 4.17838L25.0171 5.14754L23.0415 5.91656L23.4971 7.08701Z" fill="#20285C"/>
<path d="M33.2707 6.14997C32.7179 6.19614 32.2427 6.11274 31.8449 5.89978C31.4467 5.6815 31.1527 5.36621 30.9631 4.9539L31.8579 4.32524C32.1233 4.87572 32.5749 5.12433 33.2126 5.07106C33.5209 5.04531 33.7421 4.97064 33.8763 4.84704C34.0105 4.72344 34.0705 4.57661 34.0563 4.40653C34.0398 4.20988 33.9395 4.06573 33.7552 3.97409C33.5705 3.87713 33.2469 3.78373 32.7845 3.69391C32.5285 3.64037 32.3097 3.58372 32.1281 3.52396C31.9518 3.46376 31.7709 3.37986 31.5853 3.27227C31.4045 3.15892 31.261 3.01035 31.1547 2.82657C31.0483 2.64278 30.9845 2.42333 30.9632 2.16822C30.921 1.66331 31.0656 1.24717 31.3968 0.919796C31.7329 0.586663 32.1534 0.39901 32.6583 0.356837C33.1101 0.319103 33.5154 0.397641 33.8742 0.592452C34.2378 0.781505 34.5317 1.06469 34.7559 1.442L33.8758 2.05339C33.6126 1.5937 33.2365 1.38428 32.7476 1.42512C32.519 1.44421 32.3428 1.51245 32.2188 1.62984C32.0996 1.74148 32.047 1.87968 32.0607 2.04444C32.0754 2.21983 32.1591 2.35733 32.3119 2.45696C32.4696 2.55082 32.7611 2.64422 33.1863 2.73715C33.3608 2.77609 33.4919 2.80796 33.5796 2.83274C33.6722 2.85177 33.7955 2.88696 33.9497 2.93831C34.1087 2.9839 34.2303 3.02994 34.3144 3.07642C34.4039 3.12247 34.5056 3.18623 34.6194 3.2677C34.7333 3.34918 34.8208 3.43553 34.8819 3.52675C34.9484 3.61754 35.006 3.73047 35.0547 3.86555C35.1083 3.99487 35.1418 4.13925 35.1551 4.29869C35.1982 4.81423 35.0437 5.23923 34.6916 5.5737C34.3449 5.90772 33.8712 6.09981 33.2707 6.14997Z" fill="#20285C"/>
<path d="M40.1139 0.726353L41.2054 0.825852L40.697 6.40273L39.6055 6.30323L39.8161 3.99281L37.7447 3.80398L37.5341 6.1144L36.4346 6.01417L36.943 0.437297L38.0425 0.537522L37.8406 2.75234L39.912 2.94117L40.1139 0.726353Z" fill="#20285C"/>
<path d="M43.3984 1.40289L44.4701 1.66792L43.1258 7.10417L42.0541 6.83914L43.3984 1.40289Z" fill="#20285C"/>
<path d="M49.5822 3.47439C50.0811 3.67737 50.4327 4.01617 50.6369 4.49077C50.8411 4.96537 50.8438 5.44722 50.6448 5.93629C50.4458 6.42537 50.1076 6.76854 49.6301 6.96581C49.1525 7.16307 48.6643 7.16021 48.1653 6.95723L47.2539 6.58643L46.5605 8.2908L45.5379 7.87479L47.6481 2.68759L49.5822 3.47439ZM48.5542 6.0013C48.7716 6.08973 48.982 6.08898 49.1856 5.99906C49.3912 5.90419 49.5392 5.74561 49.6296 5.5233C49.722 5.29605 49.7268 5.07918 49.6438 4.87269C49.5608 4.6662 49.4107 4.51875 49.1933 4.43032L48.2818 4.05953L47.6427 5.63051L48.5542 6.0013Z" fill="#20285C"/>
<path d="M53.0638 5.25526L54.0161 5.81365L51.1837 10.6445L50.2313 10.0861L53.0638 5.25526Z" fill="#20285C"/>
<path d="M59.3073 9.73691L60.1644 10.4327L56.6353 14.7807L55.9831 14.2513L56.2775 10.0803L54.1197 12.7388L53.2625 12.043L56.7916 7.69504L57.4438 8.22441L57.1545 12.3892L59.3073 9.73691Z" fill="#20285C"/>
<path d="M63.2447 18.0008L62.9142 18.279C62.3021 18.7941 61.6415 19.0155 60.9323 18.9431C60.2231 18.8708 59.6075 18.5245 59.0855 17.9042C58.5292 17.2432 58.2816 16.514 58.3426 15.7168C58.4111 14.9203 58.7555 14.261 59.3757 13.739C60.0001 13.2136 60.7088 12.9831 61.5019 13.0475C62.2985 13.1161 62.9646 13.4686 63.5003 14.1052C63.8369 14.5051 64.0524 14.9476 64.147 15.4326C64.2456 15.9143 64.2212 16.3739 64.0737 16.8117L63.0497 16.4397C63.1393 16.19 63.1516 15.9148 63.0867 15.6139C63.0251 15.3172 62.8879 15.0423 62.675 14.7893C62.3316 14.3813 61.9136 14.1579 61.4211 14.1194C60.936 14.0814 60.4895 14.2342 60.0814 14.5776C59.6775 14.9176 59.4545 15.3318 59.4124 15.8202C59.3779 16.3093 59.5461 16.7742 59.917 17.2149C60.1917 17.5414 60.4898 17.7506 60.8112 17.8426C61.1401 17.9352 61.4637 17.9139 61.7819 17.7785L60.6899 16.4809L61.4366 15.8524L63.2447 18.0008Z" fill="#20285C"/>
</svg>
