<svg width="70" height="74" viewBox="0 0 70 74" fill="none" xmlns="http://www.w3.org/2000/svg">
<path fill-rule="evenodd" clip-rule="evenodd" d="M40.0455 21.4619C44.7296 22.8808 49.5934 25.5787 50.7837 30.5055C51.9363 35.2794 48.2405 39.5895 45.4103 43.6762C42.7344 47.5405 39.983 51.7526 35.5165 52.5489C30.7254 53.4026 25.8975 51.3756 22.682 47.7277C19.5171 44.1374 18.3799 39.0535 19.3193 34.1705C20.2133 29.5289 23.4099 25.8347 27.3618 23.4108C31.2717 21.0127 35.7845 20.1727 40.0455 21.4619Z" fill="#D6E0D7"/>
<path fill-rule="evenodd" clip-rule="evenodd" d="M5.54604 19.0132C2.0362 24.4674 0 30.9598 0 37.9278C0 57.2578 15.67 72.9278 35 72.9278C54.33 72.9278 70 57.2578 70 37.9278C70 31.6006 68.3211 25.6655 65.3844 20.5438L63.6428 21.5277C66.4149 26.3589 68 31.9583 68 37.9278C68 56.1532 53.2254 70.9278 35 70.9278C16.7746 70.9278 2 56.1532 2 37.9278C2 31.3439 3.92809 25.2104 7.25042 20.061L5.54604 19.0132Z" fill="#20285C"/>
<path fill-rule="evenodd" clip-rule="evenodd" d="M32.6676 21.1352C31.7157 21.5601 30.9375 22.7891 30.9375 23.8674C30.9375 24.3283 30.8959 24.3984 30.6743 24.3108C29.6931 23.9228 28.5157 24.1408 27.6935 24.8629C26.6335 25.7937 26.6582 25.6346 26.5749 32.0444L26.4997 37.8252L25.8227 37.0851C23.5661 34.6179 22.7721 34.0488 21.3872 33.9059C19.5776 33.719 18 34.9936 18 36.6424C18 37.0654 18.1978 37.4345 18.9589 38.4322C20.2871 40.1734 21.0483 41.5018 22.0913 43.8987C23.1979 46.4422 24.0385 47.7594 25.4677 49.1893L26.5749 50.2972V52.3759C26.5749 54.0653 26.6193 54.4992 26.8112 54.6913C27.0206 54.9007 28.0263 54.9277 35.6065 54.9277C43.9145 54.9277 44.1699 54.9192 44.3211 54.6367C44.4096 54.4712 44.4788 53.2861 44.4812 51.8907L44.4855 49.4357L45.3776 48.788C47.5981 47.1759 50.2445 44.2916 51.1399 42.5077C52.1409 40.5134 52.2784 38.2809 51.4984 36.686C51.0497 35.7689 49.9545 34.6553 49.0441 34.1908C48.278 33.7999 46.9572 33.5599 46.1605 33.6668L45.5299 33.7513V31.6928C45.5299 29.5208 45.4279 29.0942 44.7225 28.3179C44.0819 27.6128 43.3105 27.3453 42.1887 27.4393L41.1672 27.5251V26.4005C41.1672 25.7819 41.0757 25.057 40.964 24.7893C40.7042 24.1676 39.8471 23.4136 39.1314 23.1773C38.6018 23.0025 37.6008 23.0342 37.0994 23.2416C36.9324 23.3106 36.8158 23.1936 36.6813 22.8215C36.2419 21.606 35.2367 20.9181 33.9147 20.9278C33.4769 20.9311 32.9158 21.0244 32.6676 21.1352ZM33.5356 22.5324C33.351 22.5681 33.0634 22.7711 32.8962 22.9837C32.6033 23.3561 32.5923 23.5789 32.5923 29.1428C32.5923 34.7149 32.5818 34.926 32.2915 35.2164C31.9294 35.5786 31.7138 35.5927 31.272 35.2831C30.9399 35.0506 30.9375 35.019 30.9375 30.8327V26.6166L30.4978 26.1768C30.1977 25.8766 29.9073 25.7369 29.5836 25.7369C29.2599 25.7369 28.9695 25.8766 28.6694 26.1768L28.2297 26.6166V32.9478C28.2297 39.1716 28.2244 39.2843 27.915 39.5938C27.7065 39.8024 27.4904 39.8793 27.2756 39.8217C27.097 39.7738 26.8442 39.7336 26.7134 39.7326C26.2411 39.7284 25.0601 38.7816 24.0829 37.6232C22.8424 36.1529 22.1323 35.6447 21.1941 35.5554C20.6244 35.5013 20.3996 35.553 20.0685 35.8144C19.841 35.994 19.6548 36.241 19.6548 36.3631C19.6548 36.4853 20.0971 37.2014 20.6378 37.9545C21.8763 39.6798 22.4263 40.6649 23.5558 43.1805C24.9253 46.2313 25.5742 47.1597 27.5903 48.954L28.2297 49.5231V51.473V53.4231H35.5258H42.822V52.0783V50.7336L42.3331 50.8112C41.9162 50.8774 41.6445 50.7504 40.4902 49.9503C38.531 48.592 37.2073 47.4761 35.7149 45.9251C32.4305 42.5113 31.4838 39.5058 32.7957 36.6569C33.1706 35.8428 34.182 34.7339 34.8775 34.3741L35.3002 34.1555V28.8999C35.3002 25.2905 35.2465 23.5269 35.1288 23.2685C34.9888 22.9611 34.1214 22.3699 33.9235 22.4471C33.8947 22.4584 33.72 22.4968 33.5356 22.5324ZM37.3243 25.0531L36.955 25.4223L36.9553 29.5295L36.9556 33.6365L37.8349 33.669C38.3184 33.6871 38.8961 33.7709 39.1186 33.8554C39.4303 33.974 39.5413 33.962 39.6021 33.8035C39.6455 33.6904 39.66 31.7554 39.6343 29.5036L39.5876 25.4095L39.1655 25.0466C38.5964 24.5573 37.8171 24.56 37.3243 25.0531ZM41.6646 29.41L41.2424 29.7728L41.1944 32.2886L41.1465 34.8044L41.6321 35.3055L42.1175 35.8066L42.7331 35.2089C43.0716 34.8801 43.4669 34.5735 43.6118 34.5274C43.8475 34.4525 43.8751 34.2008 43.8751 32.1148C43.8751 29.8428 43.866 29.7769 43.5057 29.4166C43.0129 28.9236 42.2337 28.9208 41.6646 29.41ZM36.7293 35.35C34.8656 35.8333 33.6209 37.7046 33.8647 39.6567C33.9879 40.6437 34.7341 42.2185 35.6569 43.4397C36.5423 44.6112 38.5266 46.4942 40.1993 47.7497C42.2188 49.2656 42.0181 49.2298 43.3004 48.3029C47.9993 44.906 50.3732 41.8305 50.3817 39.1286C50.3873 37.3376 49.3382 35.9087 47.6587 35.4203C45.919 34.9146 43.8119 35.8506 42.9574 37.5087C42.6356 38.1331 42.0635 38.3823 41.6808 38.0646C41.5517 37.9574 41.3185 37.6199 41.1628 37.3144C40.4549 35.9263 38.2588 34.9533 36.7293 35.35Z" fill="#20285C"/>
<path d="M9.8938 11.7135L10.5765 10.8561L14.9573 14.3446L14.2745 15.2019L12.4596 13.7567L11.1639 15.3838L12.9788 16.8291L12.2911 17.6927L7.91036 14.2042L8.59809 13.3406L10.3379 14.726L11.6336 13.0989L9.8938 11.7135Z" fill="#20285C"/>
<path d="M18.5721 11.3337L17.6593 10.79L15.9693 12.248L16.3734 13.2307L15.4709 14.0094L13.2967 8.489L14.3325 7.59536L19.4807 10.5498L18.5721 11.3337ZM15.5617 11.2367L16.7246 10.2333L14.6485 9.00266L15.5617 11.2367Z" fill="#20285C"/>
<path d="M20.077 3.93667L21.0321 3.38292L23.8409 8.22755L23.1142 8.64887L19.3206 6.89052L21.038 9.85266L20.0829 10.4064L17.274 5.56178L18.0007 5.14046L21.7904 6.89189L20.077 3.93667Z" fill="#20285C"/>
<path d="M25.0891 1.94923C25.8134 1.69385 26.5065 1.73504 27.1685 2.0728C27.8355 2.40878 28.3003 2.94898 28.5628 3.6934C28.8252 4.43781 28.8021 5.15004 28.4933 5.83008C28.1896 6.50835 27.6756 6.97517 26.9513 7.23056L24.8538 7.9701L22.9917 2.68878L25.0891 1.94923ZM26.6001 6.23465C27.0578 6.07326 27.3768 5.79113 27.5571 5.38825C27.7356 4.98034 27.7389 4.53244 27.5669 4.04455C27.3948 3.55665 27.1123 3.21236 26.7191 3.01166C26.3243 2.80592 25.898 2.78375 25.4403 2.94514L24.384 3.31757L25.5438 6.60708L26.6001 6.23465Z" fill="#20285C"/>
<path d="M33.6359 6.66704C32.803 6.79509 32.0726 6.6241 31.4445 6.15407C30.8165 5.68404 30.44 5.04313 30.3152 4.23134C30.1896 3.41427 30.3562 2.68989 30.8148 2.05819C31.2727 1.42122 31.9181 1.03871 32.7509 0.910669C33.2517 0.833681 33.7312 0.881377 34.1894 1.05376C34.652 1.22006 35.0328 1.48528 35.3316 1.84944L34.4745 2.53969C34.2993 2.31301 34.0747 2.15058 33.8006 2.05243C33.5257 1.949 33.2301 1.9216 32.9138 1.97022C32.3762 2.05288 31.9672 2.28843 31.687 2.67685C31.412 3.06447 31.3159 3.52712 31.3985 4.0648C31.4804 4.59721 31.7106 5.00698 32.0893 5.2941C32.4733 5.58042 32.9341 5.68224 33.4718 5.59958C33.7881 5.55096 34.0622 5.43867 34.2942 5.26271C34.5306 5.08067 34.696 4.85828 34.7906 4.59554L35.8154 4.99647C35.6398 5.43356 35.3593 5.80314 34.9741 6.10518C34.588 6.40196 34.142 6.58924 33.6359 6.66704Z" fill="#20285C"/>
<path d="M39.43 6.51646L38.3517 4.54441L37.512 4.52306L37.4626 6.46643L36.3589 6.43837L36.5013 0.840177L38.7406 0.89712C39.2577 0.910271 39.693 1.10273 40.0463 1.4745C40.3997 1.84627 40.5698 2.28807 40.5568 2.79991C40.548 3.14646 40.4411 3.46651 40.2363 3.76007C40.0316 4.04829 39.7647 4.26291 39.4357 4.40392L40.6216 6.54676L39.43 6.51646ZM37.5787 1.89991L37.5366 3.55537L38.6722 3.58425C38.8802 3.58954 39.0608 3.51411 39.2142 3.35796C39.3677 3.19647 39.4473 3.0011 39.4532 2.77184C39.459 2.54258 39.3893 2.34608 39.2441 2.18234C39.0989 2.01859 38.9223 1.93407 38.7143 1.92879L37.5787 1.89991Z" fill="#20285C"/>
<path d="M44.7063 7.53839L44.5808 6.4833L42.3948 6.03246L41.8621 6.95181L40.6947 6.71104L43.7454 1.62237L45.0852 1.8987L45.8815 7.78078L44.7063 7.53839ZM42.948 5.09283L44.4523 5.40309L44.1623 3.00712L42.948 5.09283Z" fill="#20285C"/>
<path d="M51.1859 5.21907L49.1068 4.38539L48.6126 5.61798L50.6322 6.42785L50.2392 7.40798L48.2195 6.59812L47.4156 8.60295L46.391 8.19206L48.4752 2.99436L51.5789 4.23893L51.1859 5.21907Z" fill="#20285C"/>
<path d="M55.8929 6.91469L55.3402 7.81449L54.0518 7.02309L51.6735 10.895L50.7328 10.3171L53.1111 6.44525L51.8296 5.65804L52.3823 4.75824L55.8929 6.91469Z" fill="#20285C"/>
<path d="M55.3366 12.4527L57.1103 14.0095L56.4137 14.8031L53.8102 12.5181L57.5042 8.30929L60.0776 10.5679L59.3811 11.3616L57.6374 9.8312L56.8511 10.7271L58.4445 12.1255L57.7584 12.9072L56.1651 11.5087L55.3366 12.4527Z" fill="#20285C"/>
<path d="M63.0411 14.1436C63.5196 14.7443 63.7075 15.4128 63.6051 16.1489C63.506 16.8891 63.1477 17.5051 62.5302 17.9968C61.9127 18.4885 61.2322 18.6998 60.4885 18.6306C59.7482 18.5657 59.1388 18.2328 58.6604 17.632L57.275 15.8922L61.6557 12.4038L63.0411 14.1436ZM59.4865 16.9742C59.7888 17.3538 60.1598 17.5629 60.5995 17.6014C61.0434 17.6365 61.4677 17.493 61.8724 17.1707C62.2771 16.8484 62.5099 16.4687 62.5709 16.0316C62.636 15.5911 62.5174 15.181 62.2151 14.8014L61.5174 13.9252L58.7888 16.098L59.4865 16.9742Z" fill="#20285C"/>
</svg>
