<svg width="76" height="74" viewBox="0 0 76 74" fill="none" xmlns="http://www.w3.org/2000/svg">
<path fill-rule="evenodd" clip-rule="evenodd" d="M31.3752 51.6248C27.3372 49.2328 24.0472 45.5448 23.0772 40.8698C22.0572 35.9518 23.1392 30.7998 26.2942 27.1298C29.5002 23.4008 34.3642 21.2868 39.2292 22.0828C43.7672 22.8248 46.6122 27.0408 49.3772 30.9058C52.3012 34.9938 56.1042 39.2958 55.0032 44.1338C53.8662 49.1268 48.9772 51.9188 44.2502 53.4178C39.9532 54.7808 35.3692 53.9928 31.3742 51.6258L31.3752 51.6248Z" fill="#F9D8D3"/>
<path fill-rule="evenodd" clip-rule="evenodd" d="M3.00088 37.7496C3.00029 37.833 3 37.9164 3 38C3 57.3299 18.67 73 38 73C56.6646 73 71.9168 58.3902 72.9448 39.9826L70.9496 39.8388C69.9956 57.2089 55.6083 71 38 71C20.5607 71 6.28093 57.4724 5.08155 40.3381L3.12735 40.504C3.04941 39.5864 3.00734 38.6676 3.00088 37.7496Z" fill="#20285C"/>
<path fill-rule="evenodd" clip-rule="evenodd" d="M34.8497 23C34.334 23 33.8385 23.2057 33.4725 23.5733C33.1064 23.9411 32.8999 24.4409 32.8999 24.9629V29.7036C32.8999 29.7127 32.8998 29.7219 32.8995 29.731V36.2224C32.8995 36.7747 32.4518 37.2224 31.8995 37.2224C31.3472 37.2224 30.8995 36.7747 30.8995 36.2224V29.704C30.8995 29.182 30.693 28.6823 30.3269 28.3145C29.9609 27.9469 29.4654 27.7411 28.9498 27.7411C28.4341 27.7411 27.9386 27.9469 27.5726 28.3145C27.2065 28.6823 27 29.182 27 29.704V42.1483C27 45.0277 28.1388 47.7884 30.1645 49.8231C32.1901 51.8577 34.9364 52.9999 37.7991 52.9999C40.6617 52.9999 43.408 51.8577 45.4336 49.8231C47.4593 47.7884 48.5981 45.0277 48.5981 42.1483V36.2224C48.5981 35.7004 48.3916 35.2007 48.0255 34.8329C47.6595 34.4653 47.164 34.2595 46.6484 34.2595C46.1327 34.2595 45.6372 34.4653 45.2712 34.8329C44.9051 35.2007 44.6986 35.7004 44.6986 36.2224V39.1854C44.6986 39.7376 44.2509 40.1854 43.6986 40.1854C42.4006 40.1854 41.1549 40.7032 40.2357 41.6265C39.3163 42.5499 38.7991 43.8033 38.7991 45.1112C38.7991 45.6635 38.3514 46.1112 37.7991 46.1112C37.2468 46.1112 36.7991 45.6635 36.7991 45.1112C36.7991 43.2758 37.5249 41.5146 38.8183 40.2155C39.8741 39.155 41.2374 38.4733 42.6986 38.2585V36.2441C42.6984 36.2368 42.6984 36.2295 42.6984 36.2221V27.3334C42.6984 26.8113 42.4919 26.3116 42.1257 25.9438C41.7597 25.5762 41.2643 25.3704 40.7486 25.3704C40.2329 25.3704 39.7375 25.5762 39.3715 25.9438C39.0168 26.3 38.8119 26.7801 38.7994 27.2843V35.0368C38.7994 35.5891 38.3517 36.0368 37.7994 36.0368C37.2472 36.0368 36.7994 35.5891 36.7994 35.0368V27.3685C36.799 27.3569 36.7988 27.3451 36.7988 27.3334C36.7988 27.3102 36.799 27.287 36.7994 27.2638V24.9629C36.7994 24.4409 36.5929 23.9411 36.2268 23.5733C35.8608 23.2057 35.3653 23 34.8497 23ZM44.6984 32.7762V27.3334C44.6984 26.2838 44.2833 25.2763 43.5431 24.5327C42.8027 23.789 41.7976 23.3704 40.7486 23.3704C40.0086 23.3704 39.2904 23.5788 38.6715 23.9626C38.496 23.2876 38.1443 22.6647 37.6441 22.1623C36.9038 21.4186 35.8987 21 34.8497 21C33.8007 21 32.7956 21.4186 32.0552 22.1623C31.315 22.9058 30.8999 23.9133 30.8999 24.9629V26.2578C30.3107 25.9222 29.6397 25.7411 28.9498 25.7411C27.9008 25.7411 26.8957 26.1597 26.1553 26.9034C25.4151 27.6469 25 28.6544 25 29.704V42.1483C25 45.5553 26.3474 48.8237 28.7472 51.2342C31.1471 53.6448 34.4031 54.9999 37.7991 54.9999C41.195 54.9999 44.451 53.6448 46.8509 51.2342C49.2507 48.8237 50.5981 45.5553 50.5981 42.1483V36.2224C50.5981 35.1728 50.1831 34.1653 49.4428 33.4218C48.7025 32.6781 47.6973 32.2595 46.6484 32.2595C45.9584 32.2595 45.2875 32.4406 44.6984 32.7762Z" fill="#20285C"/>
<path d="M0.608458 33.9008L0.697135 32.8084L6.27878 33.2615L6.1901 34.3539L3.8777 34.1662L3.70941 36.2394L6.02181 36.4271L5.93248 37.5275L0.350842 37.0744L0.440166 35.974L2.65687 36.1539L2.82517 34.0808L0.608458 33.9008Z" fill="#20285C"/>
<path d="M7.38702 28.5602L6.32699 28.633L5.76775 30.7938L6.65942 31.3716L6.36076 32.5256L1.43046 29.225L1.77322 27.9006L7.68768 27.3985L7.38702 28.5602ZM4.85687 30.1944L5.24171 28.7074L2.83427 28.8777L4.85687 30.1944Z" fill="#20285C"/>
<path d="M4.20536 21.4913L4.66182 20.4861L9.76075 22.8015L9.41345 23.5663L5.30352 24.3359L8.42115 25.7516L7.9647 26.7568L2.86576 24.4414L3.21307 23.6766L7.31571 22.9037L4.20536 21.4913Z" fill="#20285C"/>
<path d="M6.89008 16.9069C7.3235 16.2729 7.90703 15.8965 8.64066 15.7779C9.37731 15.6548 10.0714 15.816 10.7231 16.2614C11.3747 16.7069 11.7769 17.2951 11.9296 18.0262C12.0853 18.7529 11.9465 19.4332 11.5131 20.0672L10.258 21.9032L5.63497 18.7429L6.89008 16.9069ZM10.6413 19.4713C10.9152 19.0706 11.0059 18.6545 10.9132 18.223C10.8162 17.7884 10.5542 17.4251 10.1271 17.1332C9.70003 16.8412 9.26863 16.7304 8.8329 16.8008C8.39276 16.8682 8.03574 17.1022 7.76184 17.5028L7.12977 18.4274L10.0092 20.3959L10.6413 19.4713Z" fill="#20285C"/>
<path d="M12.3077 15.8343L11.5862 15.1535L13.6449 12.9715L14.3665 13.6522L12.3077 15.8343Z" fill="#20285C"/>
<path d="M18.7139 12.6333C18.0398 13.1389 17.315 13.3325 16.5395 13.2141C15.764 13.0957 15.1299 12.708 14.6371 12.0509C14.1411 11.3896 13.9464 10.6722 14.0531 9.8989C14.1566 9.1213 14.5454 8.4797 15.2195 7.97411C15.6249 7.67011 16.0702 7.48611 16.5555 7.42212C17.0419 7.35065 17.5027 7.40506 17.9379 7.58532L17.5075 8.59812C17.2462 8.48079 16.9715 8.44345 16.6835 8.48612C16.3923 8.52452 16.1187 8.63971 15.8627 8.83171C15.4275 9.15811 15.1779 9.55864 15.1139 10.0333C15.0542 10.5048 15.1875 10.9581 15.5139 11.3933C15.8371 11.8242 16.2334 12.077 16.7027 12.1517C17.1763 12.2232 17.6307 12.0957 18.0659 11.7693C18.3219 11.5773 18.5107 11.3491 18.6323 11.0845C18.755 10.8125 18.796 10.5384 18.7555 10.2621L19.8483 10.1325C19.8995 10.6008 19.8264 11.0589 19.6291 11.5069C19.4286 11.9507 19.1235 12.3261 18.7139 12.6333Z" fill="#20285C"/>
<path d="M23.9197 8.7644L22.0463 7.52267L21.2935 7.89536L22.156 9.63755L21.1666 10.1274L18.682 5.1087L20.6895 4.11488C21.1531 3.88535 21.6279 3.85264 22.1138 4.01676C22.5997 4.18087 22.9563 4.49235 23.1834 4.9512C23.3372 5.26188 23.392 5.59483 23.3476 5.95004C23.3009 6.30047 23.1649 6.61477 22.9396 6.89295L24.9879 8.23555L23.9197 8.7644ZM20.1293 5.54376L20.864 7.02785L21.882 6.52383C22.0685 6.43155 22.1931 6.28059 22.2559 6.07094C22.3164 5.85652 22.2958 5.64654 22.194 5.44101C22.0923 5.23549 21.939 5.09416 21.7342 5.01702C21.5293 4.93989 21.3337 4.94746 21.1473 5.03974L20.1293 5.54376Z" fill="#20285C"/>
<path d="M30.3822 6.90558L29.7743 6.03414L27.6338 6.66676L27.5973 7.72866L26.4541 8.06651L26.7466 2.14062L28.0585 1.75289L31.533 6.56546L30.3822 6.90558ZM27.6789 5.57731L29.1519 5.14196L27.7669 3.16546L27.6789 5.57731Z" fill="#20285C"/>
<path d="M35.1045 1.55709L32.8825 1.84116L33.051 3.15844L35.2094 2.88249L35.3433 3.92996L33.1849 4.20591L33.4588 6.34847L32.3637 6.48848L31.6535 0.93369L34.9705 0.509619L35.1045 1.55709Z" fill="#20285C"/>
<path d="M40.7547 0.470538L40.7384 1.52641L39.2266 1.50307L39.1565 6.04653L38.0526 6.02948L38.1227 1.48602L36.6189 1.4628L36.6352 0.406927L40.7547 0.470538Z" fill="#20285C"/>
<path d="M42.8295 5.32409L45.1601 5.69508L44.9941 6.73795L41.5732 6.19342L42.4535 0.663042L45.8349 1.20129L45.6689 2.24416L43.3778 1.87946L43.1904 3.05664L45.284 3.3899L45.1206 4.41697L43.0269 4.08371L42.8295 5.32409Z" fill="#20285C"/>
<path d="M49.6731 2.28067C50.4027 2.5205 50.9266 2.97622 51.2448 3.64783C51.568 4.32111 51.6064 5.03268 51.3599 5.78254C51.1134 6.5324 50.6603 7.08242 50.0007 7.4326C49.346 7.78444 48.6539 7.84045 47.9244 7.60062L45.8116 6.90612L47.5603 1.58617L49.6731 2.28067ZM48.2541 6.59743C48.7152 6.74899 49.1401 6.72024 49.5288 6.51117C49.9192 6.29704 50.1952 5.94424 50.3567 5.45278C50.5183 4.96132 50.5046 4.51612 50.3157 4.11719C50.1285 3.7132 49.8044 3.43542 49.3433 3.28386L48.2793 2.93411L47.1901 6.24768L48.2541 6.59743Z" fill="#20285C"/>
<path d="M59.756 10.7108C59.3532 11.3141 58.8131 11.7101 58.1355 11.899L58.2814 12.7179L57.2429 12.8614L57.0881 11.9982C56.5956 11.9579 56.1386 11.7971 55.7172 11.5158C55.0474 11.0686 54.6329 10.4552 54.4737 9.6756C54.3174 8.89152 54.4658 8.16015 54.9189 7.48149C55.372 6.80284 55.9891 6.38759 56.7702 6.23574C57.5543 6.07946 58.2812 6.2249 58.951 6.67206C59.6208 7.11922 60.0338 7.73484 60.1901 8.51892C60.3538 9.30152 60.2091 10.0322 59.756 10.7108ZM56.3169 10.6176C56.4899 10.7331 56.6821 10.8197 56.8936 10.8776L56.6615 9.56831L57.7 9.42477L57.9498 10.8228C58.3138 10.681 58.6098 10.4394 58.8378 10.0978C59.1339 9.65425 59.2341 9.19207 59.1382 8.71126C59.0424 8.23046 58.7816 7.84791 58.3558 7.56363C57.9299 7.27934 57.4766 7.18511 56.9958 7.28095C56.515 7.37678 56.1266 7.64648 55.8304 8.09004C55.5373 8.52917 55.4386 8.98914 55.5344 9.46994C55.6302 9.95075 55.8911 10.3333 56.3169 10.6176Z" fill="#20285C"/>
<path d="M60.3165 15.2562C59.8704 14.8198 59.6276 14.3359 59.5878 13.8045C59.5481 13.2732 59.7352 12.796 60.1493 12.3728L62.7844 9.67955L63.5678 10.446L60.9942 13.0764C60.789 13.2861 60.6859 13.5097 60.6847 13.7473C60.6873 13.9887 60.8164 14.2343 61.0718 14.4842C61.3272 14.7341 61.5737 14.8559 61.8112 14.8495C62.0525 14.8469 62.2758 14.7407 62.4809 14.5311L65.0546 11.9007L65.8437 12.6728L63.2085 15.3661C62.7945 15.7892 62.3214 15.9867 61.7893 15.9586C61.2572 15.9304 60.7663 15.6963 60.3165 15.2562Z" fill="#20285C"/>
<path d="M64.8201 20.5111L65.4408 19.6487L64.1344 17.8389L63.1204 18.1565L62.4228 17.19L68.1106 15.5015L68.9112 16.6107L65.5225 21.4841L64.8201 20.5111ZM65.1772 17.5203L66.0762 18.7657L67.4819 16.8039L65.1772 17.5203Z" fill="#20285C"/>
<path d="M67.1349 22.3866L68.1038 24.2902L67.1627 24.7692L65.693 21.8817L70.6837 19.3415L71.1845 20.3254L67.1349 22.3866Z" fill="#20285C"/>
<path d="M73.082 24.4719L73.466 25.507L68.2156 27.4546L67.8316 26.4195L73.082 24.4719Z" fill="#20285C"/>
<path d="M75.0277 31.1487L74.0015 31.3977L73.6449 29.9284L69.2291 30.9999L68.9687 29.927L73.3846 28.8555L73.0299 27.3939L74.0562 27.1449L75.0277 31.1487Z" fill="#20285C"/>
<path d="M75.7144 37.9125L72.1543 36.2752L69.9774 36.4519L69.8888 35.3595L72.0656 35.1828L75.3157 33.0007L75.4167 34.2446L73.1867 35.6456L75.6134 36.6686L75.7144 37.9125Z" fill="#20285C"/>
</svg>
