<svg width="74" height="75" viewBox="0 0 74 75" fill="none" xmlns="http://www.w3.org/2000/svg">
<path fill-rule="evenodd" clip-rule="evenodd" d="M49.2038 26.4747C53.2078 29.9427 56.8268 34.7487 55.8318 40.1277C54.8688 45.3397 49.3188 47.9537 44.7218 50.7297C40.3768 53.3537 35.8018 56.2887 31.0368 55.0987C25.9268 53.8237 22.0488 49.6947 20.4768 44.6787C18.9328 39.7437 20.0468 34.2327 23.1268 29.8377C26.0528 25.6597 30.8388 23.4327 35.8128 22.7907C40.7328 22.1567 45.5628 23.3217 49.2038 26.4747Z" fill="#FBDEC6"/>
<path fill-rule="evenodd" clip-rule="evenodd" d="M2.66138 32.1935C2.22746 34.3952 2 36.671 2 38.9999C2 58.3298 17.67 73.9999 37 73.9999C56.33 73.9999 72 58.3298 72 38.9999C72 36.5576 71.7499 34.1737 71.2738 31.8726L69.3107 32.2578C69.7625 34.4343 70 36.6893 70 38.9999C70 57.2253 55.2254 71.9999 37 71.9999C18.7746 71.9999 4 57.2253 4 38.9999C4 36.7925 4.21671 34.6358 4.63003 32.5499L2.66138 32.1935Z" fill="#20285C"/>
<path d="M0.720713 28.0791L1.04738 27.0246L6.39662 28.6816L6.06995 29.7361L0.720713 28.0791Z" fill="#20285C"/>
<path d="M3.0937 21.9775L3.55508 20.9745L8.64261 23.3148L8.29156 24.0779L4.17792 24.8274L7.28858 26.2583L6.82721 27.2613L1.73967 24.921L2.09072 24.1579L6.1971 23.4051L3.0937 21.9775Z" fill="#20285C"/>
<path d="M10.3104 20.9247C10.0032 21.3865 9.64263 21.7072 9.22865 21.8866C8.81022 22.0631 8.38055 22.0976 7.93963 21.9901L8.0028 20.8983C8.59906 21.0323 9.07441 20.8328 9.42885 20.3C9.60016 20.0424 9.67906 19.8226 9.66555 19.6407C9.65204 19.4588 9.57423 19.3206 9.43213 19.226C9.26782 19.1168 9.09252 19.1059 8.90624 19.1933C8.71551 19.2779 8.44133 19.4734 8.08369 19.78C7.8827 19.9473 7.70239 20.0836 7.54275 20.1888C7.38606 20.2896 7.20791 20.3793 7.0083 20.4579C6.80721 20.5291 6.60162 20.5493 6.39154 20.5184C6.18146 20.4876 5.96984 20.4013 5.75669 20.2595C5.33481 19.9789 5.09848 19.6072 5.04769 19.1442C4.99541 18.6739 5.10957 18.2278 5.39016 17.8059C5.64122 17.4285 5.95452 17.1596 6.33006 16.9995C6.70412 16.8319 7.10862 16.7775 7.54357 16.8362L7.47594 17.9057C6.95222 17.8264 6.55449 17.9911 6.28276 18.3996C6.15575 18.5906 6.09974 18.7711 6.11471 18.9412C6.1282 19.1039 6.20378 19.231 6.34144 19.3226C6.48799 19.42 6.64776 19.4398 6.82077 19.382C6.99228 19.3167 7.24652 19.1463 7.58348 18.8708C7.72241 18.7582 7.82882 18.6753 7.90272 18.622C7.97514 18.5612 8.07934 18.4864 8.21533 18.3975C8.34984 18.3012 8.46144 18.2345 8.55016 18.1975C8.64182 18.156 8.75494 18.1159 8.8895 18.0773C9.02407 18.0387 9.14609 18.0238 9.25556 18.0325C9.36798 18.0368 9.49226 18.0619 9.6284 18.1076C9.76305 18.1459 9.89698 18.2093 10.0302 18.2979C10.461 18.5844 10.698 18.9695 10.7415 19.4532C10.7878 19.9324 10.6441 20.4229 10.3104 20.9247Z" fill="#20285C"/>
<path d="M8.99497 13.3746C9.35524 12.9742 9.79325 12.7584 10.309 12.7274C10.8247 12.6964 11.2789 12.8574 11.6714 13.2106C12.0639 13.5637 12.2719 13.9983 12.2954 14.5145C12.3189 15.0306 12.1505 15.4889 11.7903 15.8894L11.1322 16.6209L12.5001 17.8515L11.7617 18.6723L7.59849 14.9269L8.99497 13.3746ZM11.0231 15.1992C11.18 15.0247 11.2507 14.8265 11.2352 14.6045C11.2157 14.3789 11.1168 14.1859 10.9384 14.0254C10.756 13.8613 10.5536 13.7832 10.3312 13.7912C10.1088 13.7992 9.91914 13.8904 9.76219 14.0648L9.10408 14.7964L10.3649 15.9307L11.0231 15.1992Z" fill="#20285C"/>
<path d="M11.4693 10.9017L12.2964 10.1704L16.0058 14.3657L15.1787 15.097L11.4693 10.9017Z" fill="#20285C"/>
<path d="M20.1973 11.2947L18.1722 10.3196L17.4772 10.7914L18.5689 12.3999L17.6554 13.0199L14.5106 8.38628L16.364 7.12834C16.7921 6.83782 17.258 6.74077 17.7617 6.83718C18.2655 6.93359 18.6611 7.19362 18.9486 7.61726C19.1433 7.9041 19.2429 8.22649 19.2473 8.58444C19.2488 8.93797 19.1568 9.26786 18.9715 9.57412L21.1836 10.6253L20.1973 11.2947ZM16.0036 8.6202L16.9336 9.99041L17.8736 9.35246C18.0457 9.23565 18.1486 9.06912 18.1823 8.85287C18.213 8.63221 18.164 8.427 18.0352 8.23724C17.9064 8.04749 17.7353 7.92835 17.5219 7.87982C17.3084 7.8313 17.1157 7.86544 16.9436 7.98225L16.0036 8.6202Z" fill="#20285C"/>
<path d="M19.3715 5.38205L20.3563 4.88296L22.8879 9.87806L21.9031 10.3771L19.3715 5.38205Z" fill="#20285C"/>
<path d="M25.3142 2.87857L26.3544 2.50883L28.2299 7.78545L27.4384 8.06677L24.0303 5.64426L25.177 8.87054L24.1367 9.24027L22.2613 3.96366L23.0528 3.68234L26.4582 6.0973L25.3142 2.87857Z" fill="#20285C"/>
<path d="M34.3291 3.6551L34.3951 4.08203C34.5172 4.87265 34.3631 5.55214 33.9329 6.12049C33.5026 6.68885 32.8869 7.03491 32.0857 7.15867C31.2318 7.29058 30.4802 7.12338 29.8307 6.65707C29.1857 6.18467 28.8013 5.54789 28.6775 4.74673C28.5529 3.9403 28.7242 3.21498 29.1913 2.57078C29.6637 1.92576 30.3111 1.53974 31.1333 1.41272C31.6498 1.33292 32.1399 1.37864 32.6035 1.54987C33.0662 1.71583 33.4463 1.97551 33.7438 2.32891L32.8939 3.01066C32.7271 2.80437 32.4983 2.65083 32.2075 2.55005C31.922 2.44845 31.6159 2.42289 31.2891 2.47337C30.762 2.5548 30.354 2.79591 30.0651 3.19671C29.7807 3.59142 29.6792 4.05232 29.7607 4.5794C29.8413 5.10121 30.0794 5.50696 30.4749 5.79663C30.8749 6.08022 31.3595 6.17805 31.9287 6.09011C32.3504 6.02497 32.684 5.87899 32.9296 5.65217C33.1796 5.41927 33.3295 5.13169 33.3792 4.78943L31.703 5.04836L31.554 4.0838L34.3291 3.6551Z" fill="#20285C"/>
<path d="M39.705 6.67314L39.0582 0.893848L40.2031 1.08043L40.5932 5.3508L42.4139 1.44074L43.3456 1.59258L43.8384 5.87968L45.5643 1.95418L46.7092 2.14076L44.2609 7.41563L43.0212 7.2136L42.5735 3.39587L40.9446 6.87517L39.705 6.67314Z" fill="#20285C"/>
<path d="M49.9241 9.21709L49.9832 8.15621L47.9083 7.33365L47.2245 8.14687L46.1164 7.70758L50.0022 3.22406L51.2739 3.72821L51.0396 9.65933L49.9241 9.21709ZM48.6158 6.50401L50.0437 7.07007L50.173 4.66008L48.6158 6.50401Z" fill="#20285C"/>
<path d="M53.0279 9.89449L54.8665 10.9817L54.329 11.8907L51.5401 10.2415L54.3905 5.42123L55.3407 5.98316L53.0279 9.89449Z" fill="#20285C"/>
<path d="M56.9618 12.4938L58.6219 13.8379L57.9574 14.6586L55.4393 12.6198L58.9631 8.26753L59.8212 8.96222L56.9618 12.4938Z" fill="#20285C"/>
<path d="M63.1851 20.5532L63.7866 19.6773L62.4406 17.8968L61.4339 18.2366L60.7151 17.2857L66.3644 15.4724L67.1893 16.5637L63.9087 21.5105L63.1851 20.5532ZM63.4762 17.5553L64.4024 18.7806L65.7645 16.7883L63.4762 17.5553Z" fill="#20285C"/>
<path d="M65.9738 25.4629L67.1773 23.5646L66.7894 22.8196L65.065 23.7173L64.5552 22.738L69.5224 20.1521L70.5568 22.139C70.7957 22.5978 70.838 23.0718 70.6838 23.561C70.5296 24.0502 70.2254 24.4129 69.7713 24.6494C69.4638 24.8095 69.132 24.8709 68.776 24.8338C68.4247 24.7942 68.1077 24.6646 67.825 24.445L66.5242 26.5202L65.9738 25.4629ZM69.1168 21.6079L67.648 22.3726L68.1726 23.3802C68.2686 23.5647 68.4221 23.6862 68.6329 23.7448C68.8486 23.8009 69.0581 23.776 69.2615 23.6701C69.4649 23.5642 69.6031 23.4081 69.6761 23.2018C69.749 22.9954 69.7375 22.8 69.6414 22.6155L69.1168 21.6079Z" fill="#20285C"/>
<path d="M73.1341 28.8107L72.1328 29.1461L71.6526 27.7123L67.3439 29.1555L66.9932 28.1087L71.302 26.6655L70.8243 25.2394L71.8256 24.904L73.1341 28.8107Z" fill="#20285C"/>
<path fill-rule="evenodd" clip-rule="evenodd" d="M48.55 33.6018C48.55 30.5248 47.3375 27.5739 45.1791 25.3981C43.0208 23.2223 40.0934 22 37.041 22C33.9887 22 31.0613 23.2223 28.903 25.3981C26.7446 27.5739 25.532 30.5248 25.532 33.6018C25.8154 36.5392 27.0411 39.3035 29.0232 41.4755L29.822 42.5194C30.018 42.8215 30.1863 43.141 30.325 43.4738C30.4742 43.8103 30.593 44.1597 30.68 44.5176V44.8755C30.7785 45.2241 30.9281 45.5558 31.1238 45.8598C31.275 46.0814 31.4432 46.2908 31.6268 46.4861C31.7141 46.4861 31.7808 46.59 31.8512 46.6996C31.9001 46.7758 31.9508 46.8547 32.0114 46.9036C32.7398 47.5224 33.6624 47.8606 34.615 47.858H39.4375C40.3395 47.8335 41.2076 47.5064 41.9043 46.9283C42.601 46.3502 43.0864 45.5544 43.2837 44.6668C43.4403 43.9515 43.7316 43.2732 44.1417 42.6685L44.9405 41.6247C46.9991 39.432 48.2698 36.6075 48.55 33.6018ZM34.7037 46.0685C34.1644 46.0647 33.6424 45.8753 33.2244 45.5317C32.8009 45.1707 32.5092 44.6773 32.396 44.1299C32.3067 43.6554 32.1576 43.1944 31.9522 42.758C31.7319 42.2964 31.4534 41.8654 31.1238 41.4755L30.3546 40.4018C28.6591 38.5117 27.5935 36.1337 27.3072 33.6018C27.3072 32.3132 27.559 31.0373 28.0482 29.8468C28.5373 28.6563 29.2543 27.5746 30.1582 26.6634C31.0621 25.7523 32.1351 25.0295 33.3161 24.5364C34.497 24.0433 35.7628 23.7895 37.041 23.7895C38.3193 23.7895 39.585 24.0433 40.766 24.5364C41.947 25.0295 43.02 25.7523 43.9239 26.6634C44.8278 27.5746 45.5448 28.6563 46.0339 29.8468C46.5231 31.0373 46.7749 32.3132 46.7749 33.6018C46.4555 36.1477 45.3477 38.5273 43.6092 40.4018L42.8399 41.5054C42.5472 41.888 42.3082 42.3095 42.1298 42.758C42.0235 43.01 41.9346 43.2691 41.8636 43.5334C41.7909 43.7279 41.7316 43.9272 41.6861 44.1299C41.5445 44.6657 41.2577 45.1511 40.8576 45.5317C40.4396 45.8753 39.9177 46.0647 39.3783 46.0685H34.7037ZM33.8754 50.7213H40.2068C40.4422 50.7213 40.668 50.6271 40.8344 50.4593C41.0009 50.2915 41.0944 50.0639 41.0944 49.8266C41.0985 49.708 41.0784 49.5898 41.0353 49.4793C40.9921 49.3689 40.9269 49.2686 40.8436 49.1846C40.7604 49.1007 40.6609 49.035 40.5513 48.9915C40.4418 48.948 40.3245 48.9277 40.2068 48.9319H33.8754C33.7577 48.9277 33.6405 48.948 33.5309 48.9915C33.4214 49.035 33.3219 49.1007 33.2386 49.1846C33.1553 49.2686 33.0901 49.3689 33.047 49.4793C33.0038 49.5898 32.9837 49.708 32.9878 49.8266C32.9878 50.0639 33.0813 50.2915 33.2478 50.4593C33.4142 50.6271 33.64 50.7213 33.8754 50.7213ZM33.7568 51.6456H40.3249C40.5603 51.6456 40.7861 51.7398 40.9526 51.9076C41.119 52.0754 41.2125 52.303 41.2125 52.5403C41.2167 52.6589 41.1965 52.7771 41.1534 52.8876C41.1102 52.998 41.045 53.0983 40.9617 53.1823C40.8785 53.2662 40.779 53.3319 40.6694 53.3754C40.5599 53.4189 40.4426 53.4392 40.3249 53.4351H33.7568C33.6391 53.4392 33.5219 53.4189 33.4123 53.3754C33.3028 53.3319 33.2033 53.2662 33.12 53.1823C33.0368 53.0983 32.9715 52.998 32.9284 52.8876C32.8852 52.7771 32.8651 52.6589 32.8692 52.5403C32.8692 52.4228 32.8922 52.3065 32.9368 52.1979C32.9814 52.0894 33.0468 51.9907 33.1292 51.9076C33.2116 51.8245 33.3095 51.7586 33.4172 51.7137C33.5248 51.6687 33.6403 51.6456 33.7568 51.6456ZM39.2008 54.2104H34.9108C34.6754 54.2104 34.4496 54.3046 34.2832 54.4724C34.1167 54.6402 34.0232 54.8678 34.0232 55.1051C34.0232 55.3424 34.1167 55.57 34.2832 55.7378C34.4496 55.9056 34.6754 55.9998 34.9108 55.9998H39.2008C39.4362 55.9998 39.6619 55.9056 39.8284 55.7378C39.9948 55.57 40.0884 55.3424 40.0884 55.1051C40.0884 54.8678 39.9948 54.6402 39.8284 54.4724C39.6619 54.3046 39.4362 54.2104 39.2008 54.2104ZM40.917 33.3333V35.421C40.8324 36.3944 40.389 37.3006 39.6743 37.9607C38.9596 38.6208 38.0254 38.987 37.0561 38.987C36.0867 38.987 35.1525 38.6208 34.4378 37.9607C33.7231 37.3006 33.2797 36.3944 33.1951 35.421V33.3333C33.1951 33.096 33.2886 32.8684 33.455 32.7006C33.6215 32.5328 33.8472 32.4385 34.0826 32.4385C34.318 32.4385 34.5438 32.5328 34.7103 32.7006C34.8767 32.8684 34.9702 33.096 34.9702 33.3333V35.421C35.0154 35.9383 35.2616 36.4166 35.655 36.7518C36.0485 37.0869 36.5574 37.2518 37.0708 37.2105C37.3235 37.2308 37.5777 37.2006 37.8188 37.1216C38.0599 37.0425 38.2831 36.9162 38.4755 36.7499C38.668 36.5836 38.826 36.3806 38.9403 36.1525C39.0547 35.9245 39.1232 35.6758 39.1419 35.421V33.3333C39.1493 33.0983 39.2452 32.8751 39.41 32.7089C39.5749 32.5427 39.7964 32.446 40.0295 32.4385C40.2649 32.4385 40.4906 32.5328 40.6571 32.7006C40.8235 32.8684 40.917 33.096 40.917 33.3333Z" fill="#20285C"/>
</svg>
