<svg width="73" height="74" viewBox="0 0 73 74" fill="none" xmlns="http://www.w3.org/2000/svg">
<path fill-rule="evenodd" clip-rule="evenodd" d="M45.9492 21.1252C50.9232 24.4822 55.7292 29.4682 55.6602 35.9202C55.5942 42.1722 50.0872 46.1842 45.6402 50.2202C41.4352 54.0352 37.0422 58.2522 31.6722 57.6882C25.9142 57.0822 20.9522 52.9322 18.3192 47.3482C15.7272 41.8532 15.9012 35.2262 18.4072 29.5622C20.7872 24.1782 25.5422 20.7502 30.7952 19.1402C35.9912 17.5482 41.4262 18.0722 45.9492 21.1252Z" fill="#D1DDC7"/>
<path fill-rule="evenodd" clip-rule="evenodd" d="M1.46596 32.2748C1.15943 34.1378 1 36.0503 1 38C1 57.33 16.67 73 36 73C55.33 73 71 57.33 71 38C71 35.7364 70.7851 33.523 70.3746 31.379L68.406 31.7347C68.7959 33.7632 69 35.8578 69 38C69 56.2254 54.2254 71 36 71C17.7746 71 3 56.2254 3 38C3 36.1505 3.15215 34.3365 3.44462 32.5699L1.46596 32.2748Z" fill="#20285C"/>
<path d="M4.73991 28.1126L5.43457 26.0927L6.43317 26.4362L5.37947 29.5L0.0838872 27.6788L0.442925 26.6348L4.73991 28.1126Z" fill="#20285C"/>
<path d="M2.0608 22.4665L2.53366 21.4689L7.59399 23.8674L7.12113 24.865L2.0608 22.4665Z" fill="#20285C"/>
<path d="M6.25396 17.1675L5.06313 19.0648L6.18792 19.7708L7.34473 17.9277L8.23915 18.4891L7.08234 20.3321L8.91182 21.4805L8.32491 22.4155L3.58181 19.4384L5.35955 16.6061L6.25396 17.1675Z" fill="#20285C"/>
<path d="M10.7107 17.1302L12.2363 15.3297L13.042 16.0123L10.8027 18.6552L6.53013 15.035L8.74358 12.4227L9.54926 13.1053L8.04949 14.8754L8.95893 15.646L10.3294 14.0285L11.1229 14.7008L9.7524 16.3183L10.7107 17.1302Z" fill="#20285C"/>
<path d="M12.8872 8.59719L13.5867 9.3883L12.454 10.3898L15.4639 13.794L14.6368 14.5253L11.6269 11.1211L10.5001 12.1173L9.80067 11.3262L12.8872 8.59719Z" fill="#20285C"/>
<path d="M14.2609 7.62964L15.1653 6.99643L18.3772 11.5838L17.4729 12.217L14.2609 7.62964Z" fill="#20285C"/>
<path d="M21.7644 3.32252L24.296 8.31761L23.3184 8.81308L21.6764 5.57341L21.4461 8.60503L21.3319 8.66289L18.7543 7.06335L20.3927 10.2959L19.4079 10.795L16.8763 5.79988L17.8896 5.28633L20.521 6.92136L20.7511 3.83607L21.7644 3.32252Z" fill="#20285C"/>
<path d="M26.1654 6.6466L28.4217 5.95477L28.7313 6.96437L25.4195 7.97984L23.7778 2.62587L27.0514 1.62213L27.361 2.63173L25.1429 3.31184L25.4923 4.45147L27.5192 3.82999L27.8241 4.8243L25.7972 5.44578L26.1654 6.6466Z" fill="#20285C"/>
<path d="M33.1508 6.15563L31.5245 0.572271L32.6844 0.560181L33.7997 4.70078L34.9243 0.536837L35.8683 0.526999L37.0875 4.66652L38.1161 0.503571L39.2761 0.491482L37.7665 6.10752L36.5106 6.12061L35.4161 2.43581L34.4067 6.14254L33.1508 6.15563Z" fill="#20285C"/>
<path d="M44.1892 7.0974L44.0643 6.04224L41.8785 5.59024L41.3453 6.50931L40.178 6.26791L43.2315 1.18087L44.5711 1.45791L45.3643 7.34042L44.1892 7.0974ZM42.4322 4.6509L43.9364 4.96196L43.6476 2.56584L42.4322 4.6509Z" fill="#20285C"/>
<path d="M49.663 9.02423L49.3309 6.80135L48.55 6.49178L47.8336 8.29896L46.8073 7.8921L48.871 2.68625L50.9534 3.51176C51.4343 3.70242 51.7765 4.03314 51.98 4.50394C52.1835 4.97473 52.1909 5.44811 52.0022 5.92407C51.8744 6.24634 51.6638 6.50993 51.3703 6.71486C51.0787 6.91482 50.7542 7.02426 50.3968 7.04319L50.7711 9.46352L49.663 9.02423ZM49.517 4.05247L48.9067 5.59192L49.9628 6.01057C50.1561 6.08722 50.3517 6.0787 50.5495 5.98499C50.7492 5.88633 50.8914 5.73041 50.9759 5.51721C51.0604 5.30402 51.0627 5.09554 50.9829 4.89177C50.903 4.688 50.7664 4.54778 50.5731 4.47113L49.517 4.05247Z" fill="#20285C"/>
<path d="M54.4306 11.7319L54.4832 9.48498L53.7667 9.04652L52.752 10.7047L51.8103 10.1284L54.7334 5.35184L56.644 6.52107C57.0853 6.79111 57.366 7.17545 57.486 7.67409C57.606 8.17273 57.5324 8.64041 57.2652 9.07713C57.0842 9.37282 56.8316 9.59654 56.5074 9.74829C56.186 9.89548 55.8475 9.94786 55.4921 9.90542L55.4474 12.3541L54.4306 11.7319ZM55.1364 6.80836L54.272 8.22086L55.241 8.81382C55.4184 8.92239 55.6125 8.94742 55.8234 8.88889C56.0371 8.82582 56.2038 8.69648 56.3235 8.50086C56.4432 8.30525 56.4811 8.10024 56.4373 7.88581C56.3934 7.67139 56.2828 7.50989 56.1054 7.40132L55.1364 6.80836Z" fill="#20285C"/>
<path d="M58.5183 15.0922L58.9318 14.1135L57.256 12.6392L56.3379 13.1741L55.443 12.3868L60.6134 9.47679L61.6405 10.3804L59.4193 15.8848L58.5183 15.0922ZM58.2019 12.0969L59.3552 13.1114L60.2898 10.8863L58.2019 12.0969Z" fill="#20285C"/>
<path d="M66.2439 15.4288L66.9351 16.2897L62.5682 19.7955L62.0423 19.1405L63.2099 15.1254L60.5398 17.269L59.8487 16.4081L64.2156 12.9023L64.7414 13.5573L63.5801 17.5674L66.2439 15.4288Z" fill="#20285C"/>
<path d="M69.919 21.2637L69.0026 21.7883L68.2514 20.4762L64.3079 22.7339L63.7594 21.7758L67.7028 19.5181L66.9556 18.2128L67.872 17.6882L69.919 21.2637Z" fill="#20285C"/>
<path d="M72.4681 27.5811L68.5927 27.0009L66.5513 27.7773L66.1617 26.7529L68.2031 25.9765L70.7162 22.975L71.1599 24.1415L69.4087 26.1085L72.0244 26.4146L72.4681 27.5811Z" fill="#20285C"/>
<path d="M36 52.1667C36 52.1667 47.3333 46.5 47.3333 38V28.0834L36 23.8334L24.6667 28.0834V38C24.6667 46.5 36 52.1667 36 52.1667Z" stroke="#20285C" stroke-width="2" stroke-linecap="round" stroke-linejoin="round"/>
</svg>
