<svg width="70" height="73" viewBox="0 0 70 73" fill="none" xmlns="http://www.w3.org/2000/svg">
<path fill-rule="evenodd" clip-rule="evenodd" d="M25.1512 46.9384C21.8352 44.2313 19.3742 40.463 19.1432 36.1257C18.9002 31.5623 21.4062 29.2487 24.7612 26.3812C28.1692 23.4678 32.0312 20.0631 36.3142 21.4471C40.3062 22.7374 42.2942 26.9202 44.2572 30.7762C46.3332 34.8544 49.1732 39.2474 47.5122 43.4471C45.7972 47.7813 41.0002 49.6207 36.5262 50.3201C32.4582 50.9548 28.4292 49.6177 25.1502 46.9394L25.1512 46.9384Z" fill="#F8CABC"/>
<path fill-rule="evenodd" clip-rule="evenodd" d="M5.54604 18.0132C2.0362 23.4674 0 29.9598 0 36.9278C0 56.2578 15.67 71.9278 35 71.9278C54.33 71.9278 70 56.2578 70 36.9278C70 30.6006 68.3211 24.6655 65.3844 19.5438L63.6428 20.5277C66.4149 25.3589 68 30.9583 68 36.9278C68 55.1532 53.2254 69.9278 35 69.9278C16.7746 69.9278 2 55.1532 2 36.9278C2 30.3439 3.92809 24.2104 7.25042 19.061L5.54604 18.0132Z" fill="#20285C"/>
<path fill-rule="evenodd" clip-rule="evenodd" d="M43.7715 20.0511C43.1992 20.1617 42.7579 20.5221 42.3706 21.1953C42.0198 21.8049 40.3101 25.3614 39.9315 26.2685C39.4582 27.403 38.9936 28.0708 38.8073 27.8848C38.7747 27.8523 38.7306 27.3525 38.7093 26.7741C38.6656 25.5903 38.584 25.3306 38.1309 24.9327C37.735 24.5851 37.189 24.3639 36.0184 24.077C34.8657 23.7945 34.6199 23.7965 34.2699 24.091C34.026 24.2963 32.288 26.667 31.3601 28.0605C30.557 29.2663 30.152 29.6854 29.3129 30.1793C28.3826 30.7269 28.2839 30.8839 28.0626 32.1708C27.9186 33.0075 27.9198 33.3526 28.0683 33.8526C28.3237 34.7123 29.2387 35.1783 30.0895 34.8817C30.3034 34.8071 30.3374 34.8186 30.5105 35.0244C30.9859 35.5893 31.9046 35.7449 32.6401 35.385C32.8609 35.2771 33.1123 35.1128 33.1991 35.0201C33.5118 34.6856 33.874 33.9845 34.0004 33.4688C34.1115 33.0158 34.1165 32.8845 34.0366 32.524C33.9857 32.2938 33.9004 32.0219 33.8472 31.9199C33.7611 31.7545 33.7746 31.689 33.9719 31.318C34.0936 31.0889 34.3248 30.773 34.4857 30.6159C34.8449 30.2652 34.8913 30.2974 35.2185 31.1264C35.5132 31.8731 35.7744 32.3864 35.9219 32.5088C36.088 32.6466 36.0717 32.6849 35.7804 32.8418C35.4059 33.0435 34.6796 33.8286 34.452 34.2779C34.3442 34.4906 34.2047 34.8904 34.1421 35.1663C34.0795 35.4421 34.0127 35.7204 33.9938 35.7845C33.931 35.9974 33.4846 36.3896 33.0956 36.5738C32.6254 36.7964 32.4813 36.9484 32.4327 37.273C32.3604 37.7561 32.8323 38.2199 33.3012 38.1265C33.6705 38.0529 34.3406 37.6867 34.7043 37.3598C35.1383 36.9696 35.4636 36.3443 35.636 35.5689C35.8023 34.8204 36.1711 34.3692 36.9309 33.9847C38.1153 33.3852 38.3472 32.736 37.7782 31.613C37.5684 31.1991 37.2811 30.955 37.0038 30.955C36.8247 30.955 36.783 30.9055 36.6451 30.5283C36.4071 29.8769 36.0365 29.3151 35.6801 29.0653C35.3934 28.8644 35.2995 28.8398 34.8202 28.8398C34.3223 28.8398 34.2507 28.8606 33.8627 29.1182C33.36 29.452 32.8642 30.0622 32.5212 30.7695C32.1294 31.5772 32.124 31.8189 32.4783 32.6992C32.6053 33.0148 32.4575 33.5124 32.1433 33.8265C32.0082 33.9616 31.8671 34.0722 31.8297 34.0722C31.7924 34.0722 31.7077 33.9587 31.6415 33.8198C31.346 33.2001 30.6451 32.9652 29.9649 33.2578C29.7518 33.3495 29.5558 33.4027 29.5292 33.3761C29.479 33.3259 29.6277 31.8778 29.694 31.7704C29.7147 31.7369 30.0069 31.5512 30.3434 31.3578C31.1665 30.8844 31.6995 30.321 32.6228 28.948C33.2772 27.9748 34.8915 25.713 35.0754 25.5116C35.1414 25.4393 36.5078 25.7767 36.8929 25.9603C37.0608 26.0404 37.1543 26.1382 37.1578 26.2373C37.1609 26.3216 37.1742 26.758 37.1876 27.207C37.203 27.7222 37.2568 28.1466 37.3337 28.3574C37.5941 29.0711 38.3413 29.5351 39.0877 29.4467C40.0002 29.3386 40.6168 28.6287 41.381 26.8065C41.9136 25.5363 43.7181 21.8658 43.8988 21.6852C44.0918 21.4921 44.2114 21.4891 44.4361 21.6714C44.6073 21.8102 44.6113 21.8413 44.6113 23.0259C44.6113 24.2056 44.6169 24.249 44.8172 24.6375C44.9305 24.8571 45.3171 25.3915 45.6765 25.825C46.8994 27.3003 47.1944 27.7674 47.3196 28.4277C47.4187 28.9505 47.7155 29.449 48.0122 29.5912C48.233 29.6969 48.2484 29.7299 48.2541 30.1075C48.2653 30.856 48.8496 31.3271 49.9551 31.4787C50.2816 31.5235 50.6479 31.5836 50.769 31.6122L50.9892 31.6643L50.7319 31.8444C50.5904 31.9435 50.0007 32.4055 49.4215 32.8711C47.8769 34.1129 47.8391 34.2704 48.8328 35.3222C49.5985 36.1327 49.8438 36.4566 49.8438 36.6575C49.8438 36.745 49.7197 37.1092 49.568 37.4668C49.3067 38.0828 49.2919 38.1603 49.2896 38.9335C49.2873 39.6864 49.3038 39.784 49.5019 40.1874C49.8373 40.8704 50.4336 41.3943 51.2333 41.7084L51.5811 41.8451L50.9166 41.8978C50.5511 41.9267 49.9265 41.998 49.5288 42.0562C48.3211 42.233 48.0257 42.2064 47.0395 41.8316C46.059 41.459 45.3944 41.2714 45.0545 41.2714C44.7367 41.2714 44.1007 41.4689 43.593 41.7251C43.3594 41.843 43.1163 41.9394 43.0527 41.9394C42.9892 41.9394 42.7294 41.8328 42.4754 41.7025C42.1244 41.5224 41.9158 41.4651 41.6055 41.4634C40.8322 41.4594 40.5706 41.7544 39.9327 43.3496C39.5636 44.2725 39.4976 44.5112 39.469 45.0262C39.4414 45.5242 39.4625 45.6871 39.5923 45.9806C39.6784 46.1752 39.7317 46.3621 39.7108 46.3959C39.69 46.4296 39.4147 46.5128 39.0991 46.5805C37.8827 46.8418 37.5493 46.9771 37.1895 47.3556C36.9901 47.5653 36.9668 47.639 36.9668 48.0603C36.9668 48.5075 36.9861 48.5583 37.3564 49.0888C37.768 49.6783 37.7914 49.7519 37.6696 50.0723L37.5931 50.2735L37.4148 50.106C37.3167 50.0138 37.0686 49.6646 36.8633 49.33C36.6581 48.9954 36.3723 48.5732 36.2282 48.392C35.9923 48.0952 35.9662 48.0167 35.9656 47.6021C35.9648 47.0783 35.9012 46.9007 35.4974 46.2943C34.8805 45.3676 33.6678 44.2719 32.7363 43.7998C31.9554 43.404 31.1795 43.5228 30.7805 44.0993C30.6255 44.3231 30.6103 44.41 30.6453 44.871C30.667 45.1568 30.7357 45.5326 30.798 45.706C30.8604 45.8794 30.8966 46.0214 30.8785 46.0214C30.8604 46.0214 30.7287 45.7893 30.5858 45.5055C30.2922 44.9224 29.9554 44.5062 29.6489 44.3477C29.2976 44.166 28.6821 44.2133 28.0065 44.4738L27.4006 44.7075L26.8028 44.607C25.7051 44.4224 25.4333 44.5053 24.8184 45.2119C24.5118 45.5643 24.3052 45.7202 23.8915 45.9108C23.2824 46.1915 22.9399 46.4866 21.9532 47.58C20.9513 48.6903 21.0267 48.6557 19.8466 48.5465L18.8735 48.4564L18.4782 48.0294C18.2608 47.7945 17.9651 47.5222 17.8213 47.4242C17.6773 47.3262 17.5594 47.2061 17.5591 47.1573C17.5576 46.8981 18.8951 44.3721 19.2148 44.0304C19.3294 43.908 19.4307 43.8687 19.5637 43.8953C19.6667 43.9159 20.3586 44.219 21.1014 44.5689C21.844 44.9188 22.5347 45.205 22.6364 45.205C23.0179 45.205 23.1785 45.0511 23.5999 44.2815C24.1365 43.3014 24.3125 42.7819 24.3125 42.1778C24.3125 41.7187 24.325 41.6853 24.5908 41.4337C24.9653 41.0794 26.1263 40.2211 26.9638 39.6794C27.7033 39.2012 27.8505 38.9994 27.7707 38.5739C27.7147 38.2752 27.5407 38.1016 27.1987 38.0031C26.9877 37.9423 26.8904 37.96 26.5936 38.1136L26.24 38.2967L26.4548 38.0214C26.8882 37.4659 27.0116 36.6628 26.8051 35.7421C26.7501 35.4972 26.5941 34.9217 26.4585 34.4633L26.2119 33.6296L26.3763 32.7933C26.4667 32.3333 26.5402 31.8902 26.5394 31.8085C26.5346 31.2235 26.1046 30.6325 25.4809 30.3534C25.1565 30.2083 24.9671 30.1791 24.3427 30.1783C23.6554 30.1774 23.5578 30.1958 23.1577 30.4003C22.8251 30.5705 22.6686 30.7092 22.4977 30.9857C22.2471 31.391 22.2182 31.7682 22.3378 33.0703C22.4086 33.8416 22.3788 33.9437 21.5666 35.705C20.7925 37.3835 20.6898 37.8767 20.9942 38.4522C21.2899 39.0116 21.5233 39.0826 23.0508 39.0781C24.2265 39.0747 24.8987 39.0074 25.3145 38.8516C25.3961 38.821 25.0621 39.0967 24.5723 39.4642C23.144 40.5358 22.8619 40.9307 22.7626 41.9973C22.7192 42.4632 22.6471 42.7531 22.5052 43.0321L22.3081 43.4198L21.7703 43.1705C21.4745 43.0335 21.0487 42.8354 20.8242 42.7303C20.2386 42.4565 19.5231 42.2876 19.2011 42.3472C18.7442 42.4319 18.2234 42.7659 17.9287 43.1633C17.5867 43.6245 16.6254 45.3487 16.2938 46.0956C15.9708 46.8234 15.9185 47.4262 16.1408 47.8619C16.2269 48.0307 16.5059 48.3402 16.761 48.5498C17.016 48.7595 17.403 49.1285 17.6212 49.3699C17.8392 49.6112 18.0897 49.8479 18.1778 49.8959C18.2658 49.9437 18.6719 50.0076 19.0801 50.0378C19.4883 50.0679 20.0895 50.1153 20.416 50.1429C21.4904 50.2342 21.9215 49.9597 23.491 48.1851C23.9833 47.6283 24.1098 47.5316 24.7373 47.2325C25.34 46.9451 25.4814 46.8407 25.7688 46.4705L26.1019 46.0415L26.5617 46.1402C27.2885 46.2962 27.675 46.2697 28.295 46.0214C28.6009 45.899 28.8802 45.7988 28.9159 45.7988C28.9516 45.7988 29.1191 46.0647 29.2883 46.3898C29.5484 46.8899 29.7464 47.1267 30.5754 47.9298C31.7674 49.0846 32.0638 49.2977 32.5415 49.3436C32.8612 49.3743 32.9283 49.3534 33.1525 49.1531C33.5223 48.8226 33.4888 48.5614 32.8572 46.8569C32.5662 46.0714 32.3281 45.4105 32.3281 45.3884C32.3281 45.2111 33.6171 46.3782 34.1207 47.0115C34.3654 47.3194 34.4062 47.4233 34.4062 47.7394C34.4062 48.2947 34.5364 48.704 34.8415 49.108C34.9928 49.3086 35.373 49.8611 35.6862 50.3361C36.0058 50.8206 36.3912 51.3068 36.5643 51.4439C37.6409 52.2966 38.9436 51.6635 39.2286 50.1492C39.3355 49.5815 39.2401 49.0989 38.9305 48.6401C38.8097 48.4611 38.7109 48.3028 38.7109 48.288C38.7109 48.2733 39.0119 48.192 39.3797 48.1073C40.1304 47.9345 40.513 47.7618 40.9021 47.4201C41.4498 46.9392 41.5263 46.4124 41.1608 45.6394C41.0342 45.3719 40.9558 45.1056 40.9785 45.0204C41.0005 44.9383 41.174 44.4668 41.364 43.9728L41.7094 43.0745L42.1214 43.2661C42.4386 43.4136 42.6525 43.458 43.0527 43.4592C43.5152 43.4607 43.6472 43.4251 44.2547 43.1351C45.0733 42.7443 45.0642 42.7437 46.4865 43.2789C47.7143 43.7409 48.2606 43.8023 49.4973 43.6172C49.9394 43.551 50.7804 43.4628 51.3661 43.4213C52.5327 43.3383 52.9746 43.2358 53.412 42.9464C54.4113 42.285 54.076 40.8505 52.8496 40.5402C52.6863 40.4988 52.328 40.4092 52.0533 40.3409C51.1193 40.1086 50.6262 39.4433 50.8053 38.6568C50.845 38.4824 50.995 38.0559 51.1385 37.7089C51.6041 36.5841 51.4494 35.8927 50.5002 34.8569C50.25 34.5839 50.0752 34.3351 50.1115 34.3041C50.6072 33.8821 51.4248 33.2473 51.6407 33.1168C52.3866 32.6661 52.7708 31.6801 52.4757 30.9739C52.2261 30.3766 51.8524 30.1748 50.7197 30.0254C50.2635 29.9652 49.8715 29.9159 49.8485 29.9157C49.8255 29.9157 49.8066 29.701 49.8066 29.4387C49.8066 28.8715 49.6607 28.6207 49.1992 28.3945C48.9287 28.2619 48.8832 28.1997 48.774 27.8125C48.5454 27.0011 48.0444 26.2257 46.7895 24.7405C46.471 24.3636 46.1886 23.9682 46.162 23.8619C46.1353 23.7556 46.1359 23.2624 46.1634 22.7659C46.203 22.0493 46.1893 21.7836 46.097 21.4768C45.7939 20.4707 44.7889 19.8545 43.7715 20.0511ZM23.8716 31.7627C23.7808 31.824 23.778 31.9339 23.8531 32.498C24.0341 33.8576 23.9729 34.1333 23.02 36.2511C22.7103 36.9393 22.457 37.52 22.457 37.5418C22.457 37.5635 22.9173 37.5647 23.4798 37.5445C24.5823 37.5048 25.106 37.3611 25.271 37.0528C25.4221 36.7705 25.3553 36.1878 25.0583 35.1976C24.6547 33.8519 24.6258 33.5137 24.8348 32.5917C24.928 32.1808 24.9808 31.8213 24.9523 31.7928C24.8684 31.7089 23.9881 31.6844 23.8716 31.7627ZM29.6814 37.0361C29.1548 37.3572 29.2527 38.1825 29.8404 38.3765C30.1681 38.4846 30.4332 38.4081 30.6584 38.1404C30.875 37.8831 30.8975 37.563 30.7202 37.2629C30.4963 36.8839 30.08 36.7931 29.6814 37.0361Z" fill="#20285C"/>
<path d="M12.9552 8.96987L16.5675 13.2491L15.73 13.956L13.3872 11.1807L13.86 14.184L13.7622 14.2666L10.886 13.3025L13.2236 16.0718L12.38 16.7839L8.76774 12.5047L9.6358 11.772L12.5726 12.7582L12.0872 9.70265L12.9552 8.96987Z" fill="#20285C"/>
<path d="M20.7111 11.0769L19.9232 10.364L17.9792 11.4606L18.1817 12.5037L17.1435 13.0893L16.0994 7.2488L17.2909 6.5767L21.7563 10.4873L20.7111 11.0769ZM17.7787 10.3888L19.1166 9.63418L17.3235 8.01868L17.7787 10.3888Z" fill="#20285C"/>
<path d="M23.1632 4.16963C23.8887 3.91768 24.5817 3.96216 25.242 4.30305C25.9074 4.6422 26.3696 5.1846 26.6286 5.93025C26.8875 6.6759 26.861 7.38801 26.549 8.06658C26.242 8.7434 25.7258 9.20778 25.0003 9.45972L22.8994 10.1893L21.0623 4.89921L23.1632 4.16963ZM24.6539 8.46216C25.1124 8.30295 25.4327 8.02233 25.6149 7.62031C25.7953 7.21326 25.8007 6.76538 25.631 6.27667C25.4613 5.78797 25.1804 5.44233 24.7882 5.23977C24.3943 5.03217 23.9681 5.00797 23.5096 5.16719L22.4516 5.5346L23.5959 8.82958L24.6539 8.46216Z" fill="#20285C"/>
<path d="M29.5613 7.309L31.89 6.92592L32.0614 7.96791L28.6433 8.5302L27.7343 3.00447L31.1129 2.44868L31.2843 3.49067L28.9951 3.86726L29.1886 5.04345L31.2805 4.69933L31.4493 5.72553L29.3574 6.06966L29.5613 7.309Z" fill="#20285C"/>
<path d="M38.4115 2.47789L39.5102 2.58572L38.9633 8.15894L37.8646 8.05111L38.4115 2.47789Z" fill="#20285C"/>
<path d="M46.5938 4.0504L47.6627 4.32644L46.2625 9.74857L45.4492 9.53854L43.9816 5.62321L43.1255 8.93845L42.0565 8.66241L43.4567 3.24029L44.27 3.45032L45.7397 7.3579L46.5938 4.0504Z" fill="#20285C"/>
<path d="M52.6554 11.7727L54.6819 12.9821L54.1408 13.8889L51.1662 12.1137L54.036 7.30493L56.9762 9.05958L56.435 9.96638L54.4428 8.77748L53.832 9.80107L55.6525 10.8875L55.1195 11.7805L53.299 10.6941L52.6554 11.7727Z" fill="#20285C"/>
<path d="M57.1549 16.5398C56.6814 16.1334 56.4075 15.6664 56.3332 15.1387C56.2589 14.6111 56.4145 14.1227 56.8001 13.6735L59.254 10.8141L60.0857 11.5279L57.6891 14.3204C57.498 14.543 57.4097 14.7729 57.424 15.0101C57.4424 15.2508 57.5871 15.4875 57.8583 15.7202C58.1295 15.9529 58.3834 16.0583 58.62 16.0365C58.8606 16.0181 59.0765 15.8977 59.2675 15.6751L61.6641 12.8825L62.5019 13.6015L60.048 16.4608C59.6624 16.9101 59.2033 17.138 58.6705 17.1446C58.1377 17.1512 57.6325 16.9496 57.1549 16.5398Z" fill="#20285C"/>
</svg>
