<svg width="70" height="72" viewBox="0 0 70 72" fill="none" xmlns="http://www.w3.org/2000/svg">
<path fill-rule="evenodd" clip-rule="evenodd" d="M28.3747 49.6248C24.3367 47.2328 21.0467 43.5448 20.0767 38.8698C19.0567 33.9518 20.1387 28.7998 23.2937 25.1298C26.4997 21.4008 31.3637 19.2868 36.2287 20.0828C40.7667 20.8248 43.6117 25.0408 46.3767 28.9058C49.3007 32.9938 53.1037 37.2958 52.0027 42.1338C50.8657 47.1268 45.9767 49.9188 41.2497 51.4178C36.9527 52.7808 32.3687 51.9928 28.3737 49.6258L28.3747 49.6248Z" fill="#F9D8D3"/>
<path fill-rule="evenodd" clip-rule="evenodd" d="M5.54598 17.0855C2.03618 22.5397 0 29.0321 0 36C0 55.33 15.67 71 35 71C54.33 71 70 55.33 70 36C70 29.6728 68.3211 23.7377 65.3844 18.616L63.6428 19.6C66.415 24.4312 68 30.0305 68 36C68 54.2254 53.2254 69 35 69C16.7746 69 2 54.2254 2 36C2 29.4162 3.92806 23.2826 7.25036 18.1333L5.54598 17.0855Z" fill="#20285C"/>
<path d="M46.3337 36V50.1667H23.667V36" stroke="#20285C" stroke-width="1.5" stroke-linecap="round" stroke-linejoin="round"/>
<path d="M49.1663 28.9167H20.833V36.0001H49.1663V28.9167Z" stroke="#20285C" stroke-width="1.5" stroke-linecap="round" stroke-linejoin="round"/>
<path d="M35 50.1667V28.9167" stroke="#20285C" stroke-width="1.5" stroke-linecap="round" stroke-linejoin="round"/>
<path d="M34.9997 28.9166H28.6247C27.6854 28.9166 26.7845 28.5434 26.1203 27.8793C25.4561 27.2151 25.083 26.3142 25.083 25.3749C25.083 24.4356 25.4561 23.5348 26.1203 22.8706C26.7845 22.2064 27.6854 21.8333 28.6247 21.8333C33.583 21.8333 34.9997 28.9166 34.9997 28.9166Z" stroke="#20285C" stroke-width="1.5" stroke-linecap="round" stroke-linejoin="round"/>
<path d="M35 28.9167H41.375C42.3143 28.9167 43.2151 28.5435 43.8793 27.8793C44.5435 27.2152 44.9167 26.3143 44.9167 25.375C44.9167 24.4357 44.5435 23.5349 43.8793 22.8707C43.2151 22.2065 42.3143 21.8333 41.375 21.8333C36.4167 21.8333 35 28.9167 35 28.9167Z" stroke="#20285C" stroke-width="1.5" stroke-linecap="round" stroke-linejoin="round"/>
<path d="M8.52127 10.6714C8.90642 10.2948 9.35732 10.1075 9.87399 10.1095C10.3907 10.1116 10.8336 10.3013 11.2027 10.6788C11.5718 11.0564 11.7516 11.5034 11.7421 12.02C11.7325 12.5366 11.5351 12.9832 11.15 13.3598L10.4464 14.0477L11.7328 15.3633L10.9435 16.1351L7.02836 12.1312L8.52127 10.6714ZM10.4285 12.6219C10.5963 12.4578 10.6795 12.2645 10.6783 12.042C10.6733 11.8157 10.5869 11.6167 10.4191 11.4451C10.2476 11.2697 10.0506 11.1788 9.82812 11.1726C9.60568 11.1663 9.41056 11.2452 9.24277 11.4093L8.53922 12.0972L9.72494 13.3098L10.4285 12.6219Z" fill="#20285C"/>
<path d="M14.7039 11.3494L16.6078 9.95478L17.2318 10.8067L14.4374 12.8537L11.128 8.33615L13.8902 6.31274L14.5143 7.16462L12.6427 8.53563L13.3471 9.49722L15.0573 8.24441L15.6719 9.08339L13.9617 10.3362L14.7039 11.3494Z" fill="#20285C"/>
<path d="M21.4744 8.51794L19.5841 7.30201L18.8365 7.68498L19.7228 9.41519L18.7402 9.91852L16.1871 4.93439L18.1807 3.91314C18.6412 3.67728 19.1155 3.63807 19.6036 3.7955C20.0917 3.95294 20.4525 4.2595 20.6859 4.71519C20.844 5.02373 20.9033 5.3559 20.8638 5.71169C20.8219 6.06273 20.6902 6.37886 20.4687 6.6601L22.5353 7.97449L21.4744 8.51794ZM17.6402 5.34956L18.3952 6.82344L19.4062 6.30552C19.5914 6.21069 19.7139 6.05803 19.7739 5.84754C19.8314 5.63231 19.8079 5.42264 19.7033 5.21852C19.5988 5.01441 19.4436 4.8752 19.2377 4.80088C19.0319 4.72656 18.8364 4.73681 18.6512 4.83164L17.6402 5.34956Z" fill="#20285C"/>
<path d="M24.9201 2.46678L22.7919 3.16588L23.2064 4.42754L25.2737 3.74842L25.6033 4.75167L23.536 5.4308L24.2101 7.48291L23.1613 7.82746L21.4135 2.50718L24.5905 1.46353L24.9201 2.46678Z" fill="#20285C"/>
<path d="M28.4131 5.28116L30.7372 4.87119L30.9206 5.91114L27.5093 6.51288L26.5365 0.99802L29.9085 0.403227L30.0919 1.44317L27.8072 1.84619L28.0142 3.02006L30.102 2.65179L30.2827 3.67598L28.1949 4.04425L28.4131 5.28116Z" fill="#20285C"/>
<path d="M34.3368 5.86922C33.4942 5.87235 32.7971 5.59493 32.2457 5.03697C31.6943 4.47902 31.4171 3.78937 31.4141 2.96804C31.411 2.14138 31.6831 1.4497 32.2304 0.893001C32.7776 0.330967 33.4726 0.048386 34.3152 0.0452591C34.8219 0.0433789 35.289 0.161646 35.7166 0.400062C36.1494 0.633124 36.4866 0.951875 36.7281 1.35631L35.7782 1.91184C35.6386 1.66169 35.4405 1.46776 35.184 1.33004C34.9275 1.187 34.6392 1.11606 34.3192 1.11725C33.7752 1.11927 33.3358 1.29157 33.0011 1.63415C32.6717 1.9767 32.508 2.41998 32.51 2.96398C32.512 3.50264 32.679 3.94202 33.0109 4.28213C33.3482 4.62221 33.7888 4.79125 34.3328 4.78923C34.6528 4.78804 34.9406 4.71764 35.1961 4.57802C35.4569 4.43305 35.6535 4.23766 35.7859 3.99183L36.7399 4.54029C36.5014 4.94651 36.1693 5.27042 35.7435 5.512C35.3177 5.74825 34.8488 5.86732 34.3368 5.86922Z" fill="#20285C"/>
<path d="M43.0056 1.03961L42.8292 2.08077L41.3384 1.82816L40.5793 6.3083L39.4908 6.12385L40.25 1.64372L38.7671 1.39244L38.9435 0.351282L43.0056 1.03961Z" fill="#20285C"/>
<path d="M51.742 7.07526L51.564 7.46888C51.2344 8.19782 50.7341 8.68277 50.0632 8.92375C49.3923 9.16473 48.6876 9.11821 47.9489 8.78418C47.1617 8.42819 46.6234 7.87749 46.3342 7.1321C46.052 6.38405 46.0779 5.6407 46.412 4.90205C46.7482 4.15853 47.2879 3.64459 48.0311 3.36022C48.7791 3.07804 49.5322 3.10836 50.2903 3.45117C50.7665 3.66653 51.152 3.97254 51.4468 4.36922C51.7437 4.76104 51.9202 5.1862 51.9763 5.6447L50.892 5.75141C50.865 5.48751 50.7572 5.23392 50.5687 4.99064C50.3851 4.74956 50.1426 4.56089 49.8413 4.42465C49.3553 4.20489 48.8819 4.18396 48.421 4.36186C47.9672 4.53709 47.6304 4.86768 47.4106 5.35364C47.1931 5.83473 47.1708 6.30464 47.3438 6.76335C47.5239 7.2194 47.8764 7.56609 48.4012 7.80342C48.79 7.97922 49.1492 8.03921 49.4788 7.9834C49.8154 7.92492 50.0981 7.76592 50.3266 7.50638L48.7813 6.80757L49.1834 5.91826L51.742 7.07526Z" fill="#20285C"/>
<path d="M54.4451 5.80743L55.375 6.40256L52.3562 11.1192L51.4264 10.5241L54.4451 5.80743Z" fill="#20285C"/>
<path d="M59.1041 10.5816L57.369 9.16494L56.5291 10.1936L58.2146 11.5698L57.5468 12.3878L55.8612 11.0116L54.4951 12.6847L53.64 11.9864L57.1818 7.64873L59.772 9.76368L59.1041 10.5816Z" fill="#20285C"/>
<path d="M63.7808 13.9331L63.0034 14.6478L61.9801 13.5346L58.6348 16.6099L57.8877 15.7972L61.2329 12.7219L60.2151 11.6147L60.9925 10.9L63.7808 13.9331Z" fill="#20285C"/>
</svg>
