<svg width="76" height="74" viewBox="0 0 76 74" fill="none" xmlns="http://www.w3.org/2000/svg">
<path fill-rule="evenodd" clip-rule="evenodd" d="M44.2248 20.1435C49.6948 21.7955 55.3748 24.9365 56.7648 30.6725C58.1108 36.2305 53.7948 41.2485 50.4898 46.0065C47.3648 50.5055 44.1518 55.4095 38.9358 56.3365C33.3408 57.3305 27.7028 54.9705 23.9478 50.7235C20.2518 46.5435 18.9238 40.6245 20.0208 34.9395C21.0648 29.5355 24.7978 25.2345 29.4128 22.4125C33.9788 19.6205 39.2488 18.6425 44.2248 20.1435Z" fill="#D6E0D7"/>
<path fill-rule="evenodd" clip-rule="evenodd" d="M3.00088 37.7496C3.00029 37.833 3 37.9164 3 37.9998C3 57.3298 18.67 72.9998 38 72.9998C54.8949 72.9998 68.994 61.0291 72.278 45.1067L70.3262 44.6671C67.2426 59.6964 53.9414 70.9998 38 70.9998C21.1092 70.9998 7.18224 58.3098 5.23321 41.9436L3.31255 42.2001C3.11497 40.721 3.01133 39.2346 3.00088 37.7496Z" fill="#20285C"/>
<path d="M0.51269 35.2233C0.550065 34.6859 0.762416 34.2462 1.14974 33.9043C1.53707 33.5623 1.9941 33.4097 2.52082 33.4463C3.04755 33.4829 3.47904 33.6974 3.8153 34.0897C4.15156 34.4819 4.301 34.9468 4.26363 35.4841L4.19535 36.4658L6.03092 36.5934L5.95432 37.6948L0.367816 37.3062L0.51269 35.2233ZM3.23412 35.4125C3.2504 35.1784 3.1841 34.9787 3.03522 34.8133C2.88101 34.6475 2.6842 34.5563 2.44478 34.5397C2.20004 34.5226 1.99249 34.5857 1.82215 34.7289C1.6518 34.8721 1.55849 35.0608 1.5422 35.2949L1.47393 36.2765L3.16584 36.3942L3.23412 35.4125Z" fill="#20285C"/>
<path d="M7.19049 29.2949L5.04275 29.9573L4.854 30.7758L6.74829 31.2126L6.50023 32.2884L1.04343 31.0301L1.54674 28.8474C1.66298 28.3432 1.93854 27.9552 2.37343 27.6833C2.80831 27.4114 3.2752 27.333 3.77411 27.448C4.11191 27.5259 4.40416 27.6946 4.65085 27.954C4.89234 28.2122 5.0493 28.5166 5.12171 28.8671L7.45833 28.1334L7.19049 29.2949ZM2.2971 30.1862L3.91076 30.5583L4.16601 29.4513C4.21274 29.2486 4.17493 29.0566 4.05258 28.8751C3.92503 28.6924 3.74952 28.5753 3.52605 28.5238C3.30258 28.4723 3.09611 28.5013 2.90665 28.6109C2.71719 28.7204 2.59909 28.8766 2.55235 29.0792L2.2971 30.1862Z" fill="#20285C"/>
<path d="M7.17388 26.1563L8.06062 23.9692L9.03924 24.366L7.73768 27.5762L2.54802 25.472L3.83455 22.2989L4.81317 22.6957L3.94146 24.8457L5.04612 25.2936L5.84268 23.3289L6.80648 23.7197L6.00991 25.6844L7.17388 26.1563Z" fill="#20285C"/>
<path d="M7.50592 15.947L12.2635 18.9009L11.6853 19.832L8.59972 17.9162L9.97725 20.6266L9.90973 20.7353L6.87634 20.707L9.95515 22.6186L9.3728 23.5565L4.61526 20.6026L5.21449 19.6375L8.31234 19.6682L6.90669 16.9121L7.50592 15.947Z" fill="#20285C"/>
<path d="M8.86751 14.3448L9.57717 13.4991L13.8669 17.0988L13.1573 17.9445L8.86751 14.3448Z" fill="#20285C"/>
<path d="M16.4307 14.635C15.9721 15.0582 15.4765 15.2762 14.9439 15.2889C14.4112 15.3015 13.9441 15.0903 13.5425 14.6553L10.9868 11.8866L11.7921 11.1432L14.2882 13.8473C14.4872 14.0628 14.7053 14.1772 14.9425 14.1905C15.1837 14.2001 15.4355 14.0838 15.6981 13.8414C15.9607 13.599 16.0948 13.3591 16.1005 13.1215C16.1102 12.8803 16.0155 12.652 15.8166 12.4364L13.3205 9.73239L14.1317 8.98357L16.6875 11.7523C17.089 12.1873 17.2622 12.6698 17.207 13.1997C17.1519 13.7297 16.8931 14.2081 16.4307 14.635Z" fill="#20285C"/>
<path d="M20.4432 4.74587L23.4146 9.49253L22.4856 10.0741L20.5584 6.99553L20.6022 10.0356L20.4937 10.1035L17.7825 8.74271L19.7054 11.8145L18.7697 12.4003L15.7982 7.65361L16.7611 7.05084L19.5292 8.44211L19.4803 5.34865L20.4432 4.74587Z" fill="#20285C"/>
<path d="M29.249 7.4457C28.4374 7.67227 27.6917 7.58972 27.012 7.19804C26.3324 6.80636 25.8821 6.21498 25.6613 5.42389C25.439 4.62766 25.5179 3.88858 25.8978 3.20664C26.2764 2.51956 26.8714 2.06273 27.6831 1.83617C28.1711 1.69994 28.6528 1.69004 29.1283 1.80649C29.6075 1.91636 30.0172 2.13424 30.3573 2.46011L29.5888 3.24775C29.3878 3.0436 29.1454 2.90916 28.8616 2.84443C28.5763 2.77456 28.2795 2.78265 27.9713 2.86869C27.4473 3.01496 27.0694 3.29764 26.8376 3.71675C26.6109 4.13442 26.5706 4.60524 26.7169 5.12921C26.8617 5.64804 27.1393 6.02738 27.5496 6.26724C27.965 6.50566 28.4346 6.55174 28.9586 6.40547C29.2668 6.31943 29.5256 6.17522 29.7349 5.97283C29.9479 5.76386 30.0856 5.52331 30.148 5.25116L31.2134 5.52687C31.0912 5.9818 30.8569 6.38221 30.5105 6.72809C30.1626 7.06884 29.7421 7.30804 29.249 7.4457Z" fill="#20285C"/>
<path d="M36.1304 6.09431L34.8417 4.2529L34.0047 4.32409L34.1695 6.26109L33.0694 6.35465L32.5948 0.7748L34.8268 0.584965C35.3423 0.541123 35.796 0.684515 36.1881 1.01514C36.5802 1.34577 36.798 1.76616 36.8414 2.27632C36.8707 2.62174 36.7998 2.95161 36.6285 3.26592C36.4567 3.57492 36.2151 3.81761 35.9036 3.99398L37.3181 5.99329L36.1304 6.09431ZM33.7823 1.70953L33.9227 3.35957L35.0546 3.2633C35.2618 3.24567 35.4331 3.15081 35.5683 2.97873C35.7031 2.80134 35.7608 2.59839 35.7413 2.36988C35.7219 2.14137 35.631 1.95373 35.4687 1.80696C35.3063 1.6602 35.1215 1.59563 34.9142 1.61325L33.7823 1.70953Z" fill="#20285C"/>
<path d="M42.3286 6.37435L42.0832 5.34055L39.86 5.14283L39.436 6.1171L38.2487 6.01151L40.6971 0.60715L42.0597 0.728332L43.5239 6.48065L42.3286 6.37435ZM40.302 4.14607L41.832 4.28213L41.2697 1.93509L40.302 4.14607Z" fill="#20285C"/>
<path d="M48.6801 3.1114L46.5073 2.56666L46.1844 3.85479L48.295 4.38397L48.0382 5.40827L45.9275 4.87909L45.4023 6.97424L44.3314 6.70576L45.6933 1.27388L48.9369 2.0871L48.6801 3.1114Z" fill="#20285C"/>
<path d="M54.206 4.11332L53.8056 5.09045L52.4065 4.5171L50.6834 8.72172L49.6619 8.30308L51.385 4.09846L49.9933 3.52814L50.3937 2.55101L54.206 4.11332Z" fill="#20285C"/>
<path d="M54.288 10.6951C53.8104 10.413 53.471 10.07 53.2698 9.66621C53.0712 9.25779 53.0139 8.83057 53.0977 8.38454L54.1913 8.38942C54.0893 8.99197 54.3138 9.45601 54.8648 9.78153C55.1312 9.93886 55.3548 10.0059 55.5357 9.98275C55.7167 9.95956 55.8506 9.87449 55.9374 9.72755C56.0377 9.55765 56.0393 9.38202 55.942 9.20066C55.8474 9.01471 55.6376 8.75135 55.3123 8.41057C55.1345 8.21878 54.9888 8.04599 54.8752 7.89219C54.7663 7.74109 54.6672 7.56798 54.5781 7.37285C54.4962 7.17584 54.4651 6.97162 54.4847 6.76019C54.5043 6.54877 54.5792 6.33285 54.7094 6.11244C54.9671 5.6762 55.3257 5.42038 55.7853 5.34498C56.2522 5.2677 56.7037 5.35791 57.14 5.61562C57.5303 5.84619 57.8154 6.14471 57.9954 6.51119C58.1826 6.87578 58.2586 7.2768 58.2231 7.71426L57.1515 7.70375C57.2028 7.17655 57.0172 6.78816 56.5947 6.5386C56.3973 6.42195 56.214 6.37564 56.045 6.39966C55.8832 6.42181 55.7603 6.50405 55.6762 6.6464C55.5867 6.79794 55.5754 6.95854 55.6425 7.12821C55.7168 7.29601 55.9005 7.5408 56.1935 7.86259C56.3134 7.99532 56.4019 8.09716 56.4591 8.16811C56.5236 8.23719 56.6038 8.33725 56.6998 8.46831C56.8032 8.59749 56.8757 8.70538 56.9175 8.79199C56.9638 8.88131 57.0098 8.99213 57.0556 9.12445C57.1013 9.25677 57.1227 9.37781 57.1198 9.4876C57.1215 9.60009 57.1031 9.72553 57.0647 9.86391C57.0337 10.0004 56.9774 10.1375 56.8961 10.2753C56.6329 10.7207 56.261 10.978 55.7804 11.0471C55.3043 11.119 54.8069 11.0017 54.288 10.6951Z" fill="#20285C"/>
<path d="M64.4162 11.2105L60.8009 15.4872L59.9639 14.7796L62.3087 12.0059L59.4266 12.974L59.3289 12.8914L59.7986 9.89447L57.459 12.6621L56.6159 11.9493L60.2312 7.6727L61.0988 8.40608L60.6173 11.4664L63.5487 10.4771L64.4162 11.2105Z" fill="#20285C"/>
<path d="M63.7722 19.0828L64.3415 18.1856L62.9318 16.4551L61.9381 16.8313L61.1852 15.9071L66.7649 13.8898L67.6289 14.9505L64.5301 20.0131L63.7722 19.0828ZM63.9542 16.0763L64.9244 17.2671L66.2132 15.2266L63.9542 16.0763Z" fill="#20285C"/>
<path d="M71.3453 20.6879L71.8857 21.6506L67.0024 24.3916L66.5912 23.6591L68.4023 19.8903L65.4165 21.5663L64.8761 20.6036L69.7595 17.8626L70.1706 18.5951L68.3665 22.3599L71.3453 20.6879Z" fill="#20285C"/>
<path d="M67.9578 27.1539C67.7649 26.6339 67.7176 26.1537 67.8159 25.7133C67.9192 25.2711 68.144 24.9033 68.4902 24.6099L69.3361 25.303C68.8771 25.7065 68.7589 26.2083 68.9815 26.8083C69.0891 27.0983 69.2204 27.2914 69.3755 27.3874C69.5306 27.4835 69.6881 27.5018 69.8481 27.4425C70.0332 27.3739 70.1451 27.2385 70.1839 27.0364C70.2277 26.8324 70.2307 26.4957 70.1931 26.0261C70.1759 25.7651 70.1717 25.5391 70.1805 25.3482C70.1912 25.1622 70.2234 24.9653 70.2772 24.7577C70.3378 24.5531 70.4424 24.375 70.5909 24.2232C70.7394 24.0714 70.9336 23.951 71.1736 23.862C71.6487 23.6858 72.0883 23.7132 72.4926 23.9444C72.9038 24.1787 73.1975 24.5334 73.3737 25.0084C73.5313 25.4334 73.5645 25.8449 73.4732 26.2428C73.3888 26.6439 73.1949 27.0031 72.8917 27.3204L72.0664 26.6367C72.4385 26.2598 72.5393 25.8413 72.3686 25.3812C72.2888 25.1662 72.1758 25.0147 72.0294 24.9268C71.8899 24.8421 71.7426 24.8284 71.5876 24.8859C71.4226 24.9471 71.3126 25.0647 71.2577 25.2387C71.2096 25.4158 71.1979 25.7216 71.2226 26.1562C71.2319 26.3347 71.2364 26.4696 71.2361 26.5607C71.2427 26.655 71.2419 26.7833 71.2338 26.9455C71.2326 27.111 71.2209 27.2404 71.1987 27.334C71.1784 27.4326 71.1443 27.5476 71.0964 27.6791C71.0485 27.8107 70.9888 27.9181 70.9173 28.0015C70.8477 28.0899 70.7544 28.1757 70.6374 28.259C70.5272 28.3453 70.3971 28.4164 70.2471 28.472C69.7621 28.6519 69.3112 28.6172 68.8945 28.3679C68.4796 28.1236 68.1674 27.719 67.9578 27.1539Z" fill="#20285C"/>
<path d="M75.0881 31.7902L75.3017 32.8652L69.809 33.9565L69.5955 32.8815L71.871 32.4294L71.4657 30.3893L69.1901 30.8413L68.975 29.7585L74.4677 28.6673L74.6828 29.7501L72.5014 30.1835L72.9067 32.2236L75.0881 31.7902Z" fill="#20285C"/>
<path d="M75.4744 34.9338L75.551 36.0351L69.9645 36.4237L69.8879 35.3223L75.4744 34.9338Z" fill="#20285C"/>
<path d="M75.5432 40.2799C75.5162 40.8179 75.3124 41.2616 74.9317 41.6109C74.5511 41.9603 74.0971 42.1217 73.5697 42.0952C73.0424 42.0688 72.6069 41.8627 72.2631 41.4769C71.9193 41.0912 71.761 40.6294 71.788 40.0914L71.8373 39.1086L69.9996 39.0164L70.055 37.9137L75.6479 38.1945L75.5432 40.2799ZM72.8187 40.1431C72.8069 40.3775 72.877 40.5759 73.0291 40.7384C73.1865 40.9012 73.385 40.9886 73.6247 41.0006C73.8697 41.0129 74.076 40.9459 74.2436 40.7994C74.4111 40.653 74.5008 40.4625 74.5125 40.2282L74.5619 39.2454L72.868 39.1604L72.8187 40.1431Z" fill="#20285C"/>
<path d="M30 25H46L54 34.3913L38 52L22 34.3913L30 25Z" stroke="#20285C" stroke-width="2" stroke-linecap="round" stroke-linejoin="round"/>
<path d="M45 34.3913L38 52L31 34.3913L38 25L45 34.3913Z" stroke="#20285C" stroke-width="2" stroke-linecap="round" stroke-linejoin="round"/>
<path d="M22.1597 34.5H53.8245" stroke="#20285C" stroke-width="2" stroke-linecap="round" stroke-linejoin="round"/>
</svg>
