<svg width="199" height="39" viewBox="0 0 199 39" fill="none" xmlns="http://www.w3.org/2000/svg">
<g clip-path="url(#clip0_1_1054)">
<path d="M188.88 5.355L192.328 1.89L190.467 0L187 3.465L188.88 5.355Z" fill="black"/>
<path d="M9.17681 9.5599C11.6035 9.5599 13.6568 9.97323 15.3368 10.7999C17.0168 11.5999 18.2968 12.7466 19.1768 14.2399C20.0568 15.7066 20.4968 17.4532 20.4968 19.4799C20.4968 20.6799 20.3102 21.8932 19.9368 23.1199C19.5902 24.3199 19.0168 25.4132 18.2168 26.3999C17.4435 27.3866 16.3902 28.1866 15.0568 28.7999C13.7502 29.3866 12.1368 29.6799 10.2168 29.6799H6.05681V38.9999H0.256836V9.5599H9.17681ZM10.1768 24.0399C11.0568 24.0399 11.7902 23.8932 12.3768 23.5999C12.9635 23.2799 13.4168 22.8932 13.7368 22.4399C14.0835 21.9599 14.3235 21.4666 14.4568 20.9599C14.6168 20.4532 14.6968 20.0132 14.6968 19.6399C14.6968 19.3466 14.6435 18.9599 14.5368 18.4799C14.4568 17.9732 14.2702 17.4666 13.9768 16.9599C13.6835 16.4532 13.2302 16.0266 12.6168 15.6799C12.0302 15.3332 11.2302 15.1599 10.2168 15.1599H6.05681V24.0399H10.1768ZM25.9365 9.5599H31.7365V38.9999H25.9365V9.5599ZM65.945 40.1999L43.625 20.0399L45.345 20.9999L45.465 38.9999H39.585V8.3999H39.825L61.665 28.4799L60.385 27.9199L60.265 9.5599H66.105V40.1999H65.945ZM82.8565 9.5599C85.2832 9.5599 87.3365 9.97323 89.0165 10.7999C90.6965 11.5999 91.9765 12.7466 92.8565 14.2399C93.7365 15.7066 94.1765 17.4532 94.1765 19.4799C94.1765 20.6799 93.9899 21.8932 93.6165 23.1199C93.2699 24.3199 92.6965 25.4132 91.8965 26.3999C91.1232 27.3866 90.0699 28.1866 88.7365 28.7999C87.4299 29.3866 85.8165 29.6799 83.8965 29.6799H79.7365V38.9999H73.9365V9.5599H82.8565ZM83.8565 24.0399C84.7365 24.0399 85.4699 23.8932 86.0565 23.5999C86.6432 23.2799 87.0965 22.8932 87.4165 22.4399C87.7632 21.9599 88.0032 21.4666 88.1365 20.9599C88.2965 20.4532 88.3765 20.0132 88.3765 19.6399C88.3765 19.3466 88.3232 18.9599 88.2165 18.4799C88.1365 17.9732 87.9499 17.4666 87.6565 16.9599C87.3632 16.4532 86.9099 16.0266 86.2965 15.6799C85.7099 15.3332 84.9099 15.1599 83.8965 15.1599H79.7365V24.0399H83.8565ZM99.6158 9.5599H105.416V33.3999H119.256V38.9999H99.6158V9.5599ZM122.171 38.9999L135.451 8.3999H135.771L149.051 38.9999H142.331L133.851 17.4799L138.051 14.5999L127.891 38.9999H122.171ZM131.251 28.3599H140.091L142.131 33.2399H129.451L131.251 28.3599ZM173.642 36.5599C173.322 36.8266 172.722 37.1866 171.842 37.6399C170.988 38.0932 169.935 38.4932 168.682 38.8399C167.428 39.1866 166.042 39.3466 164.522 39.3199C162.202 39.2666 160.122 38.8532 158.282 38.0799C156.468 37.2799 154.922 36.1999 153.642 34.8399C152.388 33.4799 151.428 31.9199 150.762 30.1599C150.095 28.3999 149.762 26.5199 149.762 24.5199C149.762 22.2799 150.095 20.2266 150.762 18.3599C151.455 16.4932 152.428 14.8799 153.682 13.5199C154.962 12.1599 156.482 11.1066 158.242 10.3599C160.002 9.61323 161.948 9.2399 164.082 9.2399C166.055 9.2399 167.802 9.50657 169.322 10.0399C170.842 10.5732 172.082 11.1466 173.042 11.7599L170.762 17.2399C170.095 16.7332 169.202 16.2132 168.082 15.6799C166.988 15.1199 165.722 14.8399 164.282 14.8399C163.162 14.8399 162.082 15.0799 161.042 15.5599C160.028 16.0132 159.122 16.6666 158.322 17.5199C157.548 18.3732 156.935 19.3732 156.482 20.5199C156.028 21.6399 155.802 22.8666 155.802 24.1999C155.802 25.6132 156.002 26.9066 156.402 28.0799C156.828 29.2532 157.428 30.2666 158.202 31.1199C158.975 31.9466 159.895 32.5866 160.962 33.0399C162.055 33.4932 163.282 33.7199 164.642 33.7199C166.215 33.7199 167.562 33.4666 168.682 32.9599C169.802 32.4532 170.655 31.9199 171.242 31.3599L173.642 36.5599ZM179.702 9.5599H199.782V15.1599H185.502V21.4399H198.142V27.0399H185.502V33.3999H200.342V38.9999H179.702V9.5599Z" fill="black"/>
</g>
<defs>
<clipPath id="clip0_1_1054">
<rect width="199" height="39" fill="white"/>
</clipPath>
</defs>
</svg>
