<svg width="18" height="18" viewBox="0 0 18 18" fill="none" xmlns="http://www.w3.org/2000/svg">
<path d="M2.40473 6.75C2.21568 6.74981 2.03421 6.82434 1.89987 6.95736C1.76553 7.09039 1.68921 7.27111 1.68754 7.46016C1.68678 7.52568 1.69627 7.59092 1.71567 7.65352L3.53325 14.0625C3.61749 14.3619 3.79752 14.6254 4.04579 14.8127C4.29405 15 4.59686 15.1008 4.90786 15.0996H13.0922C13.4038 15.0999 13.7071 14.9989 13.9563 14.8118C14.2055 14.6248 14.3871 14.3618 14.4739 14.0625L16.2914 7.65352L16.3125 7.46016C16.3109 7.27111 16.2346 7.09039 16.1002 6.95736C15.9659 6.82434 15.7844 6.74981 15.5954 6.75H2.40473Z" stroke="white" stroke-width="1.5"/>
<path d="M5.625 6.75L9 2.25L12.375 6.75" stroke="white" stroke-width="1.5"/>
</svg>
