<svg width="24" height="24" viewBox="0 0 24 24" fill="none" xmlns="http://www.w3.org/2000/svg">
<path d="M0 4.5023C0 4.16987 0.269035 3.90039 0.600906 3.90039H12.7764C13.1082 3.90039 13.3772 4.16987 13.3772 4.5023V6.09049V6.76077V7.33168V16.3943C13.1312 16.8085 13.0576 16.9325 12.6619 17.5982L8.66807 17.5979V16.3941H12.1754V5.10422H1.20181V16.3941H3.22104V17.5979H0.600906C0.269035 17.5979 0 17.3284 0 16.996V4.5023Z" fill="white"/>
<path d="M22.7982 9.70054L13.3772 7.33128V6.09009L23.5454 8.64726C23.8127 8.71446 24 8.95509 24 9.23106V16.9957C24 17.3281 23.731 17.5977 23.399 17.5977H20.7685V16.3938H22.7982V9.70054ZM13.3772 16.3939L16.013 16.3938L16.0132 17.5977L12.6619 17.5978L13.3772 16.3939Z" fill="white"/>
<path d="M9.25523 17.0225C9.25523 18.7221 7.87972 20.1 6.18295 20.1C4.48617 20.1 3.11066 18.7221 3.11066 17.0225C3.11066 15.3229 4.48617 13.9451 6.18295 13.9451C7.87972 13.9451 9.25523 15.3229 9.25523 17.0225ZM6.18295 18.8961C7.21598 18.8961 8.05342 18.0573 8.05342 17.0225C8.05342 15.9877 7.21598 15.1489 6.18295 15.1489C5.14991 15.1489 4.31247 15.9877 4.31247 17.0225C4.31247 18.0573 5.14991 18.8961 6.18295 18.8961Z" fill="white"/>
<path d="M21.0235 17.0225C21.0235 18.7221 19.6479 20.1 17.9511 20.1C16.2545 20.1 14.8789 18.7221 14.8789 17.0225C14.8789 15.3229 16.2545 13.9451 17.9511 13.9451C19.6479 13.9451 21.0235 15.3229 21.0235 17.0225ZM17.9511 18.8961C18.9842 18.8961 19.8217 18.0573 19.8217 17.0225C19.8217 15.9877 18.9842 15.1489 17.9511 15.1489C16.9182 15.1489 16.0807 15.9877 16.0807 17.0225C16.0807 18.0573 16.9182 18.8961 17.9511 18.8961Z" fill="white"/>
</svg>
