<svg width="14" height="13" viewBox="0 0 14 13" fill="none" xmlns="http://www.w3.org/2000/svg">
<path d="M2.57943 2.67021H3.28643C3.39743 3.02321 3.61243 3.32721 3.90943 3.55021C4.21943 3.78321 4.58643 3.90621 4.97343 3.90621C5.36143 3.90621 5.72943 3.78321 6.03843 3.55121C6.33543 3.32721 6.55043 3.02321 6.66143 2.67021H12.2914C12.4289 2.66426 12.5588 2.60545 12.654 2.50605C12.7492 2.40665 12.8023 2.27434 12.8023 2.13671C12.8023 1.99909 12.7492 1.86678 12.654 1.76738C12.5588 1.66798 12.4289 1.60917 12.2914 1.60321H6.66143C6.55143 1.25168 6.33344 0.943765 6.03843 0.723214C5.73202 0.490954 5.35792 0.36555 4.97343 0.366214C4.58643 0.366214 4.21843 0.489214 3.90943 0.721214C3.61447 0.941813 3.39649 1.24971 3.28643 1.60121H2.58043C2.4388 1.60121 2.30298 1.65747 2.20283 1.75762C2.10269 1.85776 2.04643 1.99359 2.04643 2.13521C2.04643 2.27684 2.10269 2.41266 2.20283 2.51281C2.30298 2.61295 2.4388 2.66921 2.58043 2.66921L2.57943 2.67021ZM4.27143 2.13621C4.27156 2.04389 4.28987 1.9525 4.32533 1.86726C4.36078 1.78202 4.41267 1.7046 4.47804 1.63941C4.54341 1.57422 4.62099 1.52255 4.70633 1.48734C4.79167 1.45214 4.88311 1.43408 4.97543 1.43421C5.06775 1.43434 5.15914 1.45266 5.24438 1.48811C5.32962 1.52356 5.40705 1.57545 5.47223 1.64082C5.53742 1.7062 5.58909 1.78377 5.6243 1.86911C5.65951 1.95445 5.67756 2.04589 5.67743 2.13821C5.67716 2.32466 5.60284 2.50337 5.47082 2.63502C5.33879 2.76667 5.15988 2.84048 4.97343 2.84021C4.78698 2.83995 4.60828 2.76563 4.47663 2.6336C4.34498 2.50158 4.27116 2.32266 4.27143 2.13621ZM13.3944 5.83421H12.7634C12.6534 5.48218 12.435 5.17388 12.1394 4.95321C11.8331 4.72181 11.4594 4.59712 11.0754 4.59821C10.6884 4.59821 10.3204 4.72121 10.0114 4.95321C9.71647 5.17381 9.49849 5.48171 9.38843 5.83321H1.47443C1.3328 5.83321 1.19698 5.88947 1.09683 5.98962C0.99669 6.08976 0.94043 6.22559 0.94043 6.36721C0.94043 6.50884 0.99669 6.64466 1.09683 6.74481C1.19698 6.84495 1.3328 6.90121 1.47443 6.90121H9.38843C9.49943 7.25421 9.71443 7.55821 10.0114 7.78121C10.3214 8.01421 10.6884 8.13621 11.0754 8.13621C11.4634 8.13621 11.8314 8.01421 12.1404 7.78121C12.4374 7.55821 12.6514 7.25421 12.7634 6.90121H13.3934C13.5309 6.89526 13.6608 6.83645 13.756 6.73705C13.8512 6.63765 13.9043 6.50534 13.9043 6.36771C13.9043 6.23009 13.8512 6.09778 13.756 5.99838C13.6608 5.89898 13.5309 5.84017 13.3934 5.83421H13.3944ZM11.7774 6.36721C11.7809 6.4617 11.7653 6.55592 11.7316 6.64424C11.6978 6.73255 11.6466 6.81315 11.5809 6.88121C11.5153 6.94927 11.4366 7.00339 11.3496 7.04034C11.2626 7.07728 11.169 7.09629 11.0744 7.09622C10.9799 7.09615 10.8863 7.07701 10.7993 7.03994C10.7123 7.00288 10.6337 6.94865 10.5682 6.88049C10.5026 6.81234 10.4515 6.73167 10.4179 6.6433C10.3843 6.55494 10.3688 6.46069 10.3724 6.36621C10.3794 6.18449 10.4566 6.01254 10.5876 5.88649C10.7187 5.76044 10.8936 5.69009 11.0754 5.69022C11.2573 5.69035 11.432 5.76095 11.5629 5.88719C11.6938 6.01342 11.7707 6.18548 11.7774 6.36721ZM12.2914 10.0652H8.92643C8.81662 9.71332 8.59861 9.40503 8.30343 9.18421C7.99708 8.95281 7.62336 8.82812 7.23943 8.82921C6.85243 8.82921 6.48443 8.95221 6.17543 9.18421C5.88047 9.40481 5.66249 9.71272 5.55243 10.0642H2.57943C2.4378 10.0642 2.30198 10.1205 2.20183 10.2206C2.10169 10.3208 2.04543 10.4566 2.04543 10.5982C2.04543 10.7398 2.10169 10.8757 2.20183 10.9758C2.30198 11.076 2.4378 11.1322 2.57943 11.1322H5.55143C5.66143 11.4852 5.87743 11.7892 6.17443 12.0122C6.48343 12.2452 6.85143 12.3672 7.23843 12.3672C7.62543 12.3672 7.99343 12.2442 8.30243 12.0122C8.60043 11.7892 8.81443 11.4852 8.92643 11.1322H12.2924C12.4299 11.1263 12.5598 11.0674 12.655 10.9681C12.7502 10.8687 12.8033 10.7363 12.8033 10.5987C12.8033 10.4611 12.7502 10.3288 12.655 10.2294C12.5598 10.13 12.4299 10.0712 12.2924 10.0652H12.2914ZM7.94143 10.5982C7.94116 10.7848 7.86679 10.9636 7.73467 11.0954C7.60255 11.2271 7.42351 11.301 7.23693 11.3007C7.05035 11.3004 6.87152 11.2261 6.73977 11.094C6.60803 10.9618 6.53416 10.7828 6.53443 10.5962C6.53456 10.5039 6.55287 10.4125 6.58833 10.3273C6.62378 10.242 6.67567 10.1646 6.74104 10.0994C6.80641 10.0342 6.88399 9.98255 6.96933 9.94734C7.05467 9.91214 7.14611 9.89408 7.23843 9.89421C7.33075 9.89435 7.42214 9.91266 7.50738 9.94811C7.59262 9.98356 7.67005 10.0355 7.73523 10.1008C7.80042 10.1662 7.85209 10.2438 7.8873 10.3291C7.92251 10.4145 7.94156 10.5059 7.94143 10.5982Z" fill="black"/>
</svg>
