<svg width="13" height="13" viewBox="0 0 13 13" fill="none" xmlns="http://www.w3.org/2000/svg">
<path d="M6.5 0C2.91417 0 0 2.91417 0 6.5C0 10.0858 2.91417 13 6.5 13C10.0858 13 13 10.0858 13 6.5C13 2.91417 10.0858 0 6.5 0ZM6.5 11.9167C3.51 11.9167 1.08333 9.49 1.08333 6.5C1.08333 3.51 3.51 1.08333 6.5 1.08333C9.49 1.08333 11.9167 3.51 11.9167 6.5C11.9167 9.49 9.49 11.9167 6.5 11.9167Z" fill="black"/>
<path d="M6.49967 5.25439C6.19634 5.25439 5.95801 5.49273 5.95801 5.79606V9.47939C5.95801 9.78273 6.19634 10.0211 6.49967 10.0211C6.80301 10.0211 7.04134 9.78273 7.04134 9.47939V5.79606C7.04134 5.50356 6.80301 5.25439 6.49967 5.25439Z" fill="black"/>
<path d="M6.51051 3.03336C6.22884 3.01169 5.96884 3.30419 5.95801 3.59669C5.95801 3.60753 5.95801 3.67253 5.95801 3.68336C5.95801 3.97586 6.18551 4.19253 6.48884 4.20336H6.49967C6.79217 4.20336 7.03051 3.94336 7.04134 3.66169C7.04134 3.65086 7.04134 3.54253 7.04134 3.54253C7.04134 3.22836 6.81384 3.03336 6.51051 3.03336Z" fill="black"/>
</svg>
