<svg width="18" height="18" viewBox="0 0 18 18" fill="none" xmlns="http://www.w3.org/2000/svg">
<path d="M12 2.25H0.75V12H12V2.25Z" stroke="black" stroke-linecap="round" stroke-linejoin="round"/>
<path d="M12.0002 6.00037H15.0002L17.2502 8.25037V12.0004H12.0002V6.00037Z" stroke="black" stroke-linecap="round" stroke-linejoin="round"/>
<path d="M4.125 15.7496C5.16053 15.7496 6 14.9102 6 13.8746C6 12.8391 5.16053 11.9996 4.125 11.9996C3.08947 11.9996 2.25 12.8391 2.25 13.8746C2.25 14.9102 3.08947 15.7496 4.125 15.7496Z" stroke="black" stroke-linecap="round" stroke-linejoin="round"/>
<path d="M13.8752 15.7496C14.9108 15.7496 15.7502 14.9102 15.7502 13.8746C15.7502 12.8391 14.9108 11.9996 13.8752 11.9996C12.8397 11.9996 12.0002 12.8391 12.0002 13.8746C12.0002 14.9102 12.8397 15.7496 13.8752 15.7496Z" stroke="black" stroke-linecap="round" stroke-linejoin="round"/>
</svg>
