<svg width="9" height="12" viewBox="0 0 9 12" fill="none" xmlns="http://www.w3.org/2000/svg">
<path d="M8.00776 7.18388C7.87867 7.18505 7.7537 7.22941 7.65276 7.30988L4.42276 9.80688L1.19676 7.30988C1.09581 7.22941 0.970841 7.18505 0.841757 7.18388C0.596757 7.18388 0.369757 7.35187 0.248757 7.62087C0.160611 7.82207 0.136521 8.04552 0.179757 8.26087C0.223757 8.48387 0.332757 8.67088 0.486757 8.79088L4.06976 11.5599C4.17576 11.6419 4.29976 11.6859 4.42376 11.6859C4.55284 11.6847 4.67781 11.6403 4.77876 11.5599L8.36276 8.78988C8.52509 8.65611 8.63374 8.46829 8.66876 8.26087C8.71186 8.04551 8.68778 7.8221 8.59976 7.62087C8.47976 7.35087 8.25176 7.18388 8.00776 7.18388ZM0.840757 4.54988C0.969497 4.54847 1.09408 4.50413 1.19476 4.42387L4.42476 1.92787L7.65276 4.42287C7.75976 4.50588 7.88276 4.54887 8.00776 4.54887C8.25176 4.54887 8.47876 4.38188 8.59976 4.11188C8.68824 3.91079 8.71268 3.68734 8.66976 3.47187C8.63448 3.26432 8.52546 3.07648 8.36276 2.94288L4.77976 0.172875C4.67878 0.0924792 4.55383 0.048131 4.42476 0.046875C4.29567 0.0480543 4.1707 0.092411 4.06976 0.172875L0.485757 2.94388C0.322774 3.07767 0.213724 3.26593 0.178757 3.47388C0.135757 3.69088 0.160757 3.91887 0.248757 4.11387C0.368757 4.38387 0.595757 4.54988 0.840757 4.54988Z" fill="black"/>
</svg>
