<svg width="18" height="18" viewBox="0 0 18 18" fill="none" xmlns="http://www.w3.org/2000/svg">
<g clip-path="url(#clip0_37_233)">
<path d="M17 9C17 7.41775 16.5308 5.87103 15.6518 4.55544C14.7727 3.23985 13.5233 2.21447 12.0615 1.60897C10.5997 1.00347 8.99113 0.84504 7.43928 1.15372C5.88743 1.4624 4.46197 2.22433 3.34315 3.34315C2.22433 4.46197 1.4624 5.88743 1.15372 7.43928C0.84504 8.99113 1.00347 10.5997 1.60897 12.0615C2.21447 13.5233 3.23985 14.7727 4.55544 15.6518C5.87103 16.5308 7.41775 17 9 17C11.1217 17 13.1566 16.1571 14.6569 14.6569C16.1571 13.1566 17 11.1217 17 9Z" stroke="black" stroke-miterlimit="10"/>
<path d="M9 3V9H5" stroke="black" stroke-linecap="round" stroke-linejoin="round"/>
</g>
<defs>
<clipPath id="clip0_37_233">
<rect width="18" height="18" fill="white"/>
</clipPath>
</defs>
</svg>
