<svg width="100" height="100" viewBox="0 0 100 100" fill="none" xmlns="http://www.w3.org/2000/svg">
<path d="M49.9885 22.542C34.9498 22.542 22.8691 34.8312 22.8691 50.0782C22.8691 65.3252 34.9498 77.6144 49.9885 77.6144C65.0272 77.6144 77.0965 65.3252 77.0965 50.0782C77.0965 34.8312 65.0256 22.542 49.9885 22.542Z" fill="#1D1D1D"/>
<path d="M32.2065 41.4444C31.0883 41.4418 29.9806 41.6634 28.9472 42.0965C27.9137 42.5297 26.9749 43.1657 26.1846 43.9682C25.3944 44.7706 24.7684 45.7236 24.3425 46.7723C23.9167 47.821 23.6994 48.9447 23.7032 50.0789C23.6996 51.2129 23.917 52.3365 24.343 53.385C24.7689 54.4335 25.395 55.3863 26.1852 56.1885C26.9754 56.9908 27.9142 57.6267 28.9475 58.0597C29.9809 58.4928 31.0884 58.7144 32.2065 58.7118C35.1032 58.7118 36.2339 56.6374 36.2339 56.6374V58.5253H40.7081V50.0789C40.7117 48.945 40.4943 47.8216 40.0685 46.7732C39.6426 45.7248 39.0167 44.772 38.2267 43.9698C37.4366 43.1676 36.498 42.5316 35.4649 42.0985C34.4317 41.6654 33.3244 41.442 32.2065 41.4444ZM32.2065 45.9612C32.7395 45.9608 33.2673 46.0671 33.7597 46.2741C34.2521 46.4811 34.6993 46.7846 35.0758 47.1674C35.4522 47.5501 35.7504 48.0044 35.9533 48.5044C36.1562 49.0043 36.2598 49.5399 36.2581 50.0805C36.2598 50.6211 36.1562 51.1568 35.9533 51.6567C35.7504 52.1566 35.4522 52.6109 35.0758 52.9937C34.6993 53.3764 34.2521 53.68 33.7597 53.887C33.2673 54.0939 32.7395 54.2003 32.2065 54.1998C31.6735 54.2003 31.1456 54.0939 30.6532 53.887C30.1608 53.68 29.7136 53.3764 29.3372 52.9937C28.9607 52.6109 28.6625 52.1566 28.4596 51.6567C28.2567 51.1568 28.1531 50.6211 28.1548 50.0805C28.1531 49.5399 28.2567 49.0043 28.4596 48.5044C28.6625 48.0044 28.9607 47.5501 29.3372 47.1674C29.7136 46.7846 30.1608 46.4811 30.6532 46.2741C31.1456 46.0671 31.6735 45.9608 32.2065 45.9612ZM41.7903 35.501V50.0789C41.7871 51.2132 42.0049 52.3369 42.431 53.3856C42.8571 54.4343 43.4833 55.3873 44.2735 56.1899C45.0638 56.9925 46.0025 57.6288 47.0359 58.0624C48.0692 58.4961 49.1769 58.7184 50.2952 58.7167C51.413 58.7182 52.52 58.4956 53.5527 58.0618C54.5855 57.628 55.5235 56.9915 56.3129 56.1888C57.1023 55.3861 57.7276 54.4331 58.1527 53.3846C58.5779 52.3361 58.7946 51.2126 58.7903 50.0789C58.7944 48.9453 58.5775 47.822 58.1523 46.7737C57.727 45.7253 57.1017 44.7725 56.3123 43.97C55.5229 43.1675 54.585 42.5311 53.5524 42.0974C52.5197 41.6637 51.4128 41.4412 50.2952 41.4427C47.3984 41.4427 46.2629 43.522 46.2629 43.522V35.501H41.7903ZM50.2952 45.9596C50.8283 45.9589 51.3563 46.0651 51.8489 46.272C52.3415 46.4789 52.7889 46.7824 53.1655 47.1651C53.5421 47.5479 53.8405 48.0023 54.0435 48.5023C54.2465 49.0024 54.3501 49.5381 54.3484 50.0789C54.3503 50.6198 54.2468 51.1557 54.0439 51.6559C53.841 52.1561 53.5427 52.6108 53.1661 52.9937C52.7895 53.3766 52.3419 53.6803 51.8493 53.8873C51.3566 54.0943 50.8284 54.2005 50.2952 54.1998C49.762 54.2003 49.2341 54.0939 48.7416 53.8868C48.2491 53.6797 47.8018 53.376 47.4253 52.9931C47.0488 52.6102 46.7506 52.1556 46.5478 51.6555C46.3451 51.1554 46.2416 50.6196 46.2436 50.0789C46.2419 49.5383 46.3454 49.0026 46.5483 48.5027C46.7512 48.0028 47.0494 47.5484 47.4259 47.1657C47.8023 46.783 48.2495 46.4794 48.7419 46.2724C49.2343 46.0655 49.7622 45.9591 50.2952 45.9596ZM68.0226 41.4444C66.9044 41.4418 65.7967 41.6634 64.7633 42.0965C63.7298 42.5297 62.791 43.1657 62.0008 43.9682C61.2105 44.7706 60.5845 45.7236 60.1586 46.7723C59.7328 47.821 59.5155 48.9447 59.5194 50.0789C59.5157 51.2129 59.7332 52.3365 60.1591 53.385C60.585 54.4335 61.2111 55.3863 62.0013 56.1885C62.7916 56.9908 63.7303 57.6267 64.7636 58.0597C65.797 58.4928 66.9045 58.7144 68.0226 58.7118C69.9546 58.716 71.8302 58.0512 73.3392 56.8274C74.8481 55.6036 75.9 53.894 76.321 51.9815H71.6177C71.2762 52.6499 70.76 53.2102 70.1257 53.6012C69.4913 53.9921 68.7632 54.1987 68.021 54.1982C67.488 54.1986 66.9601 54.0923 66.4677 53.8853C65.9754 53.6783 65.5281 53.3748 65.1517 52.992C64.7752 52.6093 64.477 52.155 64.2741 51.655C64.0712 51.1551 63.9677 50.6195 63.9694 50.0789C63.9677 49.5381 64.0713 49.0024 64.2743 48.5023C64.4773 48.0023 64.7756 47.5479 65.1522 47.1651C65.5288 46.7824 65.9763 46.4789 66.4689 46.272C66.9614 46.0651 67.4894 45.9589 68.0226 45.9596C68.7672 45.9585 69.4977 46.1658 70.1337 46.5587C70.7697 46.9515 71.2866 47.5146 71.6274 48.1861H76.321C75.902 46.2717 74.8508 44.5599 73.3417 43.3342C71.8326 42.1084 69.9559 41.4406 68.0226 41.4444Z" fill="white"/>
</svg>
