<svg width="100" height="100" viewBox="0 0 100 100" fill="none" xmlns="http://www.w3.org/2000/svg">
<path fill-rule="evenodd" clip-rule="evenodd" d="M50.4484 28.7622H51.9742C51.9742 28.7622 52.7903 28.7622 52.9016 29.1532C52.7726 29.2579 52.6 29.3446 52.4064 29.4394C51.6887 29.7944 50.7097 30.277 50.8823 32.3727L53.45 49.8577L61.471 30.4848C63.1129 26.1594 59.6677 22.5472 56.6129 22.436C56.468 22.425 56.3227 22.419 56.1774 22.418C53.4355 22.418 50.2935 24.4384 50.4484 28.7622ZM38.271 30.5388C36.521 25.7095 40.4532 22.5472 43.071 22.4932C46.0758 22.1562 49.8435 24.4874 49.1871 29.5376L46.3484 49.8609L38.271 30.5388ZM30.1887 40.7569C26.1516 38.0331 26.9661 33.3723 29.2048 31.3175C32.3726 28.6018 36.85 29.5343 38.4855 33.8172L46.2968 51.9631L30.1887 40.7569ZM53.5597 51.9124L61.1484 33.9825C62.3903 30.9102 64.5322 29.8337 66.5355 29.8337C68.229 29.8337 69.8274 30.601 70.6984 31.594C72.7774 33.7044 73.3758 37.9742 69.6629 40.644L53.5597 51.9124ZM67.8613 43.1961L52.7387 53.9099H71.3581C75.179 53.9099 77.6323 49.9149 76.5419 46.2471C75.8113 43.9437 73.6484 42.1344 71.1387 42.1327C70.0822 42.1327 68.9613 42.455 67.8613 43.1961ZM47.1161 53.9099H28.771C24.9484 53.9099 21.9452 50.3566 23.1484 46.0296C24.5677 42.2505 28.4968 40.9189 31.9903 43.1961L47.1161 53.9099Z" fill="#1D1D1D"/>
<path d="M49.0887 68.5679H52.4919C53.2742 68.617 54.6597 69.3107 54.6597 70.9515C54.6597 72.6676 53.221 73.3596 52.4419 73.4381H49.0871L49.0887 68.5679ZM49.0371 60.9281H51.8371C52.7952 60.9804 53.9274 61.697 53.9274 63.0303C53.9274 64.3374 53.0726 65.2077 51.9629 65.3631H49.0371V60.9281ZM45.2065 57.7478V76.6135H54.2323C56.3742 76.6135 58.9194 74.4377 58.9194 71.5912C58.9194 68.6187 57.0048 67.1577 55.7935 66.5688C55.7935 66.5688 58.0113 65.2601 57.9129 62.4397C57.8129 58.6459 54.3565 57.7478 53.171 57.7478H45.2065ZM31.3645 76.6151V65.7476L43.0613 77.3317V57.7494H39.1306V68.3373L27.4306 56.9822V76.6135L31.3645 76.6151ZM59.5516 66.9778C59.65 72.9424 63.8774 77.4037 69.3097 77.4037C70.5984 77.4037 71.9548 77.1566 73.3419 76.6135V72.769C72.2819 73.4273 71.0638 73.777 69.821 73.7801C66.5339 73.7801 63.4306 71.3131 63.5597 66.824C63.7806 63.1824 66.721 60.6696 69.8871 60.6696C71.1187 60.675 72.321 61.0507 73.3419 61.7493V58.0079C72.1386 57.5047 70.85 57.2447 69.5484 57.2423C64.129 57.2423 59.6565 61.8802 59.5516 66.9778Z" fill="#1D1D1D"/>
</svg>
