<svg width="100" height="100" viewBox="0 0 100 100" fill="none" xmlns="http://www.w3.org/2000/svg">
<path d="M61.8516 42.1527C61.8516 52.1532 60.0726 63.3611 50.0274 63.3611C40.5968 63.3611 38.6807 52.1532 38.7484 42.4864C38.8178 31.9509 40.321 20.5419 50.0936 20.5419C59.8 20.5419 61.8516 31.5501 61.8516 42.1527ZM50.0274 64.1692C62.1242 64.1692 71.2145 53.8333 71.2145 41.9531C71.2145 30.1383 62.2613 19.7354 50.1613 19.7354C38.5403 19.7354 29.3823 30.4083 29.3823 42.2868C29.3839 53.8988 38.2032 64.1692 50.0274 64.1692ZM49.3129 70.5576C49.3129 71.5506 48.5194 72.1183 47.7758 72.1183C47.021 72.1183 46.2403 71.5506 46.2403 70.5576C46.2403 69.5646 47.021 69.0067 47.7758 69.0067C48.5178 69.0067 49.3129 69.5646 49.3129 70.5576ZM49.9403 70.5576C49.9403 69.2685 48.8661 68.4751 47.7758 68.4751C46.6871 68.4751 45.6145 69.2685 45.6145 70.5576C45.6145 71.8598 46.6871 72.6451 47.7758 72.6451C48.8661 72.6451 49.9403 71.8598 49.9403 70.5576Z" fill="#1D1D1D"/>
<path d="M49.3129 70.5572C49.3129 71.5502 48.5194 72.1179 47.7758 72.1179C47.021 72.1179 46.2403 71.5502 46.2403 70.5572C46.2403 69.5642 47.021 69.0063 47.7758 69.0063C48.5177 69.0063 49.3129 69.5642 49.3129 70.5572ZM49.9403 70.5572C49.9403 69.268 48.8661 68.4746 47.7758 68.4746C46.6871 68.4746 45.6145 69.268 45.6145 70.5572C45.6145 71.8594 46.6871 72.6446 47.7758 72.6446C48.8661 72.6446 49.9403 71.8594 49.9403 70.5572Z" fill="#1D1D1D" stroke="#1D1D1D" stroke-width="0.0927581"/>
<path d="M54.7615 69.6841C54.7615 70.1062 54.4002 70.296 54.0357 70.296H53.5309V69.0755H54.0357C54.4002 69.0739 54.7615 69.2686 54.7615 69.6841ZM55.3744 69.6841C55.3744 68.9234 54.7212 68.5586 54.1438 68.5586H52.918V72.5699H53.5309V70.8097H54.1438C54.7212 70.8097 55.3744 70.4465 55.3744 69.6841Z" fill="#1D1D1D"/>
<path d="M54.7615 69.6841C54.7615 70.1062 54.4002 70.296 54.0357 70.296H53.5309V69.0755H54.0357C54.4002 69.0739 54.7615 69.2686 54.7615 69.6841ZM55.3744 69.6841C55.3744 68.9234 54.7212 68.5586 54.1438 68.5586H52.918V72.5699H53.5309V70.8097H54.1438C54.7212 70.8097 55.3744 70.4465 55.3744 69.6841Z" fill="#1D1D1D" stroke="#1D1D1D" stroke-width="0.0927581"/>
<path d="M60.1178 69.6841C60.1178 70.1062 59.7597 70.296 59.3952 70.296H58.8258V69.0755H59.3952C59.7597 69.0739 60.1178 69.2686 60.1178 69.6841ZM61.4113 72.5699L60.0161 70.7131C60.4113 70.5577 60.7339 70.2174 60.7339 69.6841C60.7339 68.9234 60.0823 68.5586 59.5065 68.5586H58.2113V72.5699H58.8258V70.8097H59.4032L60.6887 72.5699H61.4113Z" fill="#1D1D1D"/>
<path d="M60.1178 69.6841C60.1178 70.1062 59.7597 70.296 59.3952 70.296H58.8258V69.0755H59.3952C59.7597 69.0739 60.1178 69.2686 60.1178 69.6841ZM61.4113 72.5699L60.0161 70.7131C60.4113 70.5577 60.7339 70.2174 60.7339 69.6841C60.7339 68.9234 60.0823 68.5586 59.5065 68.5586H58.2113V72.5699H58.8258V70.8097H59.4032L60.6887 72.5699H61.4113Z" fill="#1D1D1D" stroke="#1D1D1D" stroke-width="0.0927581"/>
<path d="M66.2097 71.0481H65.0387L65.3516 70.2874C65.4355 70.078 65.5048 69.8964 65.6161 69.5774H65.629C65.7371 69.8915 65.8081 70.0731 65.8984 70.294L66.2097 71.0481ZM67.4871 72.5696L65.7452 68.501H65.5193L63.779 72.5679H64.3871L64.829 71.5307H66.4177L66.8597 72.5679L67.4871 72.5696Z" fill="#1D1D1D"/>
<path d="M66.2097 71.0481H65.0387L65.3516 70.2874C65.4355 70.078 65.5048 69.8964 65.6161 69.5774H65.629C65.7371 69.8915 65.8081 70.0731 65.8984 70.294L66.2097 71.0481ZM67.4871 72.5696L65.7452 68.501H65.5193L63.779 72.5679H64.3871L64.829 71.5307H66.4177L66.8597 72.5679L67.4871 72.5696Z" fill="#1D1D1D" stroke="#1D1D1D" stroke-width="0.0927581"/>
<path d="M73.0613 72.5699V70.8146H70.9548V72.5699H70.3354V68.5586H70.9548V70.296H73.0613V68.5586H73.6822V72.5699H73.0613Z" fill="#1D1D1D"/>
<path d="M73.0613 72.5699V70.8146H70.9548V72.5699H70.3354V68.5586H70.9548V70.296H73.0613V68.5586H73.6822V72.5699H73.0613Z" fill="#1D1D1D" stroke="#1D1D1D" stroke-width="0.0927581"/>
<path d="M28.8548 69.0834V72.5942H28.2355V69.0834H26.9226V68.5566H30.1661V69.0834H28.8548Z" fill="#1D1D1D"/>
<path d="M28.8548 69.0834V72.5942H28.2355V69.0834H26.9226V68.5566H30.1661V69.0834H28.8548Z" fill="#1D1D1D" stroke="#1D1D1D" stroke-width="0.0927581"/>
<path d="M35.6452 72.5941V70.8305H33.5403V72.5941H32.9177V68.5566H33.5403V70.3054H35.6452V68.5549H36.2645V72.5957L35.6452 72.5941Z" fill="#1D1D1D"/>
<path d="M35.6452 72.5941V70.8305H33.5403V72.5941H32.9177V68.5566H33.5403V70.3054H35.6452V68.5549H36.2645V72.5957L35.6452 72.5941Z" fill="#1D1D1D" stroke="#1D1D1D" stroke-width="0.0927581"/>
<path d="M39.4032 72.5942V68.5566H41.6065V69.0834H40.0242V70.3055H41.35V70.829H40.0242V72.069H41.8306V72.5942H39.4032Z" fill="#1D1D1D"/>
<path d="M39.4032 72.5942V68.5566H41.6065V69.0834H40.0242V70.3055H41.35V70.829H40.0242V72.069H41.8306V72.5942H39.4032Z" fill="#1D1D1D" stroke="#1D1D1D" stroke-width="0.0927581"/>
<path d="M30.9419 81.0746L30.8194 79.7381C30.7742 79.2489 30.7387 78.8023 30.7113 78.3312H30.6984C30.5081 78.7303 30.2952 79.1606 30.0694 79.5908L29.2903 81.1025H29.0597L28.271 79.6039C28.029 79.1361 27.8032 78.6993 27.6435 78.3443H27.6306C27.5984 78.8252 27.5597 79.3127 27.5226 79.7479L27.4097 81.0714H26.8581L27.2097 77.0322H27.5935L28.5677 78.8858C28.8054 79.3395 29.0145 79.7593 29.1952 80.1454H29.2081C29.3742 79.7643 29.579 79.3487 29.821 78.8808L30.7823 77.0322H31.1661L31.5323 81.0714H30.9419" fill="#1D1D1D"/>
<path d="M30.9419 81.0746L30.8194 79.7381C30.7742 79.2489 30.7387 78.8023 30.7113 78.3312H30.6984C30.5081 78.7303 30.2952 79.1606 30.0694 79.5908L29.2903 81.1025H29.0597L28.271 79.6039C28.029 79.1361 27.8032 78.6993 27.6435 78.3443H27.6306C27.5984 78.8252 27.5597 79.3127 27.5226 79.7479L27.4097 81.0714H26.8581L27.2097 77.0322H27.5935L28.5677 78.8858C28.8054 79.3395 29.0145 79.7593 29.1952 80.1454H29.2081C29.3742 79.7643 29.579 79.3487 29.821 78.8808L30.7823 77.0322H31.1661L31.5323 81.0714H30.9419V81.0746Z" fill="#1D1D1D" stroke="#1D1D1D" stroke-width="0.0927581"/>
<path d="M36.8952 79.5451H35.7226L36.0387 78.7794C36.1194 78.57 36.1919 78.3868 36.3 78.0629H36.3129C36.421 78.3786 36.4935 78.5635 36.5839 78.7844L36.8952 79.5451ZM38.1694 81.0747L36.4274 76.9783H36.2016L34.4597 81.0747H35.0694L35.5113 80.0309H37.1L37.5419 81.0747H38.1694Z" fill="#1D1D1D"/>
<path d="M36.8952 79.5451H35.7226L36.0387 78.7794C36.1194 78.57 36.1919 78.3868 36.3 78.0629H36.3129C36.421 78.3786 36.4935 78.5635 36.5839 78.7844L36.8952 79.5451ZM38.1694 81.0747L36.4274 76.9783H36.2016L34.4597 81.0747H35.0694L35.5113 80.0309H37.1L37.5419 81.0747H38.1694Z" fill="#1D1D1D" stroke="#1D1D1D" stroke-width="0.0927581"/>
<path d="M43.1097 81.1513C42.0081 81.1513 40.8677 80.4249 40.8677 79.0556C40.8677 77.6569 42.0532 76.9551 43.0693 76.9551C43.6339 76.9551 44.0855 77.0909 44.3871 77.2774L44.271 77.8107C43.9298 77.5999 43.5381 77.4885 43.1387 77.4884C42.3387 77.4884 41.4935 78.007 41.4935 79.0654C41.4935 80.1108 42.3129 80.6212 43.1435 80.6212C43.5226 80.6212 43.8161 80.546 44.0081 80.4118V79.5726H43.0726V79.0785H44.6016V80.7177C44.2097 81.0253 43.7177 81.1513 43.1097 81.1513Z" fill="#1D1D1D"/>
<path d="M43.1097 81.1513C42.0081 81.1513 40.8677 80.4249 40.8677 79.0556C40.8677 77.6569 42.0532 76.9551 43.0693 76.9551C43.6339 76.9551 44.0855 77.0909 44.3871 77.2774L44.271 77.8107C43.9298 77.5999 43.5381 77.4885 43.1387 77.4884C42.3387 77.4884 41.4935 78.007 41.4935 79.0654C41.4935 80.1108 42.3129 80.6212 43.1435 80.6212C43.5226 80.6212 43.8161 80.546 44.0081 80.4118V79.5726H43.0726V79.0785H44.6016V80.7177C44.2097 81.0253 43.7177 81.1513 43.1097 81.1513Z" fill="#1D1D1D" stroke="#1D1D1D" stroke-width="0.0927581"/>
<path d="M50.0484 79.5451H48.8758L49.1887 78.7794C49.2694 78.57 49.3419 78.3868 49.45 78.0629H49.4629C49.571 78.3786 49.6435 78.5635 49.7306 78.7844L50.0484 79.5451ZM51.3226 81.0747L49.5823 76.9783H49.3565L47.6161 81.0747H48.2242L48.6661 80.0309H50.2548L50.6968 81.0747H51.3226Z" fill="#1D1D1D"/>
<path d="M50.0484 79.5451H48.8758L49.1887 78.7794C49.2694 78.57 49.3419 78.3868 49.45 78.0629H49.4629C49.571 78.3786 49.6435 78.5635 49.7306 78.7844L50.0484 79.5451ZM51.3226 81.0747L49.5823 76.9783H49.3565L47.6161 81.0747H48.2242L48.6661 80.0309H50.2548L50.6968 81.0747H51.3226Z" fill="#1D1D1D" stroke="#1D1D1D" stroke-width="0.0927581"/>
<path d="M54.1581 81.0763V80.9291L55.5016 78.5962C55.7145 78.2347 55.9258 77.8682 56.1242 77.5591L56.1193 77.5509H54.2613V77.0388H56.95V77.1844L55.6 79.514C55.4064 79.8428 55.1774 80.2355 54.9774 80.5577L54.9871 80.5626H57.0548V81.0747L54.1581 81.0763Z" fill="#1D1D1D"/>
<path d="M54.1581 81.0763V80.9291L55.5016 78.5962C55.7145 78.2347 55.9258 77.8682 56.1242 77.5591L56.1193 77.5509H54.2613V77.0388H56.95V77.1844L55.6 79.514C55.4064 79.8428 55.1774 80.2355 54.9774 80.5577L54.9871 80.5626H57.0548V81.0747L54.1581 81.0763Z" fill="#1D1D1D" stroke="#1D1D1D" stroke-width="0.0927581"/>
<path d="M60.8661 77.0388H60.2452V81.078H60.8661V77.0388Z" fill="#1D1D1D"/>
<path d="M60.8661 77.0388H60.2452V81.078H60.8661V77.0388Z" fill="#1D1D1D" stroke="#1D1D1D" stroke-width="0.0927581"/>
<path d="M67.7871 81.163L66.0048 79.2637C65.6339 78.871 65.2371 78.4342 64.9306 78.0596L64.9177 78.0678C64.9307 78.4342 64.9306 78.7189 64.9306 79.0166V81.0714H64.3097V77.0322H64.7371L66.2936 78.7222C66.6452 79.1066 67.0355 79.5303 67.35 79.9164L67.3629 79.9131C67.35 79.6007 67.35 79.2653 67.35 78.9692V77.0322H67.971V81.1597H67.7871" fill="#1D1D1D"/>
<path d="M67.7871 81.163L66.0048 79.2637C65.6339 78.871 65.2371 78.4342 64.9306 78.0596L64.9177 78.0678C64.9307 78.4342 64.9306 78.7189 64.9306 79.0166V81.0714H64.3097V77.0322H64.7371L66.2936 78.7222C66.6452 79.1066 67.0355 79.5303 67.35 79.9164L67.3629 79.9131C67.35 79.6007 67.35 79.2653 67.35 78.9692V77.0322H67.971V81.1597H67.7871V81.163Z" fill="#1D1D1D" stroke="#1D1D1D" stroke-width="0.0927581"/>
<path d="M71.3194 81.0763V77.0388H73.521V77.5623H71.9387V78.786H73.2645V79.3095H71.9387V80.5512H73.7435V81.0747L71.3194 81.0763Z" fill="#1D1D1D"/>
<path d="M71.3194 81.0763V77.0388H73.521V77.5623H71.9387V78.786H73.2645V79.3095H71.9387V80.5512H73.7435V81.0747L71.3194 81.0763Z" fill="#1D1D1D" stroke="#1D1D1D" stroke-width="0.0927581"/>
</svg>
