<svg width="100" height="100" viewBox="0 0 100 100" fill="none" xmlns="http://www.w3.org/2000/svg">
<path d="M22.4903 56.3703V59.0271H25.6065V67.7597H28.5968V59.0271H31.6968V56.3703H22.4903ZM39.6532 65.0228C39.2696 65.1933 38.8542 65.2775 38.4355 65.2698C38.0119 65.2754 37.5918 65.1918 37.2016 65.0244C36.8371 64.8576 36.5274 64.6313 36.2726 64.3455C36.0119 64.0502 35.8094 63.707 35.6758 63.3345C35.5309 62.9298 35.4588 62.5021 35.4629 62.0715C35.4629 61.6178 35.5339 61.1969 35.6758 60.8086C35.8095 60.4367 36.0121 60.0941 36.2726 59.7992C36.5285 59.5124 36.8382 59.2861 37.2016 59.1203C37.5672 58.9567 37.9785 58.8744 38.4355 58.8733C38.8903 58.8733 39.2903 58.9567 39.6532 59.1203C40.0156 59.285 40.3253 59.5113 40.5823 59.7992C40.8382 60.0861 41.0371 60.4225 41.179 60.8086C41.321 61.1979 41.3919 61.6189 41.3919 62.0715C41.3919 62.5231 41.321 62.9484 41.179 63.3345C41.0455 63.707 40.8429 64.0502 40.5823 64.3455C40.3225 64.6352 40.007 64.866 39.6532 65.0228ZM42.7194 57.8312C42.1688 57.3052 41.5223 56.8935 40.8161 56.6189C40.0552 56.3265 39.2476 56.1789 38.4339 56.1838C37.5855 56.1838 36.771 56.331 36.0452 56.6189C35.3194 56.9069 34.679 57.3159 34.1419 57.8295C33.5991 58.3562 33.1687 58.9905 32.8774 59.6929C32.5758 60.4127 32.4226 61.2143 32.4226 62.0732C32.4226 62.9337 32.5758 63.7337 32.8774 64.4535C33.1807 65.1733 33.6048 65.7999 34.1419 66.3168C34.679 66.8321 35.3194 67.2395 36.0452 67.5274C36.771 67.8153 37.5758 67.9626 38.4323 67.9626C39.2463 67.9713 40.0546 67.8236 40.8145 67.5274C41.5206 67.2534 42.1671 66.8422 42.7178 66.3168C43.25 65.7999 43.6726 65.1733 43.9758 64.4535C44.2774 63.7337 44.429 62.9321 44.429 62.0732C44.429 61.2127 44.2758 60.4127 43.9742 59.6929C43.6856 58.9919 43.2586 58.3583 42.7194 57.8312ZM53.9258 62.0568C53.9258 62.4625 53.8565 62.8568 53.721 63.2249C53.5885 63.5829 53.3885 63.9113 53.1323 64.1917C52.8647 64.4756 52.5424 64.7005 52.1855 64.8526C51.8102 65.0162 51.3823 65.0986 50.9016 65.0997H49.1629V59.0254H50.9177C51.4177 59.0254 51.8613 59.1039 52.2355 59.2577C52.6108 59.4104 52.9231 59.6247 53.1726 59.9006C53.422 60.1755 53.6097 60.495 53.7355 60.8593C53.8602 61.2247 53.9231 61.6228 53.9242 62.0536M55.2468 57.8868C54.6869 57.3855 54.0345 57.0018 53.3274 56.758C52.5434 56.4904 51.7208 56.3577 50.8936 56.3654H46.1726V67.7565H50.9097C51.779 67.7565 52.5919 67.6256 53.3274 67.3638C54.0629 67.1021 54.7097 66.7225 55.2468 66.2285C55.7839 65.7344 56.2065 65.1308 56.5081 64.4339C56.8097 63.7353 56.9629 62.9353 56.9629 62.0519C56.9757 61.2351 56.8208 60.4245 56.5081 59.6716C56.2167 58.9916 55.7862 58.3821 55.2452 57.8835M64.5355 63.4801H61.8742L63.2048 59.4982L64.5355 63.4801ZM65.0468 56.3703H61.3629L57.1645 67.6747L57.1323 67.7597H60.5161L61.0661 66.1385H65.3629L65.9145 67.7597H69.2968L65.0661 56.4095L65.05 56.3703H65.0468ZM76.1194 56.3703L73.7694 60.4634L71.3887 56.3703H68.0081L72.2774 63.1725V67.7597H75.2661V63.1725L79.5161 56.3703H76.1194ZM29.8226 51.2383C30.5532 40.2153 39.6355 31.4728 50.6936 31.4728C61.7548 31.4728 70.9065 40.2824 71.5742 51.3659C71.6011 51.7978 71.6145 52.2341 71.6145 52.6747H78.9355C78.9355 52.281 78.928 51.8894 78.9129 51.5001C78.3064 36.2367 65.9032 24.0538 50.6936 24.0538C46.9838 24.043 43.3086 24.7758 39.8789 26.21C36.4492 27.6442 33.3327 29.7516 30.7084 32.4111C28.084 35.0707 26.0037 38.2299 24.5867 41.7073C23.1698 45.1848 22.4442 48.9119 22.4516 52.6747H29.7742C29.7742 52.1904 29.7903 51.7117 29.8226 51.2383Z" fill="#1D1D1D"/>
<path d="M39.2645 51.3235C39.5954 48.484 40.9415 45.8663 43.0479 43.9662C45.1543 42.0661 47.8746 41.0156 50.6936 41.0137C56.5855 41.0137 61.5113 45.5747 62.1323 51.4118C62.1764 51.8262 62.1984 52.2461 62.1984 52.6715H69.521C69.521 52.2647 69.5086 51.8606 69.4839 51.4592C68.8661 41.4865 60.6903 33.5947 50.6919 33.5947C40.6936 33.5947 32.5436 41.4636 31.9049 51.4151C31.878 51.8295 31.8645 52.2489 31.8645 52.6731H39.1871C39.1871 52.215 39.214 51.7652 39.2645 51.3235Z" fill="#1D1D1D"/>
<path d="M50.6935 43.134C48.1985 43.1345 45.8057 44.1396 44.0409 45.9287C42.2762 47.7177 41.284 50.1442 41.2823 52.6749H60.1097C60.1097 52.2135 60.0774 51.7609 60.0129 51.317C59.6901 49.0443 58.5702 46.9659 56.8588 45.4628C55.1473 43.9598 52.9574 43.133 50.6935 43.134Z" fill="#1D1D1D"/>
</svg>
