<svg width="28" height="28" viewBox="0 0 28 28" fill="none" xmlns="http://www.w3.org/2000/svg">
<path fill-rule="evenodd" clip-rule="evenodd" d="M6.54363 20.8389C4.05239 18.9236 3.41823 16.4891 3.72623 13.3622C4.02439 10.3336 5.40623 8.44323 7.93001 6.7428C10.3153 5.13469 12.8171 4.10021 15.6353 4.68442C18.6578 5.31102 21.1089 6.8548 22.2683 9.7161C23.4087 12.5312 23.0387 15.7369 21.4744 18.3393C19.9882 20.8139 17.3282 22.2018 14.4805 22.6786C11.6631 23.15 8.80861 22.581 6.54363 20.8389Z" fill="#101010" fill-opacity="0.8"/>
<path fill-rule="evenodd" clip-rule="evenodd" d="M11.2948 20.388H13.7716V14.6737H15.6022L15.9677 12.3656H13.7716V10.6198C13.7716 9.97273 14.3922 9.60646 14.9825 9.60646H16.0525V7.69186L14.1379 7.60786C12.3081 7.49435 11.2948 8.93067 11.2948 10.6478V12.3656H9.21143V14.6737H11.2948V20.388Z" fill="white"/>
</svg>
