<svg width="28" height="28" viewBox="0 0 28 28" fill="none" xmlns="http://www.w3.org/2000/svg">
<path fill-rule="evenodd" clip-rule="evenodd" d="M17.2353 4.52276C20.4197 5.1539 22.1391 7.06849 23.3166 10.0198C24.457 12.8789 24.0688 15.1892 22.544 17.8296C21.1023 20.3269 19.2861 22.358 16.4226 23.0694C13.3524 23.8337 10.3783 23.5196 7.97715 21.4514C5.61304 19.4157 4.45747 16.366 4.6792 13.3344C4.88958 10.4527 6.68688 8.03336 9.08126 6.35336C11.4499 4.69 14.3392 3.94914 17.2353 4.52276Z" fill="#101010" fill-opacity="0.8"/>
<path fill-rule="evenodd" clip-rule="evenodd" d="M11.4787 7.9707H16.8215C18.537 7.9707 19.9484 9.38205 19.9484 11.0984V16.4123C19.9484 18.1286 18.537 19.54 16.8207 19.54H11.4787C9.76243 19.54 8.35107 18.1286 8.35107 16.4123V11.0984C8.35107 9.38205 9.76243 7.9707 11.4787 7.9707ZM17.2634 9.99124C17.4389 9.99359 17.6065 10.0644 17.7306 10.1885C17.8547 10.3125 17.9255 10.4802 17.9278 10.6557C17.9255 10.8312 17.8547 10.9988 17.7306 11.1229C17.6065 11.247 17.4389 11.3178 17.2634 11.3201C17.1758 11.3212 17.0889 11.3048 17.0078 11.2718C16.9267 11.2388 16.853 11.1899 16.7911 11.128C16.7292 11.0661 16.6803 10.9924 16.6473 10.9113C16.6143 10.8301 16.5978 10.7432 16.599 10.6557C16.599 10.2955 16.8759 9.99124 17.2634 9.99124ZM14.1357 10.6004H14.1637C15.88 10.6004 17.3194 12.0398 17.3194 13.7561C17.3194 15.4989 15.88 16.9118 14.1637 16.9118H14.1357C12.4202 16.9118 11.008 15.4997 11.008 13.7561C11.008 12.0398 12.4202 10.6004 14.1357 10.6004ZM14.1357 11.6796H14.1637C15.2989 11.6796 16.2395 12.621 16.2395 13.7554C16.2395 14.9177 15.2989 15.8591 14.1637 15.8591H14.1357C13.0006 15.8591 12.0599 14.9177 12.0599 13.7554C12.0599 12.6202 13.0013 11.6796 14.1357 11.6796ZM11.5067 8.96735H16.7935C17.3656 8.96815 17.9141 9.1958 18.3187 9.60038C18.7233 10.005 18.9509 10.5535 18.9517 11.1256V16.3851C18.9511 16.9574 18.7236 17.5061 18.319 17.9108C17.9144 18.3156 17.3657 18.5433 16.7935 18.5441H11.5067C10.9343 18.5435 10.3855 18.3158 9.98075 17.9111C9.57598 17.5063 9.34832 16.9575 9.34772 16.3851V11.1256C9.34852 10.5533 9.57627 10.0047 9.98102 9.60011C10.3858 9.19551 10.9345 8.96795 11.5067 8.96735Z" fill="white"/>
</svg>
