<svg width="28" height="28" viewBox="0 0 28 28" fill="none" xmlns="http://www.w3.org/2000/svg">
<path fill-rule="evenodd" clip-rule="evenodd" d="M23.467 15.0812C23.6812 18.3201 22.2766 20.4769 19.7309 22.3778C17.2639 24.219 14.9323 24.4423 11.9863 23.653C9.20215 22.9068 6.76994 21.6778 5.34194 19.0965C3.8095 16.3283 3.34259 13.3747 4.71837 10.5195C6.07296 7.70961 8.71934 5.8041 11.7047 5.23351C14.5433 4.69091 17.3449 5.80107 19.5879 7.67783C21.8074 9.53642 23.2718 12.1351 23.467 15.0812Z" fill="#101010" fill-opacity="0.8"/>
<path d="M9.37782 17.6328C9.57609 17.7137 9.75468 17.6358 9.81295 17.4156C9.8523 17.2627 9.94766 16.8783 9.99003 16.7171C10.0491 16.4991 10.0256 16.4227 9.86517 16.2328C9.51479 15.8203 9.29155 15.2853 9.29155 14.5278C9.29155 12.3309 10.9352 10.3641 13.5718 10.3641C15.9064 10.3641 17.1891 11.7906 17.1891 13.6961C17.1891 16.2025 16.0797 18.3176 14.433 18.3176C13.5233 18.3176 12.843 17.5662 13.0602 16.6437C13.3228 15.5426 13.8283 14.3537 13.8283 13.5584C13.8283 12.847 13.4461 12.2537 12.6553 12.2537C11.726 12.2537 10.9791 13.2148 10.9791 14.5036C10.9791 15.3239 11.2568 15.8793 11.2568 15.8793L10.1384 20.6166C9.80539 22.0219 10.0884 23.7458 10.1119 23.9199C10.127 24.0236 10.2587 24.0478 10.3185 23.9706C10.4047 23.8578 11.5119 22.4904 11.888 21.1252C11.9947 20.7385 12.5002 18.7353 12.5002 18.7353C12.8014 19.312 13.6845 19.819 14.6229 19.819C17.4184 19.819 19.314 17.271 19.314 13.8611C19.314 11.282 17.13 8.88086 13.8101 8.88086C9.67976 8.88086 7.59717 11.842 7.59717 14.3113C7.59717 15.8067 8.16322 17.1371 9.37782 17.6328Z" fill="white"/>
</svg>
