<svg width="28" height="28" viewBox="0 0 28 28" fill="none" xmlns="http://www.w3.org/2000/svg">
<path fill-rule="evenodd" clip-rule="evenodd" d="M23.5556 14.7042C23.7698 17.9431 22.3652 20.0999 19.8195 22.0001C17.3525 23.8421 15.0209 24.0661 12.0756 23.276C9.29075 22.5298 6.85853 21.3009 5.42977 18.7196C3.8981 15.9514 3.43194 12.9977 4.80696 10.1425C6.16156 7.33266 8.80869 5.42715 11.7941 4.85655C14.6319 4.31396 17.4342 5.42412 19.6772 7.30088C21.896 9.15947 23.3604 11.7582 23.5556 14.7042Z" fill="#101010" fill-opacity="0.8"/>
<path fill-rule="evenodd" clip-rule="evenodd" d="M18.2763 11.1148C17.7185 11.0391 17.2357 10.7349 16.8301 10.2778C16.348 9.74507 16.0688 9.03447 16.0945 8.34961H14.0891V16.3417C14.0891 17.2801 13.3286 18.0414 12.3637 18.0414C11.806 18.0414 11.299 17.7629 10.969 17.3316C10.7665 17.0416 10.6601 16.6954 10.6648 16.3417C10.665 15.891 10.8441 15.4588 11.1629 15.1401C11.4816 14.8214 11.9138 14.6422 12.3645 14.642C12.5423 14.642 12.7194 14.667 12.8715 14.7177V12.6881C12.7042 12.6571 12.5346 12.6399 12.3645 12.6366H12.2888C11.3198 12.6578 10.3976 13.0573 9.71948 13.7498C9.04134 14.4422 8.66111 15.3725 8.66016 16.3417C8.66278 17.2736 9.01617 18.1703 9.64999 18.8534C10.0007 19.2205 10.4219 19.513 10.8883 19.7135C11.3547 19.9141 11.8568 20.0184 12.3645 20.0203C14.4198 20.0203 16.0953 18.3706 16.0953 16.3417V12.1796C16.4681 12.5158 16.9055 12.7724 17.3808 12.9339C17.8561 13.0954 18.3593 13.1583 18.8597 13.1187V11.114C18.6688 11.1648 18.4679 11.1648 18.277 11.114L18.2763 11.1148Z" fill="white"/>
</svg>
